{
DisplayStrings = (
"/hamza-ar"
);
copyright = "Copyright 2015 Mohamed Gaber (gaber@gaberism.net)Copyright 2015 Mohamed Gaber (gaber@gaberism.net)";
customParameters = (
{
name = description;
value = "Cairo is the matching arabic typeface to the Latin typeface Titilliumweb, compining Kufi & Naskh structures.\012Cairo supports Arabic, Persian, Urdu & available now in Regular & Bold weights but more weights might be added in the future.\012Font is still in a beta phase & still under testing.";
},
{
name = license;
value = "This Font Software is licensed under the SIL Open Font License, Version 1.1. This license is available with a FAQ at: http://scripts.sil.org/OFL";
},
{
name = licenseURL;
value = "http://scripts.sil.org/OFL";
},
{
name = glyphOrder;
value = (
    ".notdef",
    uni0000,
    uni000D,
    space,
    exclam,
    quotedbl,
    numbersign,
    dollar,
    percent,
    ampersand,
    quotesingle,
    parenleft,
    parenright,
    asterisk,
    plus,
    comma,
    hyphen,
    period,
    slash,
    zero,
    one,
    two,
    three,
    four,
    five,
    six,
    seven,
    eight,
    nine,
    colon,
    semicolon,
    less,
    equal,
    greater,
    question,
    at,
    A,
    B,
    C,
    D,
    E,
    F,
    G,
    H,
    I,
    J,
    K,
    L,
    M,
    N,
    O,
    P,
    Q,
    R,
    S,
    T,
    U,
    V,
    W,
    X,
    Y,
    Z,
    bracketleft,
    backslash,
    bracketright,
    asciicircum,
    underscore,
    grave,
    a,
    b,
    c,
    d,
    e,
    f,
    g,
    h,
    i,
    j,
    k,
    l,
    m,
    n,
    o,
    p,
    q,
    r,
    s,
    t,
    u,
    v,
    w,
    x,
    y,
    z,
    braceleft,
    bar,
    braceright,
    asciitilde,
    uni00A0,
    exclamdown,
    cent,
    sterling,
    currency,
    yen,
    brokenbar,
    section,
    dieresis,
    copyright,
    ordfeminine,
    guillemotleft,
    logicalnot,
    registered,
    macron,
    degree,
    plusminus,
    twosuperior,
    threesuperior,

glyphs = (
{
glyphname = exclam;
layers = (
{
layerId = "7BE58B69-D6A5-4645-9194-9194354D517E";
name = Regular;
paths = (
{
closed = 1;
nodes = (
"83 0 LINE",
"83 112 LINE",
"165 112 LINE",
"165 0 LINE"
);
},
{
closed = 1;
nodes = (
"89 228 LINE",
"84 692 LINE",
"163 692 LINE",
"158 228 LINE"
);
}
);
width = 247;
}
);
unicode = 0021;
},
{
glyphname = quotedbl;
layers = (
{
layerId = "7BE58B69-D6A5-4645-9194-9194354D517E";
name = Regular;
paths = (
{
closed = 1;
nodes = (
"303 470 LINE",
"236 470 LINE",
"232 692 LINE",
"307 692 LINE"
);
},
{
closed = 1;
nodes = (
"137 470 LINE",
"70 470 LINE",
"66 692 LINE",
"141 692 LINE"
);
}
);
width = 373;
}
);
leftKerningGroup = quotedbl;
rightKerningGroup = quotedbl;
unicode = 0022;
},
{
glyphname = numbersign;
layers = (
{
layerId = "7BE58B69-D6A5-4645-9194-9194354D517E";
name = Regular;
paths = (
{
closed = 1;
nodes = (
"536 174 LINE",
"425 174 LINE",
"425 0 LINE",
"357 0 LINE",
"357 174 LINE",
"203 174 LINE",
"203 0 LINE",
"135 0 LINE",
"135 174 LINE",
"24 174 LINE",
"24 238 LINE",
"135 238 LINE",
"135 424 LINE",
"24 424 LINE",
"24 488 LINE",
"135 488 LINE",
"135 666 LINE",
"203 666 LINE",
"203 488 LINE",
"357 488 LINE",
"357 666 LINE",
"425 666 LINE",
"425 488 LINE",
"536 488 LINE",
"536 424 LINE",
"425 424 LINE",
"425 238 LINE",
"536 238 LINE"
);
},
{
closed = 1;
nodes = (
"357 238 LINE",
"357 424 LINE",
"203 424 LINE",
"203 238 LINE"
);
}
);
width = 560;
}
);
rightKerningGroup = numbersign;
unicode = 0023;
},
{
glyphname = dollar;
layers = (
{
layerId = "7BE58B69-D6A5-4645-9194-9194354D517E";
name = Regular;
paths = (
{
closed = 1;
nodes = (
"494 59 OFFCURVE",
"424 -9 OFFCURVE",
"283 -9 CURVE SMOOTH",
"268 -9 LINE",
"254 -124 LINE",
"220 -122 OFFCURVE",
"203 -120 OFFCURVE",
"203 -117 CURVE",
"217 -6 LINE",
"74 12 LINE",
"82 73 LINE",
"133 66 OFFCURVE",
"181 61 OFFCURVE",
"225 58 CURVE",
"258 308 LINE",
"122 340 OFFCURVE",
"69 378 OFFCURVE",
"69 493 CURVE SMOOTH",
"69 611 OFFCURVE",
"140 670 OFFCURVE",
"281 670 CURVE SMOOTH",
"291 670 OFFCURVE",
"299 670 OFFCURVE",
"304 669 CURVE",
"321 798 LINE",
"372 798 LINE",
"355 666 LINE",
"480 651 LINE",
"474 589 LINE",
"428 594 OFFCURVE",
"386 599 OFFCURVE",
"347 602 CURVE",
"317 369 LINE",
"446 338 OFFCURVE",
"494 301 OFFCURVE",
"494 194 CURVE SMOOTH"
);
},
{
closed = 1;
nodes = (
"143 425 OFFCURVE",
"174 403 OFFCURVE",
"267 380 CURVE",
"296 605 LINE",
"286 605 LINE SMOOTH",
"191 605 OFFCURVE",
"143 569 OFFCURVE",
"143 497 CURVE SMOOTH"
);
},
{
closed = 1;
nodes = (
"420 253 OFFCURVE",
"391 278 OFFCURVE",
"308 298 CURVE",
"277 56 LINE",
"279 56 LINE SMOOTH",
"373 56 OFFCURVE",
"420 100 OFFCURVE",
"420 189 CURVE SMOOTH"
);
}
);
width = 560;
}
);
rightKerningGroup = numbersign;
unicode = 0024;
},
{
glyphname = percent;
lastChange = "2015-06-11 20:39:47 +0000";
layers = (
{
layerId = "7BE58B69-D6A5-4645-9194-9194354D517E";
name = Regular;
paths = (
{
closed = 1;
nodes = (
"155 -4 LINE",
"360 681 LINE",
"408 665 LINE",
"203 -18 LINE"
);
},
{
closed = 1;
nodes = (
"28 624 OFFCURVE",
"65 670 OFFCURVE",
"138 670 CURVE SMOOTH",
"211 670 OFFCURVE",
"248 624 OFFCURVE",
"248 532 CURVE SMOOTH",
"248 437 OFFCURVE",
"207 391 OFFCURVE",
"138 391 CURVE SMOOTH",
"69 391 OFFCURVE",
"28 437 OFFCURVE",
"28 532 CURVE SMOOTH"
);
},
{
closed = 1;
nodes = (
"89 472 OFFCURVE",
"106 442 OFFCURVE",
"139 442 CURVE SMOOTH",
"172 442 OFFCURVE",
"188 472 OFFCURVE",
"188 532 CURVE SMOOTH",
"188 592 OFFCURVE",
"174 619 OFFCURVE",
"139 619 CURVE SMOOTH",
"103 619 OFFCURVE",
"89 592 OFFCURVE",
"89 532 CURVE SMOOTH"
);
},
{
closed = 1;
nodes = (
"313 223 OFFCURVE",
"350 269 OFFCURVE",
"423 269 CURVE SMOOTH",
"496 269 OFFCURVE",
"532 223 OFFCURVE",
"532 131 CURVE SMOOTH",
"532 38 OFFCURVE",
"491 -10 OFFCURVE",
"422 -10 CURVE SMOOTH",
"353 -10 OFFCURVE",
"313 37 OFFCURVE",
"313 132 CURVE SMOOTH"
);
},
{
closed = 1;
nodes = (
"373 71 OFFCURVE",
"389 41 OFFCURVE",
"422 41 CURVE SMOOTH",
"459 41 OFFCURVE",
"472 70 OFFCURVE",
"472 131 CURVE SMOOTH",
"472 192 OFFCURVE",
"459 218 OFFCURVE",
"423 218 CURVE SMOOTH",
"387 218 OFFCURVE",
"373 192 OFFCURVE",
"373 132 CURVE SMOOTH"
);
}
);
width = 560;
}
);
rightKerningGroup = numbersign;
unicode = 0025;
},
{
glyphname = ampersand;
layers = (
{
layerId = "7BE58B69-D6A5-4645-9194-9194354D517E";
name = Regular;
paths = (
{
closed = 1;
nodes = (
"140 643 OFFCURVE",
"204 701 OFFCURVE",
"316 701 CURVE SMOOTH",
"428 701 OFFCURVE",
"487 645 OFFCURVE",
"487 551 CURVE SMOOTH",
"487 457 OFFCURVE",
"445 412 OFFCURVE",
"333 360 CURVE",
"485 210 LINE",
"500 253 OFFCURVE",
"509 307 OFFCURVE",
"513 372 CURVE",
"586 371 LINE",
"577 288 OFFCURVE",
"562 218 OFFCURVE",
"540 163 CURVE",
"669 41 LINE",
"624 -9 LINE",
"503 104 LINE",
"457 28 OFFCURVE",
"387 -10 OFFCURVE",
"294 -10 CURVE SMOOTH",
"107 -10 OFFCURVE",
"42 66 OFFCURVE",
"42 194 CURVE SMOOTH",
"42 321 OFFCURVE",
"88 369 OFFCURVE",
"197 405 CURVE",
"150 458 OFFCURVE",
"140 491 OFFCURVE",
"140 554 CURVE SMOOTH"
);
},
{
closed = 1;
nodes = (
"364 58 OFFCURVE",
"420 88 OFFCURVE",
"451 148 CURVE",
"240 358 LINE",
"152 330 OFFCURVE",
"118 294 OFFCURVE",
"118 202 CURVE SMOOTH",
"118 106 OFFCURVE",
"173 58 OFFCURVE",
"282 58 CURVE SMOOTH"
);
},
{
closed = 1;
nodes = (
"215 501 OFFCURVE",
"230 465 OFFCURVE",
"260 433 CURVE",
"289 405 LINE",
"381 445 OFFCURVE",
"412 476 OFFCURVE",
"412 544 CURVE SMOOTH",
"412 605 OFFCURVE",
"379 636 OFFCURVE",
"314 636 CURVE SMOOTH",
"248 636 OFFCURVE",
"215 605 OFFCURVE",
"215 542 CURVE SMOOTH"
);
}
);
width = 688;
}
);
rightKerningGroup = numbersign;
unicode = 0026;
},
{
glyphname = quotesingle;
layers = (
{
layerId = "7BE58B69-D6A5-4645-9194-9194354D517E";
name = Regular;
paths = (
{
closed = 1;
nodes = (
"70 470 LINE",
"67 692 LINE",
"142 692 LINE",
"137 470 LINE"
);
}
);
width = 208;
}
);
leftKerningGroup = quotedbl;
rightKerningGroup = quotedbl;
unicode = 0027;
},
{
glyphname = parenleft;
layers = (
{
layerId = "7BE58B69-D6A5-4645-9194-9194354D517E";
name = Regular;
paths = (
{
closed = 1;
nodes = (
"155 -125 LINE",
"86 31 OFFCURVE",
"51 173 OFFCURVE",
"51 301 CURVE SMOOTH",
"51 429 OFFCURVE",
"94 601 OFFCURVE",
"129 686 CURVE SMOOTH",
"155 750 LINE",
"227 750 LINE",
"180 627 OFFCURVE",
"132 416 OFFCURVE",
"132 302 CURVE SMOOTH",
"132 188 OFFCURVE",
"172 24 OFFCURVE",
"204 -61 CURVE SMOOTH",
"227 -125 LINE"
);
}
);
width = 264;
}
);
rightKerningGroup = numbersign;
unicode = 0028;
},
{
glyphname = parenright;
layers = (
{
layerId = "7BE58B69-D6A5-4645-9194-9194354D517E";
name = Regular;
paths = (
{
closed = 1;
nodes = (
"209 384 OFFCURVE",
"213 335 OFFCURVE",
"213 283 CURVE SMOOTH",
"213 179 OFFCURVE",
"170 11 OFFCURVE",
"135 -66 CURVE SMOOTH",
"109 -125 LINE",
"37 -125 LINE",
"82 -18 OFFCURVE",
"132 188 OFFCURVE",
"132 302 CURVE SMOOTH",
"132 416 OFFCURVE",
"93 588 OFFCURVE",
"61 680 CURVE SMOOTH",
"37 750 LINE",
"109 750 LINE",
"153 651 OFFCURVE",
"184 544 OFFCURVE",
"202 431 CURVE SMOOTH"
);
}
);
width = 264;
}
);
rightKerningGroup = numbersign;
unicode = 0029;
},
{
glyphname = asterisk;
layers = (
{
layerId = "7BE58B69-D6A5-4645-9194-9194354D517E";
name = Regular;
paths = (
{
closed = 1;
nodes = (
"373 511 LINE",
"241 511 LINE",
"282 386 LINE",
"233 371 LINE",
"192 497 LINE",
"85 418 LINE",
"54 458 LINE",
"162 537 LINE",
"56 614 LINE",
"87 656 LINE",
"193 578 LINE",
"234 704 LINE",
"283 688 LINE",
"243 561 LINE",
"373 561 LINE"
);
}
);
width = 420;
}
);
rightKerningGroup = numbersign;
unicode = 002A;
},
{
glyphname = plus;
layers = (
{
layerId = "7BE58B69-D6A5-4645-9194-9194354D517E";
name = Regular;
paths = (
{
closed = 1;
nodes = (
"55 217 LINE",
"55 285 LINE",
"244 285 LINE",
"244 480 LINE",
"314 480 LINE",
"314 285 LINE",
"505 285 LINE",
"505 217 LINE",
"314 217 LINE",
"314 20 LINE",
"244 20 LINE",
"244 217 LINE"
);
}
);
width = 560;
}
);
rightKerningGroup = numbersign;
unicode = 002B;
},
{
glyphname = comma;
lastChange = "2015-06-11 20:37:55 +0000";
layers = (
{
layerId = "7BE58B69-D6A5-4645-9194-9194354D517E";
name = Regular;
paths = (
{
closed = 1;
nodes = (
"34 -123 LINE",
"80 107 LINE",
"163 107 LINE",
"96 -123 LINE"
);
}
);
width = 223;
}
);
leftKerningGroup = comma;
rightKerningGroup = comma;
unicode = 002C;
},
{
glyphname = hyphen;
layers = (
{
layerId = "7BE58B69-D6A5-4645-9194-9194354D517E";
name = Regular;
paths = (
{
closed = 1;
nodes = (
"68 240 LINE",
"68 310 LINE",
"371 310 LINE",
"371 240 LINE"
);
}
);
width = 438;
}
);
leftKerningGroup = hyphen;
rightKerningGroup = hyphen;
unicode = 002D;
},
{
glyphname = period;
layers = (
{
layerId = "7BE58B69-D6A5-4645-9194-9194354D517E";
name = Regular;
paths = (
{
closed = 1;
nodes = (
"67 0 LINE",
"67 114 LINE",
"149 114 LINE",
"149 0 LINE"
);
}
);
width = 216;
}
);
leftKerningGroup = comma;
rightKerningGroup = comma;
unicode = 002E;
},
{
glyphname = slash;
layers = (
{
layerId = "7BE58B69-D6A5-4645-9194-9194354D517E";
name = Regular;
paths = (
{
closed = 1;
nodes = (
"32 10 LINE",
"314 708 LINE",
"381 683 LINE",
"99 -14 LINE"
);
}
);
width = 412;
}
);
rightKerningGroup = numbersign;
unicode = 002F;
},
{
glyphname = zero;
layers = (
{
layerId = "7BE58B69-D6A5-4645-9194-9194354D517E";
name = Regular;
paths = (
{
closed = 1;
nodes = (
"334 671 OFFCURVE",
"378 661 OFFCURVE",
"412 640 CURVE SMOOTH",
"484 597 OFFCURVE",
"520 491 OFFCURVE",
"520 320 CURVE SMOOTH",
"520 79 OFFCURVE",
"440 -10 OFFCURVE",
"280 -10 CURVE SMOOTH",
"120 -10 OFFCURVE",
"39 74 OFFCURVE",
"39 326 CURVE SMOOTH",
"39 577 OFFCURVE",
"118 671 OFFCURVE",
"279 671 CURVE SMOOTH"
);
},
{
closed = 1;
nodes = (
"242 602 OFFCURVE",
"212 594 OFFCURVE",
"190 578 CURVE SMOOTH",
"143 545 OFFCURVE",
"119 459 OFFCURVE",
"119 319 CURVE SMOOTH",
"119 122 OFFCURVE",
"169 58 OFFCURVE",
"280 58 CURVE SMOOTH",
"391 58 OFFCURVE",
"441 121 OFFCURVE",
"441 327 CURVE SMOOTH",
"441 533 OFFCURVE",
"395 602 OFFCURVE",
"280 602 CURVE SMOOTH"
);
}
);
width = 560;
}
);
rightKerningGroup = numbersign;
unicode = 0030;
},
{
glyphname = one;
lastChange = "2015-07-08 21:50:04 +0000";
layers = (
{
layerId = "7BE58B69-D6A5-4645-9194-9194354D517E";
name = Regular;
paths = (
{
closed = 1;
nodes = (
"389 660 LINE",
"389 0 LINE",
"312 0 LINE",
"312 574 LINE",
"142 462 LINE",
"107 520 LINE",
"317 660 LINE"
);
}
);
width = 560;
}
);
rightKerningGroup = numbersign;
unicode = 0031;
},
{
glyphname = two;
layers = (
{
layerId = "7BE58B69-D6A5-4645-9194-9194354D517E";
name = Regular;
paths = (
{
closed = 1;
nodes = (
"491 0 LINE",
"69 0 LINE",
"69 65 LINE",
"262 268 LINE SMOOTH",
"329 337 OFFCURVE",
"352 362 OFFCURVE",
"377 411 CURVE SMOOTH",
"389 436 OFFCURVE",
"395 460 OFFCURVE",
"395 485 CURVE SMOOTH",
"395 570 OFFCURVE",
"350 601 OFFCURVE",
"251 601 CURVE SMOOTH",
"208 601 OFFCURVE",
"159 595 OFFCURVE",
"106 584 CURVE SMOOTH",
"80 579 LINE",
"74 643 LINE",
"137 661 OFFCURVE",
"203 670 OFFCURVE",
"270 670 CURVE SMOOTH",
"405 670 OFFCURVE",
"474 616 OFFCURVE",
"474 493 CURVE SMOOTH",
"474 400 OFFCURVE",
"437 343 OFFCURVE",
"336 246 CURVE SMOOTH",
"160 67 LINE",
"491 67 LINE"
);
}
);
width = 560;
}
);
rightKerningGroup = numbersign;
unicode = 0032;
},
{
glyphname = three;
layers = (
{
layerId = "7BE58B69-D6A5-4645-9194-9194354D517E";
name = Regular;
paths = (
{
closed = 1;
nodes = (
"72 643 LINE",
"135 662 OFFCURVE",
"202 671 OFFCURVE",
"274 671 CURVE SMOOTH",
"417 671 OFFCURVE",
"477 619 OFFCURVE",
"477 499 CURVE SMOOTH",
"477 468 OFFCURVE",
"473 446 OFFCURVE",
"465 433 CURVE SMOOTH",
"448 405 OFFCURVE",
"441 393 OFFCURVE",
"425 380 CURVE",
"410 369 OFFCURVE",
"399 361 OFFCURVE",
"390 356 CURVE",
"379 349 LINE",
"456 321 OFFCURVE",
"493 288 OFFCURVE",
"493 189 CURVE SMOOTH",
"493 54 OFFCURVE",
"427 -10 OFFCURVE",
"279 -10 CURVE SMOOTH",
"220 -10 OFFCURVE",
"158 -3 OFFCURVE",
"93 10 CURVE SMOOTH",
"62 17 LINE",
"69 80 LINE",
"213 51 OFFCURVE",
"414 17 OFFCURVE",
"414 186 CURVE SMOOTH",
"414 265 OFFCURVE",
"369 307 OFFCURVE",
"278 310 CURVE SMOOTH",
"145 310 LINE",
"145 376 LINE",
"278 376 LINE SMOOTH",
"334 376 OFFCURVE",
"398 425 OFFCURVE",
"398 498 CURVE SMOOTH",
"398 571 OFFCURVE",
"360 602 OFFCURVE",
"263 602 CURVE SMOOTH",
"210 602 OFFCURVE",
"157 597 OFFCURVE",
"105 587 CURVE SMOOTH",
"79 582 LINE"
);
}
);
width = 560;
}
);
rightKerningGroup = numbersign;
unicode = 0033;
},
{
glyphname = four;
layers = (
{
layerId = "7BE58B69-D6A5-4645-9194-9194354D517E";
name = Regular;
paths = (
{
closed = 1;
nodes = (
"360 0 LINE",
"360 129 LINE",
"40 129 LINE",
"40 189 LINE",
"228 660 LINE",
"312 660 LINE",
"121 197 LINE",
"360 197 LINE",
"360 403 LINE",
"437 403 LINE",
"437 197 LINE",
"521 197 LINE",
"521 129 LINE",
"437 129 LINE",
"437 0 LINE"
);
}
);
width = 560;
}
);
rightKerningGroup = numbersign;
unicode = 0034;
},
{
glyphname = five;
layers = (
{
layerId = "7BE58B69-D6A5-4645-9194-9194354D517E";
name = Regular;
paths = (
{
closed = 1;
nodes = (
"477 660 LINE",
"477 590 LINE",
"156 590 LINE",
"138 375 LINE",
"189 402 OFFCURVE",
"241 416 OFFCURVE",
"293 416 CURVE SMOOTH",
"433 416 OFFCURVE",
"503 351 OFFCURVE",
"503 221 CURVE SMOOTH",
"503 72 OFFCURVE",
"422 -9 OFFCURVE",
"282 -9 CURVE SMOOTH",
"226 -9 OFFCURVE",
"164 -2 OFFCURVE",
"96 13 CURVE SMOOTH",
"63 20 LINE",
"72 81 LINE",
"149 66 OFFCURVE",
"213 59 OFFCURVE",
"266 59 CURVE SMOOTH",
"370 59 OFFCURVE",
"424 116 OFFCURVE",
"424 213 CURVE SMOOTH",
"424 310 OFFCURVE",
"373 347 OFFCURVE",
"284 347 CURVE SMOOTH",
"236 347 OFFCURVE",
"176 330 OFFCURVE",
"148 317 CURVE SMOOTH",
"127 307 LINE",
"74 317 LINE",
"92 660 LINE"
);
}
);
width = 560;
}
);
rightKerningGroup = numbersign;
unicode = 0035;
},
{
glyphname = six;
layers = (
{
layerId = "7BE58B69-D6A5-4645-9194-9194354D517E";
name = Regular;
paths = (
{
closed = 1;
nodes = (
"482 590 LINE",
"422 598 OFFCURVE",
"364 602 OFFCURVE",
"307 602 CURVE SMOOTH",
"194 602 OFFCURVE",
"130 521 OFFCURVE",
"130 374 CURVE",
"155 384 LINE SMOOTH",
"188 396 OFFCURVE",
"252 413 OFFCURVE",
"295 413 CURVE SMOOTH",
"443 413 OFFCURVE",
"517 345 OFFCURVE",
"517 208 CURVE SMOOTH",
"517 68 OFFCURVE",
"433 -10 OFFCURVE",
"286 -10 CURVE SMOOTH",
"129 -10 OFFCURVE",
"50 104 OFFCURVE",
"50 333 CURVE SMOOTH",
"50 564 OFFCURVE",
"144 670 OFFCURVE",
"308 670 CURVE SMOOTH",
"362 670 OFFCURVE",
"413 666 OFFCURVE",
"462 658 CURVE SMOOTH",
"489 653 LINE"
);
},
{
closed = 1;
nodes = (
"245 344 OFFCURVE",
"183 328 OFFCURVE",
"152 316 CURVE",
"129 306 LINE",
"130 154 OFFCURVE",
"179 58 OFFCURVE",
"282 58 CURVE SMOOTH",
"385 58 OFFCURVE",
"437 112 OFFCURVE",
"437 206 CURVE SMOOTH",
"437 300 OFFCURVE",
"383 344 OFFCURVE",
"290 344 CURVE SMOOTH"
);
}
);
width = 560;
}
);
rightKerningGroup = numbersign;
unicode = 0036;
},
{
glyphname = seven;
layers = (
{
layerId = "7BE58B69-D6A5-4645-9194-9194354D517E";
name = Regular;
paths = (
{
closed = 1;
nodes = (
"77 590 LINE",
"77 660 LINE",
"487 660 LINE",
"487 559 LINE",
"233 -10 LINE",
"160 13 LINE",
"409 564 LINE",
"409 590 LINE"
);
}
);
width = 560;
}
);
rightKerningGroup = numbersign;
unicode = 0037;
},
{
glyphname = eight;
layers = (
{
layerId = "7BE58B69-D6A5-4645-9194-9194354D517E";
name = Regular;
paths = (
{
closed = 1;
nodes = (
"147 657 OFFCURVE",
"205 671 OFFCURVE",
"278 671 CURVE SMOOTH",
"425 671 OFFCURVE",
"517 612 OFFCURVE",
"517 499 CURVE SMOOTH",
"517 416 OFFCURVE",
"487 381 OFFCURVE",
"407 345 CURVE",
"487 309 OFFCURVE",
"527 267 OFFCURVE",
"527 179 CURVE SMOOTH",
"527 53 OFFCURVE",
"445 -10 OFFCURVE",
"280 -10 CURVE SMOOTH",
"115 -10 OFFCURVE",
"32 49 OFFCURVE",
"32 168 CURVE SMOOTH",
"32 263 OFFCURVE",
"67 302 OFFCURVE",
"146 345 CURVE",
"74 381 OFFCURVE",
"43 421 OFFCURVE",
"43 500 CURVE SMOOTH",
"43 556 OFFCURVE",
"64 599 OFFCURVE",
"106 628 CURVE SMOOTH"
);
},
{
closed = 1;
nodes = (
"114 100 OFFCURVE",
"169 60 OFFCURVE",
"280 60 CURVE SMOOTH",
"390 60 OFFCURVE",
"445 102 OFFCURVE",
"445 187 CURVE SMOOTH",
"445 258 OFFCURVE",
"405 285 OFFCURVE",
"328 308 CURVE",
"223 308 LINE",
"150 288 OFFCURVE",
"114 252 OFFCURVE",
"114 181 CURVE SMOOTH"
);
},
{
closed = 1;
nodes = (
"435 564 OFFCURVE",
"383 601 OFFCURVE",
"280 601 CURVE SMOOTH",
"177 601 OFFCURVE",
"125 564 OFFCURVE",
"125 491 CURVE SMOOTH",
"125 432 OFFCURVE",
"156 399 OFFCURVE",
"223 375 CURVE",
"328 375 LINE",
"400 398 OFFCURVE",
"435 431 OFFCURVE",
"435 490 CURVE SMOOTH"
);
}
);
width = 560;
}
);
rightKerningGroup = numbersign;
unicode = 0038;
},
{
glyphname = nine;
layers = (
{
layerId = "7BE58B69-D6A5-4645-9194-9194354D517E";
name = Regular;
paths = (
{
closed = 1;
nodes = (
"368 58 OFFCURVE",
"428 135 OFFCURVE",
"429 288 CURVE",
"362 263 OFFCURVE",
"305 250 OFFCURVE",
"257 250 CURVE SMOOTH",
"113 250 OFFCURVE",
"41 317 OFFCURVE",
"41 451 CURVE SMOOTH",
"41 586 OFFCURVE",
"130 670 OFFCURVE",
"270 670 CURVE SMOOTH",
"431 670 OFFCURVE",
"509 549 OFFCURVE",
"509 318 CURVE SMOOTH",
"509 86 OFFCURVE",
"419 -10 OFFCURVE",
"247 -10 CURVE SMOOTH",
"197 -10 OFFCURVE",
"145 -5 OFFCURVE",
"92 4 CURVE SMOOTH",
"66 8 LINE",
"73 70 LINE",
"133 62 OFFCURVE",
"191 58 OFFCURVE",
"247 58 CURVE SMOOTH"
);
},
{
closed = 1;
nodes = (
"304 318 OFFCURVE",
"351 327 OFFCURVE",
"404 345 CURVE SMOOTH",
"430 354 LINE",
"428 519 OFFCURVE",
"375 602 OFFCURVE",
"270 602 CURVE SMOOTH",
"177 602 OFFCURVE",
"121 544 OFFCURVE",
"121 451 CURVE SMOOTH",
"121 362 OFFCURVE",
"168 318 OFFCURVE",
"263 318 CURVE SMOOTH"
);
}
);
width = 560;
}
);
rightKerningGroup = numbersign;
unicode = 0039;
},
{
glyphname = colon;
layers = (
{
layerId = "7BE58B69-D6A5-4645-9194-9194354D517E";
name = Regular;
paths = (
{
closed = 1;
nodes = (
"67 322 LINE",
"67 436 LINE",
"149 436 LINE",
"149 322 LINE"
);
},
{
closed = 1;
nodes = (
"67 0 LINE",
"67 114 LINE",
"149 114 LINE",
"149 0 LINE"
);
}
);
width = 217;
}
);
leftKerningGroup = colon;
rightKerningGroup = colon;
unicode = 003A;
},
{
glyphname = semicolon;
lastChange = "2015-06-13 00:31:00 +0000";
layers = (
{
layerId = "7BE58B69-D6A5-4645-9194-9194354D517E";
name = Regular;
paths = (
{
closed = 1;
nodes = (
"93 107 LINE",
"177 107 LINE",
"110 -123 LINE",
"48 -123 LINE"
);
},
{
closed = 1;
nodes = (
"88 322 LINE",
"88 436 LINE",
"169 436 LINE",
"169 322 LINE"
);
}
);
width = 248;
}
);
leftKerningGroup = colon;
rightKerningGroup = colon;
unicode = 003B;
},
{
glyphname = less;
layers = (
{
layerId = "7BE58B69-D6A5-4645-9194-9194354D517E";
name = Regular;
paths = (
{
closed = 1;
nodes = (
"477 409 LINE",
"138 252 LINE",
"477 92 LINE",
"477 13 LINE",
"61 218 LINE",
"61 284 LINE",
"477 487 LINE"
);
}
);
width = 560;
}
);
rightKerningGroup = numbersign;
unicode = 003C;
},
{
glyphname = equal;
layers = (
{
layerId = "7BE58B69-D6A5-4645-9194-9194354D517E";
name = Regular;
paths = (
{
closed = 1;
nodes = (
"64 309 LINE",
"64 378 LINE",
"496 378 LINE",
"496 309 LINE"
);
},
{
closed = 1;
nodes = (
"64 124 LINE",
"64 193 LINE",
"496 193 LINE",
"496 124 LINE"
);
}
);
width = 560;
}
);
rightKerningGroup = numbersign;
unicode = 003D;
},
{
glyphname = greater;
layers = (
{
layerId = "7BE58B69-D6A5-4645-9194-9194354D517E";
name = Regular;
paths = (
{
closed = 1;
nodes = (
"421 252 LINE",
"82 409 LINE",
"82 487 LINE",
"498 284 LINE",
"498 218 LINE",
"82 13 LINE",
"82 92 LINE"
);
}
);
width = 560;
}
);
rightKerningGroup = numbersign;
unicode = 003E;
},
{
glyphname = question;
lastChange = "2015-06-11 20:39:01 +0000";
layers = (
{
layerId = "7BE58B69-D6A5-4645-9194-9194354D517E";
name = Regular;
paths = (
{
closed = 1;
nodes = (
"406 455 OFFCURVE",
"389 425 OFFCURVE",
"318 366 CURVE SMOOTH",
"246 306 OFFCURVE",
"224 279 OFFCURVE",
"224 236 CURVE SMOOTH",
"224 201 LINE",
"161 201 LINE",
"152 219 OFFCURVE",
"148 239 OFFCURVE",
"148 262 CURVE SMOOTH",
"148 307 OFFCURVE",
"177 340 OFFCURVE",
"245 399 CURVE SMOOTH",
"313 458 OFFCURVE",
"330 480 OFFCURVE",
"330 542 CURVE SMOOTH",
"330 604 OFFCURVE",
"289 634 OFFCURVE",
"197 634 CURVE SMOOTH",
"168 634 OFFCURVE",
"125 628 OFFCURVE",
"68 616 CURVE SMOOTH",
"42 611 LINE",
"37 672 LINE",
"104 692 OFFCURVE",
"160 702 OFFCURVE",
"204 702 CURVE SMOOTH",
"341 702 OFFCURVE",
"406 655 OFFCURVE",
"406 542 CURVE SMOOTH"
);
},
{
closed = 1;
nodes = (
"150 1 LINE",
"150 113 LINE",
"232 113 LINE",
"232 1 LINE"
);
}
);
width = 447;
}
);
rightKerningGroup = numbersign;
unicode = 003F;
},
{
glyphname = at;
layers = (
{
layerId = "7BE58B69-D6A5-4645-9194-9194354D517E";
name = Regular;
paths = (
{
closed = 1;
nodes = (
"933 292 LINE SMOOTH",
"933 151 OFFCURVE",
"911 62 OFFCURVE",
"866 25 CURVE SMOOTH",
"834 0 OFFCURVE",
"804 -6 OFFCURVE",
"762 -6 CURVE SMOOTH",
"720 -6 OFFCURVE",
"689 3 OFFCURVE",
"673 15 CURVE SMOOTH",
"657 27 OFFCURVE",
"646 40 OFFCURVE",
"640 54 CURVE",
"575 15 OFFCURVE",
"517 -5 OFFCURVE",
"466 -5 CURVE SMOOTH",
"417 -5 OFFCURVE",
"383 5 OFFCURVE",
"346 38 CURVE SMOOTH",
"309 71 OFFCURVE",
"290 136 OFFCURVE",
"290 233 CURVE SMOOTH",
"290 426 OFFCURVE",
"344 505 OFFCURVE",
"493 505 CURVE SMOOTH",
"522 505 OFFCURVE",
"554 499 OFFCURVE",
"590 486 CURVE SMOOTH",
"608 479 LINE",
"608 495 LINE",
"683 495 LINE",
"683 304 LINE SMOOTH",
"683 187 OFFCURVE",
"687 118 OFFCURVE",
"694 96 CURVE",
"701 79 OFFCURVE",
"714 62 OFFCURVE",
"729 59 CURVE",
"736 58 OFFCURVE",
"749 57 OFFCURVE",
"767 57 CURVE SMOOTH",
"803 57 OFFCURVE",
"827 65 OFFCURVE",
"844 136 CURVE SMOOTH",
"853 171 OFFCURVE",
"857 223 OFFCURVE",
"857 292 CURVE SMOOTH",
"857 306 LINE SMOOTH",
"857 553 OFFCURVE",
"757 657 OFFCURVE",
"503 657 CURVE SMOOTH",
"249 657 OFFCURVE",
"127 539 OFFCURVE",
"127 256 CURVE SMOOTH",
"127 -28 OFFCURVE",
"236 -137 OFFCURVE",
"504 -137 CURVE",
"647 -127 LINE",
"650 -194 LINE",
"587 -200 OFFCURVE",
"539 -203 OFFCURVE",
"504 -203 CURVE SMOOTH",
"349 -203 OFFCURVE",
"247 -177 OFFCURVE",
"168 -106 CURVE SMOOTH",
"90 -38 OFFCURVE",
"51 84 OFFCURVE",
"51 261 CURVE SMOOTH",
"51 582 OFFCURVE",
"207 723 OFFCURVE",
"504 723 CURVE SMOOTH",
"801 723 OFFCURVE",
"933 589 OFFCURVE",
"933 305 CURVE SMOOTH"
);
},
{
closed = 1;
nodes = (
"500 61 OFFCURVE",
"548 76 OFFCURVE",
"617 107 CURVE",
"611 143 OFFCURVE",
"608 201 OFFCURVE",
"608 280 CURVE SMOOTH",
"608 419 LINE",
"568 432 OFFCURVE",
"534 439 OFFCURVE",
"505 439 CURVE SMOOTH",
"397 439 OFFCURVE",
"366 381 OFFCURVE",
"366 244 CURVE SMOOTH",
"366 122 OFFCURVE",
"401 61 OFFCURVE",
"471 61 CURVE SMOOTH"
);
}
);
width = 977;
}
);
rightKerningGroup = numbersign;
unicode = 0040;
},
{
glyphname = A;
layers = (
{
layerId = "7BE58B69-D6A5-4645-9194-9194354D517E";
name = Regular;
paths = (
{
closed = 1;
nodes = (
"24 0 LINE",
"214 692 LINE",
"382 692 LINE",
"572 0 LINE",
"496 0 LINE",
"446 178 LINE",
"150 178 LINE",
"100 0 LINE"
);
},
{
closed = 1;
nodes = (
"272 626 LINE",
"167 247 LINE",
"429 247 LINE",
"324 626 LINE"
);
}
);
width = 596;
}
);
leftKerningGroup = A;
rightKerningGroup = numbersign;
unicode = 0041;
},
{
glyphname = B;
layers = (
{
layerId = "7BE58B69-D6A5-4645-9194-9194354D517E";
name = Regular;
paths = (
{
closed = 1;
nodes = (
"85 692 LINE",
"336 692 LINE SMOOTH",
"473 692 OFFCURVE",
"542 637 OFFCURVE",
"542 516 CURVE SMOOTH",
"542 429 OFFCURVE",
"512 385 OFFCURVE",
"453 357 CURVE",
"526 332 OFFCURVE",
"563 277 OFFCURVE",
"563 194 CURVE SMOOTH",
"563 55 OFFCURVE",
"488 0 OFFCURVE",
"349 0 CURVE SMOOTH",
"85 0 LINE"
);
},
{
closed = 1;
nodes = (
"162 318 LINE",
"162 68 LINE",
"346 68 LINE SMOOTH",
"437 68 OFFCURVE",
"485 101 OFFCURVE",
"485 197 CURVE SMOOTH",
"485 248 OFFCURVE",
"464 283 OFFCURVE",
"432 298 CURVE SMOOTH",
"403 311 OFFCURVE",
"372 318 OFFCURVE",
"341 318 CURVE SMOOTH"
);
},
{
closed = 1;
nodes = (
"162 624 LINE",
"162 385 LINE",
"340 385 LINE SMOOTH",
"425 385 OFFCURVE",
"463 426 OFFCURVE",
"463 508 CURVE SMOOTH",
"463 590 OFFCURVE",
"422 624 OFFCURVE",
"333 624 CURVE SMOOTH"
);
}
);
width = 616;
}
);
leftKerningGroup = B;
rightKerningGroup = numbersign;
unicode = 0042;
},
{
glyphname = C;
layers = (
{
layerId = "7BE58B69-D6A5-4645-9194-9194354D517E";
name = Regular;
paths = (
{
closed = 1;
nodes = (
"503 11 LINE",
"434 -3 OFFCURVE",
"373 -10 OFFCURVE",
"318 -10 CURVE SMOOTH",
"209 -10 OFFCURVE",
"144 19 OFFCURVE",
"108 83 CURVE SMOOTH",
"71 146 OFFCURVE",
"59 222 OFFCURVE",
"59 345 CURVE SMOOTH",
"59 468 OFFCURVE",
"71 546 OFFCURVE",
"108 610 CURVE SMOOTH",
"144 674 OFFCURVE",
"208 702 OFFCURVE",
"315 702 CURVE SMOOTH",
"368 702 OFFCURVE",
"431 695 OFFCURVE",
"503 680 CURVE",
"500 615 LINE",
"433 627 OFFCURVE",
"373 633 OFFCURVE",
"320 633 CURVE SMOOTH",
"173 633 OFFCURVE",
"139 555 OFFCURVE",
"139 344 CURVE SMOOTH",
"139 239 OFFCURVE",
"146 182 OFFCURVE",
"171 131 CURVE SMOOTH",
"196 79 OFFCURVE",
"240 59 OFFCURVE",
"334 59 CURVE SMOOTH",
"381 59 OFFCURVE",
"436 65 OFFCURVE",
"500 77 CURVE"
);
}
);
width = 544;
}
);
leftKerningGroup = C;
rightKerningGroup = C;
unicode = 0043;
},
{
glyphname = D;
layers = (
{
layerId = "7BE58B69-D6A5-4645-9194-9194354D517E";
name = Regular;
paths = (
{
closed = 1;
nodes = (
"85 0 LINE",
"85 692 LINE",
"332 692 LINE SMOOTH",
"557 692 OFFCURVE",
"588 523 OFFCURVE",
"588 356 CURVE SMOOTH",
"588 182 OFFCURVE",
"545 72 OFFCURVE",
"458 27 CURVE SMOOTH",
"423 9 OFFCURVE",
"381 0 OFFCURVE",
"332 0 CURVE SMOOTH"
);
},
{
closed = 1;
nodes = (
"509 489 OFFCURVE",
"479 571 OFFCURVE",
"420 604 CURVE SMOOTH",
"396 617 OFFCURVE",
"367 624 OFFCURVE",
"332 624 CURVE SMOOTH",
"162 624 LINE",
"162 68 LINE",
"332 68 LINE SMOOTH",
"450 68 OFFCURVE",
"509 164 OFFCURVE",
"509 356 CURVE SMOOTH"
);
}
);
width = 645;
}
);
leftKerningGroup = B;
rightKerningGroup = D;
unicode = 0044;
},
{
glyphname = E;
layers = (
{
layerId = "7BE58B69-D6A5-4645-9194-9194354D517E";
name = Regular;
paths = (
{
closed = 1;
nodes = (
"85 0 LINE",
"85 692 LINE",
"506 692 LINE",
"506 624 LINE",
"162 624 LINE",
"162 385 LINE",
"446 385 LINE",
"446 318 LINE",
"162 318 LINE",
"162 68 LINE",
"506 68 LINE",
"506 0 LINE"
);
}
);
width = 553;
}
);
leftKerningGroup = B;
rightKerningGroup = E;
unicode = 0045;
},
{
glyphname = F;
layers = (
{
layerId = "7BE58B69-D6A5-4645-9194-9194354D517E";
name = Regular;
paths = (
{
closed = 1;
nodes = (
"85 0 LINE",
"85 692 LINE",
"499 692 LINE",
"499 624 LINE",
"162 624 LINE",
"162 354 LINE",
"447 354 LINE",
"447 286 LINE",
"162 286 LINE",
"162 0 LINE"
);
}
);
width = 526;
}
);
leftKerningGroup = B;
rightKerningGroup = numbersign;
unicode = 0046;
},
{
glyphname = G;
layers = (
{
layerId = "7BE58B69-D6A5-4645-9194-9194354D517E";
name = Regular;
paths = (
{
closed = 1;
nodes = (
"359 285 LINE",
"359 354 LINE",
"550 354 LINE",
"550 14 LINE",
"466 -2 OFFCURVE",
"391 -10 OFFCURVE",
"325 -10 CURVE SMOOTH",
"124 -10 OFFCURVE",
"57 104 OFFCURVE",
"57 346 CURVE SMOOTH",
"57 588 OFFCURVE",
"124 702 OFFCURVE",
"323 702 CURVE SMOOTH",
"385 702 OFFCURVE",
"449 695 OFFCURVE",
"516 682 CURVE SMOOTH",
"550 676 LINE",
"547 612 LINE",
"464 626 OFFCURVE",
"393 633 OFFCURVE",
"332 633 CURVE SMOOTH",
"179 633 OFFCURVE",
"137 552 OFFCURVE",
"137 346 CURVE SMOOTH",
"137 140 OFFCURVE",
"179 58 OFFCURVE",
"331 58 CURVE SMOOTH",
"378 58 OFFCURVE",
"425 63 OFFCURVE",
"474 72 CURVE",
"474 285 LINE"
);
}
);
width = 616;
}
);
leftKerningGroup = G;
rightKerningGroup = G;
unicode = 0047;
},
{
glyphname = H;
layers = (
{
layerId = "7BE58B69-D6A5-4645-9194-9194354D517E";
name = Regular;
paths = (
{
closed = 1;
nodes = (
"514 0 LINE",
"514 313 LINE",
"162 313 LINE",
"162 0 LINE",
"85 0 LINE",
"85 692 LINE",
"162 692 LINE",
"162 382 LINE",
"514 382 LINE",
"514 692 LINE",
"590 692 LINE",
"590 0 LINE"
);
}
);
width = 675;
}
);
leftKerningGroup = B;
rightKerningGroup = H;
unicode = 0048;
},
{
glyphname = I;
lastChange = "2015-06-23 22:41:17 +0000";
layers = (
{
layerId = "7BE58B69-D6A5-4645-9194-9194354D517E";
name = Regular;
paths = (
{
closed = 1;
nodes = (
"85 0 LINE",
"85 692 LINE",
"162 692 LINE",
"162 0 LINE"
);
}
);
width = 246;
}
);
leftKerningGroup = B;
rightKerningGroup = H;
unicode = 0049;
},
{
glyphname = J;
layers = (
{
layerId = "7BE58B69-D6A5-4645-9194-9194354D517E";
name = Regular;
paths = (
{
closed = 1;
nodes = (
"18 -3 LINE",
"114 -3 OFFCURVE",
"131 7 OFFCURVE",
"131 106 CURVE SMOOTH",
"131 692 LINE",
"207 692 LINE",
"208 95 LINE SMOOTH",
"208 -17 OFFCURVE",
"180 -58 OFFCURVE",
"89 -69 CURVE SMOOTH",
"71 -71 OFFCURVE",
"47 -72 OFFCURVE",
"18 -72 CURVE"
);
}
);
width = 289;
}
);
leftKerningGroup = J;
rightKerningGroup = J;
unicode = 004A;
},
{
glyphname = K;
layers = (
{
layerId = "7BE58B69-D6A5-4645-9194-9194354D517E";
name = Regular;
paths = (
{
closed = 1;
nodes = (
"162 0 LINE",
"85 0 LINE",
"85 692 LINE",
"162 692 LINE",
"162 370 LINE",
"276 374 LINE",
"453 692 LINE",
"541 692 LINE",
"343 344 LINE",
"552 0 LINE",
"461 0 LINE",
"277 306 LINE",
"162 302 LINE"
);
}
);
width = 569;
}
);
leftKerningGroup = B;
rightKerningGroup = K;
unicode = 004B;
},
{
glyphname = L;
layers = (
{
layerId = "7BE58B69-D6A5-4645-9194-9194354D517E";
name = Regular;
paths = (
{
closed = 1;
nodes = (
"466 0 LINE",
"85 0 LINE",
"85 692 LINE",
"162 692 LINE",
"162 69 LINE",
"466 69 LINE"
);
}
);
width = 479;
}
);
leftKerningGroup = B;
rightKerningGroup = L;
unicode = 004C;
},
{
glyphname = M;
layers = (
{
layerId = "7BE58B69-D6A5-4645-9194-9194354D517E";
name = Regular;
paths = (
{
closed = 1;
nodes = (
"85 0 LINE",
"85 692 LINE",
"224 692 LINE",
"420 107 LINE",
"616 692 LINE",
"755 692 LINE",
"755 0 LINE",
"678 0 LINE",
"678 610 LINE",
"664 610 LINE",
"463 25 LINE",
"377 25 LINE",
"176 610 LINE",
"162 610 LINE",
"162 0 LINE"
);
}
);
width = 840;
}
);
leftKerningGroup = B;
rightKerningGroup = H;
unicode = 004D;
},
{
glyphname = N;
layers = (
{
layerId = "7BE58B69-D6A5-4645-9194-9194354D517E";
name = Regular;
paths = (
{
closed = 1;
nodes = (
"85 0 LINE",
"85 692 LINE",
"229 692 LINE",
"494 68 LINE",
"515 68 LINE",
"515 692 LINE",
"591 692 LINE",
"591 0 LINE",
"450 0 LINE",
"181 624 LINE",
"162 624 LINE",
"162 0 LINE"
);
}
);
width = 676;
}
);
leftKerningGroup = B;
rightKerningGroup = H;
unicode = 004E;
},
{
glyphname = O;
layers = (
{
layerId = "7BE58B69-D6A5-4645-9194-9194354D517E";
name = Regular;
paths = (
{
closed = 1;
nodes = (
"136 140 OFFCURVE",
"178 58 OFFCURVE",
"331 58 CURVE SMOOTH",
"483 58 OFFCURVE",
"524 137 OFFCURVE",
"524 341 CURVE SMOOTH",
"524 545 OFFCURVE",
"480 634 OFFCURVE",
"330 634 CURVE SMOOTH",
"180 634 OFFCURVE",
"136 546 OFFCURVE",
"136 343 CURVE SMOOTH"
);
},
{
closed = 1;
nodes = (
"604 94 OFFCURVE",
"538 -10 OFFCURVE",
"331 -10 CURVE SMOOTH",
"123 -10 OFFCURVE",
"57 99 OFFCURVE",
"57 343 CURVE SMOOTH",
"57 586 OFFCURVE",
"126 702 OFFCURVE",
"330 702 CURVE SMOOTH",
"534 702 OFFCURVE",
"604 588 OFFCURVE",
"604 341 CURVE SMOOTH"
);
}
);
width = 660;
}
);
leftKerningGroup = G;
rightKerningGroup = O;
unicode = 004F;
},
{
glyphname = P;
layers = (
{
layerId = "7BE58B69-D6A5-4645-9194-9194354D517E";
name = Regular;
paths = (
{
closed = 1;
nodes = (
"162 233 LINE",
"162 0 LINE",
"85 0 LINE",
"85 692 LINE",
"338 692 LINE SMOOTH",
"489 692 OFFCURVE",
"559 620 OFFCURVE",
"559 469 CURVE SMOOTH",
"559 312 OFFCURVE",
"485 233 OFFCURVE",
"338 233 CURVE SMOOTH"
);
},
{
closed = 1;
nodes = (
"162 301 LINE",
"337 301 LINE SMOOTH",
"432 301 OFFCURVE",
"480 357 OFFCURVE",
"480 469 CURVE SMOOTH",
"480 576 OFFCURVE",
"437 624 OFFCURVE",
"337 624 CURVE SMOOTH",
"162 624 LINE"
);
}
);
width = 593;
}
);
leftKerningGroup = B;
rightKerningGroup = numbersign;
unicode = 0050;
},
{
glyphname = Q;
layers = (
{
layerId = "7BE58B69-D6A5-4645-9194-9194354D517E";
name = Regular;
paths = (
{
closed = 1;
nodes = (
"123 -10 OFFCURVE",
"57 99 OFFCURVE",
"57 343 CURVE SMOOTH",
"57 586 OFFCURVE",
"126 702 OFFCURVE",
"330 702 CURVE SMOOTH",
"534 702 OFFCURVE",
"604 587 OFFCURVE",
"604 343 CURVE SMOOTH",
"604 174 OFFCURVE",
"573 75 OFFCURVE",
"489 26 CURVE",
"574 -111 LINE",
"502 -145 LINE",
"414 -1 LINE",
"392 -7 OFFCURVE",
"364 -10 OFFCURVE",
"330 -10 CURVE SMOOTH"
);
},
{
closed = 1;
nodes = (
"136 140 OFFCURVE",
"178 58 OFFCURVE",
"331 58 CURVE SMOOTH",
"483 58 OFFCURVE",
"524 136 OFFCURVE",
"524 341 CURVE SMOOTH",
"524 545 OFFCURVE",
"480 634 OFFCURVE",
"330 634 CURVE SMOOTH",
"180 634 OFFCURVE",
"136 546 OFFCURVE",
"136 343 CURVE SMOOTH"
);
}
);
width = 660;
}
);
leftKerningGroup = G;
rightKerningGroup = O;
unicode = 0051;
},
{
glyphname = R;
layers = (
{
layerId = "7BE58B69-D6A5-4645-9194-9194354D517E";
name = Regular;
paths = (
{
closed = 1;
nodes = (
"162 265 LINE",
"162 0 LINE",
"85 0 LINE",
"85 692 LINE",
"341 692 LINE SMOOTH",
"488 692 OFFCURVE",
"562 626 OFFCURVE",
"562 482 CURVE SMOOTH",
"562 375 OFFCURVE",
"520 308 OFFCURVE",
"435 281 CURVE",
"568 0 LINE",
"483 0 LINE",
"358 265 LINE"
);
},
{
closed = 1;
nodes = (
"342 333 LINE SMOOTH",
"436 333 OFFCURVE",
"483 382 OFFCURVE",
"483 479 CURVE SMOOTH",
"483 576 OFFCURVE",
"436 624 OFFCURVE",
"341 624 CURVE SMOOTH",
"162 624 LINE",
"162 333 LINE"
);
}
);
width = 616;
}
);
leftKerningGroup = B;
rightKerningGroup = R;
unicode = 0052;
},
{
glyphname = S;
layers = (
{
layerId = "7BE58B69-D6A5-4645-9194-9194354D517E";
name = Regular;
paths = (
{
closed = 1;
nodes = (
"176 635 OFFCURVE",
"126 597 OFFCURVE",
"126 522 CURVE SMOOTH",
"126 438 OFFCURVE",
"160 420 OFFCURVE",
"301 389 CURVE SMOOTH",
"441 357 OFFCURVE",
"494 319 OFFCURVE",
"494 204 CURVE SMOOTH",
"494 62 OFFCURVE",
"420 -9 OFFCURVE",
"273 -9 CURVE SMOOTH",
"224 -9 OFFCURVE",
"163 -3 OFFCURVE",
"90 8 CURVE SMOOTH",
"54 13 LINE",
"62 77 LINE",
"153 65 OFFCURVE",
"222 59 OFFCURVE",
"269 59 CURVE SMOOTH",
"368 59 OFFCURVE",
"417 105 OFFCURVE",
"417 198 CURVE SMOOTH",
"417 273 OFFCURVE",
"382 297 OFFCURVE",
"263 320 CURVE SMOOTH",
"107 353 OFFCURVE",
"48 393 OFFCURVE",
"48 517 CURVE SMOOTH",
"48 641 OFFCURVE",
"122 703 OFFCURVE",
"271 703 CURVE SMOOTH",
"320 703 OFFCURVE",
"378 698 OFFCURVE",
"446 688 CURVE SMOOTH",
"480 683 LINE",
"473 618 LINE",
"380 629 OFFCURVE",
"315 635 OFFCURVE",
"276 635 CURVE SMOOTH"
);
}
);
width = 542;
}
);
leftKerningGroup = S;
rightKerningGroup = S;
unicode = 0053;
},
{
glyphname = T;
layers = (
{
layerId = "7BE58B69-D6A5-4645-9194-9194354D517E";
name = Regular;
paths = (
{
closed = 1;
nodes = (
"13 623 LINE",
"13 692 LINE",
"513 692 LINE",
"513 623 LINE",
"302 623 LINE",
"302 0 LINE",
"226 0 LINE",
"226 623 LINE"
);
}
);
width = 526;
}
);
leftKerningGroup = T;
rightKerningGroup = T;
unicode = 0054;
},
{
glyphname = U;
layers = (
{
layerId = "7BE58B69-D6A5-4645-9194-9194354D517E";
name = Regular;
paths = (
{
closed = 1;
nodes = (
"157 208 LINE SMOOTH",
"157 108 OFFCURVE",
"211 58 OFFCURVE",
"319 58 CURVE SMOOTH",
"431 58 OFFCURVE",
"488 103 OFFCURVE",
"488 208 CURVE SMOOTH",
"488 692 LINE",
"564 692 LINE",
"564 210 LINE SMOOTH",
"564 55 OFFCURVE",
"481 -10 OFFCURVE",
"321 -10 CURVE SMOOTH",
"161 -10 OFFCURVE",
"80 55 OFFCURVE",
"80 210 CURVE SMOOTH",
"80 692 LINE",
"157 692 LINE"
);
}
);
width = 644;
}
);
leftKerningGroup = U;
rightKerningGroup = U;
unicode = 0055;
},
{
glyphname = V;
layers = (
{
layerId = "7BE58B69-D6A5-4645-9194-9194354D517E";
name = Regular;
paths = (
{
closed = 1;
nodes = (
"478 692 LINE",
"558 692 LINE",
"377 0 LINE",
"205 0 LINE",
"24 692 LINE",
"104 692 LINE",
"263 68 LINE",
"319 68 LINE"
);
}
);
width = 582;
}
);
rightKerningGroup = numbersign;
unicode = 0056;
},
{
glyphname = W;
layers = (
{
layerId = "7BE58B69-D6A5-4645-9194-9194354D517E";
name = Regular;
paths = (
{
closed = 1;
nodes = (
"30 692 LINE",
"110 692 LINE",
"228 68 LINE",
"257 68 LINE",
"398 686 LINE",
"488 686 LINE",
"629 68 LINE",
"658 68 LINE",
"776 692 LINE",
"855 692 LINE",
"715 0 LINE",
"574 0 LINE",
"443 591 LINE",
"312 0 LINE",
"171 0 LINE"
);
}
);
width = 886;
}
);
leftKerningGroup = W;
rightKerningGroup = W;
unicode = 0057;
},
{
glyphname = X;
layers = (
{
layerId = "7BE58B69-D6A5-4645-9194-9194354D517E";
name = Regular;
paths = (
{
closed = 1;
nodes = (
"106 692 LINE",
"281 396 LINE",
"457 692 LINE",
"540 692 LINE",
"327 341 LINE",
"540 0 LINE",
"453 0 LINE",
"279 287 LINE",
"102 0 LINE",
"19 0 LINE",
"233 339 LINE",
"19 692 LINE"
);
}
);
width = 558;
}
);
rightKerningGroup = numbersign;
unicode = 0058;
},
{
glyphname = Y;
layers = (
{
layerId = "7BE58B69-D6A5-4645-9194-9194354D517E";
name = Regular;
paths = (
{
closed = 1;
nodes = (
"308 0 LINE",
"231 0 LINE",
"231 291 LINE",
"10 692 LINE",
"97 692 LINE",
"269 368 LINE",
"441 692 LINE",
"528 692 LINE",
"308 291 LINE"
);
}
);
width = 538;
}
);
leftKerningGroup = Y;
rightKerningGroup = Y;
unicode = 0059;
},
{
glyphname = Z;
layers = (
{
layerId = "7BE58B69-D6A5-4645-9194-9194354D517E";
name = Regular;
paths = (
{
closed = 1;
nodes = (
"43 624 LINE",
"43 692 LINE",
"493 692 LINE",
"493 602 LINE",
"131 88 LINE",
"131 68 LINE",
"493 68 LINE",
"493 -1 LINE",
"43 -1 LINE",
"43 88 LINE",
"404 602 LINE",
"404 624 LINE"
);
}
);
width = 536;
}
);
leftKerningGroup = Z;
rightKerningGroup = Z;
unicode = 005A;
},
{
glyphname = bracketleft;
layers = (
{
layerId = "7BE58B69-D6A5-4645-9194-9194354D517E";
name = Regular;
paths = (
{
closed = 1;
nodes = (
"289 749 LINE",
"289 682 LINE",
"155 682 LINE",
"155 -56 LINE",
"289 -56 LINE",
"289 -123 LINE",
"79 -123 LINE",
"79 749 LINE"
);
}
);
width = 329;
}
);
rightKerningGroup = numbersign;
unicode = 005B;
},
{
glyphname = backslash;
layers = (
{
layerId = "7BE58B69-D6A5-4645-9194-9194354D517E";
name = Regular;
paths = (
{
closed = 1;
nodes = (
"405 14 LINE",
"338 -14 LINE",
"30 678 LINE",
"97 707 LINE"
);
}
);
width = 436;
}
);
rightKerningGroup = numbersign;
unicode = 005C;
},
{
glyphname = bracketright;
layers = (
{
layerId = "7BE58B69-D6A5-4645-9194-9194354D517E";
name = Regular;
paths = (
{
closed = 1;
nodes = (
"40 682 LINE",
"40 749 LINE",
"250 749 LINE",
"250 -123 LINE",
"40 -123 LINE",
"40 -56 LINE",
"174 -56 LINE",
"174 682 LINE"
);
}
);
width = 329;
}
);
rightKerningGroup = numbersign;
unicode = 005D;
},
{
glyphname = asciicircum;
layers = (
{
layerId = "7BE58B69-D6A5-4645-9194-9194354D517E";
name = Regular;
paths = (
{
closed = 1;
nodes = (
"421 319 LINE",
"278 586 LINE",
"138 319 LINE",
"58 319 LINE",
"243 660 LINE",
"310 660 LINE",
"501 319 LINE"
);
}
);
width = 560;
}
);
rightKerningGroup = numbersign;
unicode = 005E;
},
{
glyphname = underscore;
layers = (
{
layerId = "7BE58B69-D6A5-4645-9194-9194354D517E";
name = Regular;
paths = (
{
closed = 1;
nodes = (
"102 -92 LINE",
"530 -92 LINE",
"530 -158 LINE",
"102 -158 LINE"
);
}
);
width = 632;
}
);
rightKerningGroup = numbersign;
unicode = 005F;
},
{
glyphname = grave;
layers = (
{
layerId = "7BE58B69-D6A5-4645-9194-9194354D517E";
name = Regular;
paths = (
{
closed = 1;
nodes = (
"25 740 LINE",
"241 642 LINE",
"220 591 LINE",
"-1 676 LINE"
);
}
);
width = 236;
}
);
rightKerningGroup = numbersign;
unicode = 0060;
},
{
glyphname = a;
layers = (
{
layerId = "7BE58B69-D6A5-4645-9194-9194354D517E";
name = Regular;
paths = (
{
closed = 1;
nodes = (
"425 93 LINE",
"427 68 OFFCURVE",
"446 54 OFFCURVE",
"483 49 CURVE",
"480 -10 LINE",
"427 -10 OFFCURVE",
"388 3 OFFCURVE",
"361 30 CURVE",
"301 3 OFFCURVE",
"241 -10 OFFCURVE",
"181 -10 CURVE SMOOTH",
"89 -10 OFFCURVE",
"40 44 OFFCURVE",
"40 141 CURVE SMOOTH",
"40 238 OFFCURVE",
"88 280 OFFCURVE",
"193 291 CURVE SMOOTH",
"350 306 LINE",
"350 349 LINE SMOOTH",
"350 417 OFFCURVE",
"319 444 OFFCURVE",
"268 444 CURVE SMOOTH",
"215 444 OFFCURVE",
"159 441 OFFCURVE",
"102 434 CURVE SMOOTH",
"71 431 LINE",
"68 488 LINE",
"141 503 OFFCURVE",
"206 510 OFFCURVE",
"263 510 CURVE SMOOTH",
"376 510 OFFCURVE",
"425 460 OFFCURVE",
"425 349 CURVE SMOOTH"
);
},
{
closed = 1;
nodes = (
"117 84 OFFCURVE",
"142 53 OFFCURVE",
"193 53 CURVE SMOOTH",
"238 53 OFFCURVE",
"283 61 OFFCURVE",
"327 76 CURVE SMOOTH",
"350 84 LINE",
"350 249 LINE",
"202 235 LINE SMOOTH",
"142 230 OFFCURVE",
"117 201 OFFCURVE",
"117 145 CURVE SMOOTH"
);
}
);
width = 501;
}
);
leftKerningGroup = a;
rightKerningGroup = a;
unicode = 0061;
},
{
glyphname = b;
layers = (
{
layerId = "7BE58B69-D6A5-4645-9194-9194354D517E";
name = Regular;
paths = (
{
closed = 1;
nodes = (
"428 510 OFFCURVE",
"475 443 OFFCURVE",
"475 251 CURVE SMOOTH",
"475 59 OFFCURVE",
"419 -10 OFFCURVE",
"239 -10 CURVE SMOOTH",
"211 -10 OFFCURVE",
"165 -7 OFFCURVE",
"100 -2 CURVE SMOOTH",
"72 1 LINE",
"72 718 LINE",
"146 718 LINE",
"146 475 LINE",
"197 498 OFFCURVE",
"246 510 OFFCURVE",
"293 510 CURVE SMOOTH"
);
},
{
closed = 1;
nodes = (
"369 57 OFFCURVE",
"399 111 OFFCURVE",
"399 252 CURVE SMOOTH",
"399 393 OFFCURVE",
"370 443 OFFCURVE",
"285 443 CURVE SMOOTH",
"246 443 OFFCURVE",
"207 436 OFFCURVE",
"166 421 CURVE SMOOTH",
"146 414 LINE",
"146 62 LINE",
"189 59 OFFCURVE",
"220 57 OFFCURVE",
"238 57 CURVE SMOOTH"
);
}
);
width = 526;
}
);
leftKerningGroup = b;
rightKerningGroup = b;
unicode = 0062;
},
{
glyphname = c;
layers = (
{
layerId = "7BE58B69-D6A5-4645-9194-9194354D517E";
name = Regular;
paths = (
{
closed = 1;
nodes = (
"281 510 OFFCURVE",
"318 506 OFFCURVE",
"371 498 CURVE SMOOTH",
"395 495 LINE",
"392 434 LINE",
"339 440 OFFCURVE",
"299 443 OFFCURVE",
"274 443 CURVE SMOOTH",
"161 443 OFFCURVE",
"128 399 OFFCURVE",
"128 253 CURVE SMOOTH",
"128 107 OFFCURVE",
"155 57 OFFCURVE",
"275 57 CURVE",
"393 66 LINE",
"396 4 LINE",
"334 -5 OFFCURVE",
"288 -10 OFFCURVE",
"257 -10 CURVE SMOOTH",
"101 -10 OFFCURVE",
"51 63 OFFCURVE",
"51 253 CURVE SMOOTH",
"51 443 OFFCURVE",
"110 510 OFFCURVE",
"259 510 CURVE SMOOTH"
);
}
);
width = 436;
}
);
leftKerningGroup = c;
rightKerningGroup = c;
unicode = 0063;
},
{
glyphname = d;
layers = (
{
layerId = "7BE58B69-D6A5-4645-9194-9194354D517E";
name = Regular;
paths = (
{
closed = 1;
nodes = (
"456 718 LINE",
"456 0 LINE",
"382 0 LINE",
"382 34 LINE",
"331 5 OFFCURVE",
"280 -10 OFFCURVE",
"230 -10 CURVE SMOOTH",
"177 -10 OFFCURVE",
"139 1 OFFCURVE",
"104 36 CURVE SMOOTH",
"68 72 OFFCURVE",
"50 139 OFFCURVE",
"50 236 CURVE SMOOTH",
"50 430 OFFCURVE",
"110 510 OFFCURVE",
"259 510 CURVE SMOOTH",
"298 510 OFFCURVE",
"339 506 OFFCURVE",
"382 497 CURVE",
"382 718 LINE"
);
},
{
closed = 1;
nodes = (
"183 65 OFFCURVE",
"205 57 OFFCURVE",
"243 57 CURVE SMOOTH",
"281 57 OFFCURVE",
"335 73 OFFCURVE",
"362 85 CURVE SMOOTH",
"382 94 LINE",
"382 433 LINE",
"339 441 OFFCURVE",
"300 445 OFFCURVE",
"263 445 CURVE SMOOTH",
"162 445 OFFCURVE",
"127 382 OFFCURVE",
"127 246 CURVE SMOOTH",
"127 169 OFFCURVE",
"139 117 OFFCURVE",
"162 90 CURVE SMOOTH"
);
}
);
width = 529;
}
);
leftKerningGroup = d;
rightKerningGroup = d;
unicode = 0064;
},
{
glyphname = e;
layers = (
{
layerId = "7BE58B69-D6A5-4645-9194-9194354D517E";
name = Regular;
paths = (
{
closed = 1;
nodes = (
"441 65 LINE",
"443 6 LINE",
"367 -5 OFFCURVE",
"302 -10 OFFCURVE",
"248 -10 CURVE SMOOTH",
"104 -10 OFFCURVE",
"50 71 OFFCURVE",
"50 247 CURVE SMOOTH",
"50 422 OFFCURVE",
"120 510 OFFCURVE",
"259 510 CURVE SMOOTH",
"394 510 OFFCURVE",
"460 437 OFFCURVE",
"460 276 CURVE",
"456 219 LINE",
"126 219 LINE",
"126 108 OFFCURVE",
"161 56 OFFCURVE",
"261 56 CURVE SMOOTH",
"310 56 OFFCURVE",
"361 58 OFFCURVE",
"412 62 CURVE SMOOTH"
);
},
{
closed = 1;
nodes = (
"385 279 LINE",
"385 402 OFFCURVE",
"348 447 OFFCURVE",
"260 447 CURVE SMOOTH",
"171 447 OFFCURVE",
"126 396 OFFCURVE",
"125 279 CURVE"
);
}
);
width = 505;
}
);
leftKerningGroup = c;
rightKerningGroup = e;
unicode = 0065;
},
{
glyphname = f;
layers = (
{
layerId = "7BE58B69-D6A5-4645-9194-9194354D517E";
name = Regular;
paths = (
{
closed = 1;
nodes = (
"168 435 LINE",
"168 0 LINE",
"93 0 LINE",
"93 435 LINE",
"30 435 LINE",
"30 500 LINE",
"93 500 LINE",
"93 545 LINE SMOOTH",
"93 686 OFFCURVE",
"128 728 OFFCURVE",
"228 728 CURVE",
"329 721 LINE",
"328 659 LINE",
"291 660 OFFCURVE",
"260 661 OFFCURVE",
"236 661 CURVE SMOOTH",
"187 661 OFFCURVE",
"168 636 OFFCURVE",
"168 544 CURVE SMOOTH",
"168 500 LINE",
"313 500 LINE",
"313 435 LINE"
);
}
);
width = 331;
}
);
rightKerningGroup = numbersign;
unicode = 0066;
},
{
glyphname = g;
layers = (
{
layerId = "7BE58B69-D6A5-4645-9194-9194354D517E";
name = Regular;
paths = (
{
closed = 1;
nodes = (
"105 -235 OFFCURVE",
"50 -199 OFFCURVE",
"50 -84 CURVE SMOOTH",
"50 -29 OFFCURVE",
"72 -3 OFFCURVE",
"129 40 CURVE",
"110 53 OFFCURVE",
"101 76 OFFCURVE",
"101 109 CURVE SMOOTH",
"101 120 OFFCURVE",
"109 141 OFFCURVE",
"126 172 CURVE SMOOTH",
"135 188 LINE",
"82 212 OFFCURVE",
"56 262 OFFCURVE",
"56 339 CURVE SMOOTH",
"56 453 OFFCURVE",
"118 510 OFFCURVE",
"243 510 CURVE SMOOTH",
"275 510 OFFCURVE",
"305 507 OFFCURVE",
"332 500 CURVE",
"347 497 LINE",
"495 501 LINE",
"495 437 LINE",
"400 439 LINE",
"422 417 OFFCURVE",
"433 384 OFFCURVE",
"433 339 CURVE SMOOTH",
"433 214 OFFCURVE",
"373 170 OFFCURVE",
"240 170 CURVE SMOOTH",
"222 170 OFFCURVE",
"206 171 OFFCURVE",
"191 174 CURVE",
"179 145 OFFCURVE",
"173 126 OFFCURVE",
"173 117 CURVE SMOOTH",
"173 96 OFFCURVE",
"179 84 OFFCURVE",
"192 79 CURVE SMOOTH",
"205 74 OFFCURVE",
"243 71 OFFCURVE",
"307 71 CURVE SMOOTH",
"435 71 OFFCURVE",
"487 40 OFFCURVE",
"487 -76 CURVE SMOOTH",
"487 -182 OFFCURVE",
"413 -235 OFFCURVE",
"265 -235 CURVE SMOOTH"
);
},
{
closed = 1;
nodes = (
"124 -149 OFFCURVE",
"157 -172 OFFCURVE",
"263 -172 CURVE SMOOTH",
"369 -172 OFFCURVE",
"411 -145 OFFCURVE",
"411 -76 CURVE SMOOTH",
"411 -8 OFFCURVE",
"385 5 OFFCURVE",
"288 5 CURVE",
"180 10 LINE",
"136 -22 OFFCURVE",
"124 -41 OFFCURVE",
"124 -78 CURVE SMOOTH"
);
},
{
closed = 1;
nodes = (
"131 260 OFFCURVE",
"164 230 OFFCURVE",
"245 230 CURVE SMOOTH",
"326 230 OFFCURVE",
"358 260 OFFCURVE",
"358 340 CURVE SMOOTH",
"358 419 OFFCURVE",
"326 449 OFFCURVE",
"245 449 CURVE SMOOTH",
"164 449 OFFCURVE",
"131 418 OFFCURVE",
"131 339 CURVE SMOOTH"
);
}
);
width = 514;
}
);
leftKerningGroup = g;
rightKerningGroup = g;
unicode = 0067;
},
{
glyphname = h;
layers = (
{
layerId = "7BE58B69-D6A5-4645-9194-9194354D517E";
name = Regular;
paths = (
{
closed = 1;
nodes = (
"147 0 LINE",
"72 0 LINE",
"72 718 LINE",
"147 718 LINE",
"147 472 LINE",
"200 497 OFFCURVE",
"252 510 OFFCURVE",
"301 510 CURVE SMOOTH",
"434 510 OFFCURVE",
"470 448 OFFCURVE",
"470 264 CURVE SMOOTH",
"470 0 LINE",
"395 0 LINE",
"395 262 LINE SMOOTH",
"395 401 OFFCURVE",
"376 443 OFFCURVE",
"288 443 CURVE SMOOTH",
"246 443 OFFCURVE",
"205 435 OFFCURVE",
"166 420 CURVE SMOOTH",
"147 413 LINE"
);
}
);
width = 537;
}
);
leftKerningGroup = h;
rightKerningGroup = h;
unicode = 0068;
},
{
glyphname = i;
layers = (
{
layerId = "7BE58B69-D6A5-4645-9194-9194354D517E";
name = Regular;
paths = (
{
closed = 1;
nodes = (
"72 0 LINE",
"72 500 LINE",
"147 500 LINE",
"147 0 LINE"
);
},
{
closed = 1;
nodes = (
"72 613 LINE",
"72 700 LINE",
"147 700 LINE",
"147 613 LINE"
);
}
);
width = 219;
}
);
leftKerningGroup = i;
rightKerningGroup = i;
unicode = 0069;
},
{
glyphname = j;
layers = (
{
layerId = "7BE58B69-D6A5-4645-9194-9194354D517E";
name = Regular;
paths = (
{
closed = 1;
nodes = (
"73 500 LINE",
"147 500 LINE",
"147 12 LINE SMOOTH",
"147 -111 OFFCURVE",
"114 -155 OFFCURVE",
"-19 -223 CURVE",
"-49 -165 LINE",
"55 -105 OFFCURVE",
"73 -80 OFFCURVE",
"73 13 CURVE SMOOTH"
);
},
{
closed = 1;
nodes = (
"73 613 LINE",
"73 700 LINE",
"147 700 LINE",
"147 613 LINE"
);
}
);
width = 219;
}
);
leftKerningGroup = i;
rightKerningGroup = i;
unicode = 006A;
},
{
glyphname = k;
layers = (
{
layerId = "7BE58B69-D6A5-4645-9194-9194354D517E";
name = Regular;
paths = (
{
closed = 1;
nodes = (
"147 0 LINE",
"72 0 LINE",
"72 718 LINE",
"147 718 LINE",
"147 294 LINE",
"225 298 LINE",
"368 500 LINE",
"453 500 LINE",
"290 270 LINE",
"460 0 LINE",
"375 0 LINE",
"226 232 LINE",
"147 229 LINE"
);
}
);
width = 479;
}
);
leftKerningGroup = h;
rightKerningGroup = k;
unicode = 006B;
},
{
glyphname = l;
layers = (
{
layerId = "7BE58B69-D6A5-4645-9194-9194354D517E";
name = Regular;
paths = (
{
closed = 1;
nodes = (
"78 0 LINE",
"78 718 LINE",
"153 718 LINE",
"153 0 LINE"
);
}
);
width = 231;
}
);
leftKerningGroup = l;
rightKerningGroup = l;
unicode = 006C;
},
{
glyphname = m;
layers = (
{
layerId = "7BE58B69-D6A5-4645-9194-9194354D517E";
name = Regular;
paths = (
{
closed = 1;
nodes = (
"147 0 LINE",
"72 0 LINE",
"72 500 LINE",
"146 500 LINE",
"146 465 LINE",
"196 495 OFFCURVE",
"245 510 OFFCURVE",
"292 510 CURVE SMOOTH",
"354 510 OFFCURVE",
"397 493 OFFCURVE",
"422 459 CURVE",
"466 486 OFFCURVE",
"547 510 OFFCURVE",
"600 510 CURVE SMOOTH",
"733 510 OFFCURVE",
"769 449 OFFCURVE",
"769 264 CURVE SMOOTH",
"769 0 LINE",
"694 0 LINE",
"694 262 LINE SMOOTH",
"694 401 OFFCURVE",
"676 443 OFFCURVE",
"589 443 CURVE SMOOTH",
"545 443 OFFCURVE",
"492 427 OFFCURVE",
"467 415 CURVE SMOOTH",
"448 406 LINE",
"457 384 OFFCURVE",
"461 335 OFFCURVE",
"461 260 CURVE SMOOTH",
"461 0 LINE",
"386 0 LINE",
"386 258 LINE SMOOTH",
"386 402 OFFCURVE",
"369 443 OFFCURVE",
"281 443 CURVE SMOOTH",
"238 443 OFFCURVE",
"188 427 OFFCURVE",
"164 415 CURVE SMOOTH",
"147 406 LINE"
);
}
);
width = 836;
}
);
leftKerningGroup = m;
rightKerningGroup = h;
unicode = 006D;
},
{
glyphname = n;
layers = (
{
layerId = "7BE58B69-D6A5-4645-9194-9194354D517E";
name = Regular;
paths = (
{
closed = 1;
nodes = (
"147 0 LINE",
"72 0 LINE",
"72 500 LINE",
"146 500 LINE",
"146 465 LINE",
"200 495 OFFCURVE",
"252 510 OFFCURVE",
"301 510 CURVE SMOOTH",
"434 510 OFFCURVE",
"470 448 OFFCURVE",
"470 264 CURVE SMOOTH",
"470 0 LINE",
"396 0 LINE",
"396 262 LINE SMOOTH",
"396 401 OFFCURVE",
"377 443 OFFCURVE",
"288 443 CURVE SMOOTH",
"245 443 OFFCURVE",
"191 427 OFFCURVE",
"166 415 CURVE SMOOTH",
"147 406 LINE"
);
}
);
width = 537;
}
);
leftKerningGroup = m;
rightKerningGroup = h;
unicode = 006E;
},
{
glyphname = o;
layers = (
{
layerId = "7BE58B69-D6A5-4645-9194-9194354D517E";
name = Regular;
paths = (
{
closed = 1;
nodes = (
"50 434 OFFCURVE",
"109 510 OFFCURVE",
"265 510 CURVE SMOOTH",
"420 510 OFFCURVE",
"478 434 OFFCURVE",
"478 251 CURVE SMOOTH",
"478 68 OFFCURVE",
"427 -10 OFFCURVE",
"264 -10 CURVE SMOOTH",
"101 -10 OFFCURVE",
"50 68 OFFCURVE",
"50 251 CURVE SMOOTH"
);
},
{
closed = 1;
nodes = (
"127 107 OFFCURVE",
"152 55 OFFCURVE",
"265 55 CURVE SMOOTH",
"377 55 OFFCURVE",
"401 105 OFFCURVE",
"401 252 CURVE SMOOTH",
"401 399 OFFCURVE",
"369 445 OFFCURVE",
"265 445 CURVE SMOOTH",
"160 445 OFFCURVE",
"127 399 OFFCURVE",
"127 253 CURVE SMOOTH"
);
}
);
width = 528;
}
);
leftKerningGroup = c;
rightKerningGroup = o;
unicode = 006F;
},
{
glyphname = p;
layers = (
{
layerId = "7BE58B69-D6A5-4645-9194-9194354D517E";
name = Regular;
paths = (
{
closed = 1;
nodes = (
"72 -222 LINE",
"72 500 LINE",
"146 500 LINE",
"146 464 LINE",
"197 495 OFFCURVE",
"247 510 OFFCURVE",
"296 510 CURVE SMOOTH",
"423 510 OFFCURVE",
"477 435 OFFCURVE",
"477 250 CURVE SMOOTH",
"477 65 OFFCURVE",
"415 -10 OFFCURVE",
"259 -10 CURVE SMOOTH",
"218 -10 OFFCURVE",
"181 -6 OFFCURVE",
"147 1 CURVE",
"147 -222 LINE"
);
},
{
closed = 1;
nodes = (
"245 443 OFFCURVE",
"193 426 OFFCURVE",
"166 413 CURVE",
"147 403 LINE",
"147 66 LINE",
"194 59 OFFCURVE",
"230 55 OFFCURVE",
"255 55 CURVE SMOOTH",
"363 55 OFFCURVE",
"401 112 OFFCURVE",
"401 251 CURVE SMOOTH",
"401 390 OFFCURVE",
"361 443 OFFCURVE",
"285 443 CURVE SMOOTH"
);
}
);
width = 527;
}
);
leftKerningGroup = m;
rightKerningGroup = b;
unicode = 0070;
},
{
glyphname = q;
layers = (
{
layerId = "7BE58B69-D6A5-4645-9194-9194354D517E";
name = Regular;
paths = (
{
closed = 1;
nodes = (
"103 -10 OFFCURVE",
"50 61 OFFCURVE",
"50 249 CURVE SMOOTH",
"50 437 OFFCURVE",
"110 510 OFFCURVE",
"286 510 CURVE",
"453 500 LINE",
"453 -222 LINE",
"379 -222 LINE",
"379 23 LINE",
"332 1 OFFCURVE",
"285 -10 OFFCURVE",
"238 -10 CURVE SMOOTH"
);
},
{
closed = 1;
nodes = (
"162 445 OFFCURVE",
"126 385 OFFCURVE",
"126 249 CURVE SMOOTH",
"126 112 OFFCURVE",
"159 57 OFFCURVE",
"246 57 CURVE SMOOTH",
"285 57 OFFCURVE",
"323 64 OFFCURVE",
"361 79 CURVE SMOOTH",
"379 86 LINE",
"379 439 LINE",
"338 443 OFFCURVE",
"307 445 OFFCURVE",
"287 445 CURVE SMOOTH"
);
}
);
width = 526;
}
);
leftKerningGroup = d;
rightKerningGroup = q;
unicode = 0071;
},
{
glyphname = r;
layers = (
{
layerId = "7BE58B69-D6A5-4645-9194-9194354D517E";
name = Regular;
paths = (
{
closed = 1;
nodes = (
"72 0 LINE",
"72 500 LINE",
"146 500 LINE",
"146 432 LINE",
"204 472 OFFCURVE",
"265 498 OFFCURVE",
"329 511 CURVE",
"329 435 LINE",
"273 424 OFFCURVE",
"204 397 OFFCURVE",
"172 380 CURVE SMOOTH",
"147 367 LINE",
"147 0 LINE"
);
}
);
width = 346;
}
);
leftKerningGroup = m;
rightKerningGroup = r;
unicode = 0072;
},
{
glyphname = s;
layers = (
{
layerId = "7BE58B69-D6A5-4645-9194-9194354D517E";
name = Regular;
paths = (
{
closed = 1;
nodes = (
"156 443 OFFCURVE",
"120 418 OFFCURVE",
"120 367 CURVE SMOOTH",
"120 344 OFFCURVE",
"128 327 OFFCURVE",
"145 318 CURVE",
"162 308 OFFCURVE",
"200 298 OFFCURVE",
"259 288 CURVE SMOOTH",
"378 267 OFFCURVE",
"422 242 OFFCURVE",
"422 139 CURVE SMOOTH",
"422 36 OFFCURVE",
"355 -10 OFFCURVE",
"228 -10 CURVE SMOOTH",
"187 -10 OFFCURVE",
"138 -5 OFFCURVE",
"82 4 CURVE SMOOTH",
"52 9 LINE",
"56 74 LINE",
"132 63 OFFCURVE",
"189 57 OFFCURVE",
"228 57 CURVE SMOOTH",
"305 57 OFFCURVE",
"347 80 OFFCURVE",
"347 138 CURVE SMOOTH",
"347 167 OFFCURVE",
"338 186 OFFCURVE",
"321 197 CURVE",
"304 207 OFFCURVE",
"266 217 OFFCURVE",
"207 226 CURVE SMOOTH",
"90 245 OFFCURVE",
"45 270 OFFCURVE",
"45 367 CURVE SMOOTH",
"45 464 OFFCURVE",
"122 510 OFFCURVE",
"225 510 CURVE SMOOTH",
"266 510 OFFCURVE",
"317 505 OFFCURVE",
"378 496 CURVE SMOOTH",
"406 491 LINE",
"404 427 LINE",
"330 438 OFFCURVE",
"272 443 OFFCURVE",
"229 443 CURVE SMOOTH"
);
}
);
width = 465;
}
);
leftKerningGroup = s;
rightKerningGroup = s;
unicode = 0073;
},
{
glyphname = t;
layers = (
{
layerId = "7BE58B69-D6A5-4645-9194-9194354D517E";
name = Regular;
paths = (
{
closed = 1;
nodes = (
"331 435 LINE",
"172 435 LINE",
"172 196 LINE SMOOTH",
"172 139 OFFCURVE",
"176 101 OFFCURVE",
"185 83 CURVE",
"193 65 OFFCURVE",
"213 56 OFFCURVE",
"244 56 CURVE",
"333 62 LINE",
"338 0 LINE",
"293 -7 OFFCURVE",
"259 -11 OFFCURVE",
"236 -11 CURVE SMOOTH",
"132 -11 OFFCURVE",
"98 29 OFFCURVE",
"98 172 CURVE SMOOTH",
"98 435 LINE",
"27 435 LINE",
"27 500 LINE",
"98 500 LINE",
"98 653 LINE",
"172 653 LINE",
"172 500 LINE",
"331 500 LINE"
);
}
);
width = 351;
}
);
leftKerningGroup = t;
rightKerningGroup = t;
unicode = 0074;
},
{
glyphname = u;
layers = (
{
layerId = "7BE58B69-D6A5-4645-9194-9194354D517E";
name = Regular;
paths = (
{
closed = 1;
nodes = (
"384 500 LINE",
"459 500 LINE",
"459 0 LINE",
"384 0 LINE",
"384 35 LINE",
"334 5 OFFCURVE",
"285 -10 OFFCURVE",
"236 -10 CURVE SMOOTH",
"100 -10 OFFCURVE",
"67 48 OFFCURVE",
"67 239 CURVE SMOOTH",
"67 500 LINE",
"142 500 LINE",
"142 240 LINE SMOOTH",
"142 95 OFFCURVE",
"158 57 OFFCURVE",
"247 57 CURVE SMOOTH",
"291 57 OFFCURVE",
"342 73 OFFCURVE",
"366 85 CURVE SMOOTH",
"384 94 LINE"
);
}
);
width = 531;
}
);
leftKerningGroup = u;
rightKerningGroup = q;
unicode = 0075;
},
{
glyphname = v;
layers = (
{
layerId = "7BE58B69-D6A5-4645-9194-9194354D517E";
name = Regular;
paths = (
{
closed = 1;
nodes = (
"25 500 LINE",
"105 500 LINE",
"222 65 LINE",
"259 65 LINE",
"380 500 LINE",
"457 500 LINE",
"316 0 LINE",
"166 0 LINE"
);
}
);
width = 481;
}
);
rightKerningGroup = numbersign;
unicode = 0076;
},
{
glyphname = w;
layers = (
{
layerId = "7BE58B69-D6A5-4645-9194-9194354D517E";
name = Regular;
paths = (
{
closed = 1;
nodes = (
"31 500 LINE",
"106 500 LINE",
"207 65 LINE",
"223 65 LINE",
"342 490 LINE",
"420 490 LINE",
"539 65 LINE",
"556 65 LINE",
"656 500 LINE",
"731 500 LINE",
"612 0 LINE",
"487 0 LINE",
"381 391 LINE",
"275 0 LINE",
"150 0 LINE"
);
}
);
width = 762;
}
);
leftKerningGroup = w;
rightKerningGroup = w;
unicode = 0077;
},
{
glyphname = x;
layers = (
{
layerId = "7BE58B69-D6A5-4645-9194-9194354D517E";
name = Regular;
paths = (
{
closed = 1;
nodes = (
"22 500 LINE",
"104 500 LINE",
"226 304 LINE",
"348 500 LINE",
"430 500 LINE",
"271 252 LINE",
"429 0 LINE",
"347 0 LINE",
"226 195 LINE",
"104 0 LINE",
"22 0 LINE",
"179 250 LINE"
);
}
);
width = 452;
}
);
rightKerningGroup = numbersign;
unicode = 0078;
},
{
glyphname = y;
layers = (
{
layerId = "7BE58B69-D6A5-4645-9194-9194354D517E";
name = Regular;
paths = (
{
closed = 1;
nodes = (
"25 500 LINE",
"100 500 LINE",
"225 65 LINE",
"258 65 LINE",
"384 500 LINE",
"459 500 LINE",
"251 -222 LINE",
"176 -222 LINE",
"241 0 LINE",
"167 0 LINE"
);
}
);
width = 483;
}
);
leftKerningGroup = y;
rightKerningGroup = y;
unicode = 0079;
},
{
glyphname = z;
layers = (
{
layerId = "7BE58B69-D6A5-4645-9194-9194354D517E";
name = Regular;
paths = (
{
closed = 1;
nodes = (
"42 433 LINE",
"42 500 LINE",
"413 500 LINE",
"413 433 LINE",
"133 67 LINE",
"413 67 LINE",
"413 0 LINE",
"42 0 LINE",
"42 67 LINE",
"322 433 LINE"
);
}
);
width = 455;
}
);
leftKerningGroup = z;
rightKerningGroup = z;
unicode = 007A;
},
{
glyphname = braceleft;
layers = (
{
layerId = "7BE58B69-D6A5-4645-9194-9194354D517E";
name = Regular;
paths = (
{
closed = 1;
nodes = (
"204 452 LINE",
"204 367 OFFCURVE",
"182 336 OFFCURVE",
"99 312 CURVE",
"180 288 OFFCURVE",
"204 254 OFFCURVE",
"204 170 CURVE",
"197 54 LINE",
"197 -21 OFFCURVE",
"224 -58 OFFCURVE",
"312 -63 CURVE",
"310 -128 LINE",
"175 -123 OFFCURVE",
"124 -73 OFFCURVE",
"124 47 CURVE",
"131 169 LINE",
"131 226 OFFCURVE",
"100 260 OFFCURVE",
"24 281 CURVE",
"24 342 LINE",
"100 359 OFFCURVE",
"131 394 OFFCURVE",
"131 451 CURVE",
"124 579 LINE",
"124 702 OFFCURVE",
"175 750 OFFCURVE",
"311 755 CURVE",
"312 690 LINE",
"224 685 OFFCURVE",
"197 650 OFFCURVE",
"197 575 CURVE"
);
}
);
width = 352;
}
);
rightKerningGroup = numbersign;
unicode = 007B;
},
{
glyphname = bar;
layers = (
{
layerId = "7BE58B69-D6A5-4645-9194-9194354D517E";
name = Regular;
paths = (
{
closed = 1;
nodes = (
"78 -222 LINE",
"78 718 LINE",
"152 718 LINE",
"152 -222 LINE"
);
}
);
width = 230;
}
);
rightKerningGroup = numbersign;
unicode = 007C;
},
{
glyphname = braceright;
layers = (
{
layerId = "7BE58B69-D6A5-4645-9194-9194354D517E";
name = Regular;
paths = (
{
closed = 1;
nodes = (
"148 170 LINE",
"148 254 OFFCURVE",
"172 288 OFFCURVE",
"253 312 CURVE",
"170 336 OFFCURVE",
"148 367 OFFCURVE",
"148 452 CURVE",
"155 575 LINE",
"155 650 OFFCURVE",
"128 685 OFFCURVE",
"40 690 CURVE",
"41 755 LINE",
"177 750 OFFCURVE",
"228 702 OFFCURVE",
"228 579 CURVE",
"221 451 LINE",
"221 394 OFFCURVE",
"252 359 OFFCURVE",
"328 342 CURVE",
"328 281 LINE",
"252 260 OFFCURVE",
"221 226 OFFCURVE",
"221 169 CURVE",
"228 47 LINE",
"228 -73 OFFCURVE",
"177 -123 OFFCURVE",
"42 -128 CURVE",
"40 -63 LINE",
"128 -58 OFFCURVE",
"155 -21 OFFCURVE",
"155 54 CURVE"
);
}
);
width = 352;
}
);
rightKerningGroup = numbersign;
unicode = 007D;
},
{
glyphname = asciitilde;
layers = (
{
layerId = "7BE58B69-D6A5-4645-9194-9194354D517E";
name = Regular;
paths = (
{
closed = 1;
nodes = (
"361 195 OFFCURVE",
"327 205 OFFCURVE",
"277 226 CURVE SMOOTH",
"226 247 OFFCURVE",
"195 257 OFFCURVE",
"183 257 CURVE SMOOTH",
"158 257 OFFCURVE",
"118 238 OFFCURVE",
"95 222 CURVE SMOOTH",
"78 210 LINE",
"67 272 LINE",
"108 307 OFFCURVE",
"147 325 OFFCURVE",
"183 325 CURVE SMOOTH",
"202 325 OFFCURVE",
"237 315 OFFCURVE",
"287 295 CURVE SMOOTH",
"336 274 OFFCURVE",
"367 264 OFFCURVE",
"380 264 CURVE SMOOTH",
"403 264 OFFCURVE",
"433 275 OFFCURVE",
"468 298 CURVE SMOOTH",
"485 310 LINE",
"495 249 LINE",
"453 213 OFFCURVE",
"414 195 OFFCURVE",
"379 195 CURVE SMOOTH"
);
}
);
width = 560;
}
);
rightKerningGroup = numbersign;
unicode = 007E;
},
{
glyphname = exclamdown;
layers = (
{
layerId = "7BE58B69-D6A5-4645-9194-9194354D517E";
name = Regular;
paths = (
{
closed = 1;
nodes = (
"154 500 LINE",
"154 388 LINE",
"72 388 LINE",
"72 500 LINE"
);
},
{
closed = 1;
nodes = (
"148 272 LINE",
"153 -192 LINE",
"74 -192 LINE",
"79 272 LINE"
);
}
);
width = 228;
}
);
rightKerningGroup = numbersign;
unicode = 00A1;
},
{
glyphname = cent;
layers = (
{
layerId = "7BE58B69-D6A5-4645-9194-9194354D517E";
name = Regular;
paths = (
{
closed = 1;
nodes = (
"278 -81 LINE",
"278 36 LINE",
"154 43 OFFCURVE",
"101 98 OFFCURVE",
"101 246 CURVE SMOOTH",
"101 394 OFFCURVE",
"158 458 OFFCURVE",
"278 465 CURVE",
"278 583 LINE",
"343 583 LINE",
"343 462 LINE",
"369 462 OFFCURVE",
"397 459 OFFCURVE",
"428 453 CURVE SMOOTH",
"444 450 LINE",
"441 390 LINE",
"388 395 OFFCURVE",
"345 397 OFFCURVE",
"312 397 CURVE SMOOTH",
"213 397 OFFCURVE",
"179 357 OFFCURVE",
"179 248 CURVE SMOOTH",
"179 139 OFFCURVE",
"211 103 OFFCURVE",
"318 103 CURVE",
"442 110 LINE",
"445 49 LINE",
"405 43 OFFCURVE",
"371 39 OFFCURVE",
"343 38 CURVE",
"343 -81 LINE"
);
}
);
width = 560;
}
);
rightKerningGroup = numbersign;
unicode = 00A2;
},
{
glyphname = sterling;
layers = (
{
layerId = "7BE58B69-D6A5-4645-9194-9194354D517E";
name = Regular;
paths = (
{
closed = 1;
nodes = (
"445 592 LINE",
"392 599 OFFCURVE",
"350 603 OFFCURVE",
"319 603 CURVE SMOOTH",
"257 603 OFFCURVE",
"238 574 OFFCURVE",
"238 467 CURVE SMOOTH",
"238 417 LINE",
"409 417 LINE",
"409 352 LINE",
"238 352 LINE",
"238 66 LINE",
"392 66 LINE",
"469 82 LINE",
"482 18 LINE",
"400 0 LINE",
"80 0 LINE",
"80 66 LINE",
"165 66 LINE",
"165 352 LINE",
"98 352 LINE",
"98 417 LINE",
"165 417 LINE",
"165 472 LINE SMOOTH",
"165 628 OFFCURVE",
"205 670 OFFCURVE",
"313 670 CURVE SMOOTH",
"348 670 OFFCURVE",
"385 666 OFFCURVE",
"424 658 CURVE SMOOTH",
"446 653 LINE"
);
}
);
width = 560;
}
);
rightKerningGroup = numbersign;
unicode = 00A3;
},
{
glyphname = currency;
layers = (
{
layerId = "7BE58B69-D6A5-4645-9194-9194354D517E";
name = Regular;
paths = (
{
closed = 1;
nodes = (
"379 101 LINE",
"348 81 OFFCURVE",
"315 71 OFFCURVE",
"279 71 CURVE SMOOTH",
"243 71 OFFCURVE",
"210 81 OFFCURVE",
"181 101 CURVE",
"111 30 LINE",
"58 83 LINE",
"128 153 LINE",
"109 183 OFFCURVE",
"99 216 OFFCURVE",
"99 251 CURVE SMOOTH",
"99 286 OFFCURVE",
"109 320 OFFCURVE",
"128 351 CURVE",
"58 421 LINE",
"111 474 LINE",
"181 403 LINE",
"210 423 OFFCURVE",
"243 433 OFFCURVE",
"279 433 CURVE SMOOTH",
"315 433 OFFCURVE",
"348 423 OFFCURVE",
"379 403 CURVE",
"449 474 LINE",
"502 421 LINE",
"431 351 LINE",
"451 320 OFFCURVE",
"461 287 OFFCURVE",
"461 251 CURVE SMOOTH",
"461 215 OFFCURVE",
"451 182 OFFCURVE",
"431 153 CURVE",
"502 83 LINE",
"449 30 LINE"
);
},
{
closed = 1;
nodes = (
"222 148 OFFCURVE",
"249 137 OFFCURVE",
"280 137 CURVE SMOOTH",
"343 137 OFFCURVE",
"395 189 OFFCURVE",
"395 252 CURVE SMOOTH",
"395 315 OFFCURVE",
"343 367 OFFCURVE",
"280 367 CURVE SMOOTH",
"217 367 OFFCURVE",
"165 315 OFFCURVE",
"165 252 CURVE SMOOTH",
"165 221 OFFCURVE",
"176 194 OFFCURVE",
"199 171 CURVE SMOOTH"
);
}
);
width = 560;
}
);
rightKerningGroup = numbersign;
unicode = 00A4;
},
{
glyphname = yen;
layers = (
{
layerId = "7BE58B69-D6A5-4645-9194-9194354D517E";
name = Regular;
paths = (
{
closed = 1;
nodes = (
"57 315 LINE",
"57 380 LINE",
"197 380 LINE",
"23 660 LINE",
"109 660 LINE",
"281 390 LINE",
"451 660 LINE",
"537 660 LINE",
"366 380 LINE",
"502 380 LINE",
"502 315 LINE",
"328 315 LINE",
"320 296 LINE",
"320 228 LINE",
"503 228 LINE",
"503 163 LINE",
"320 163 LINE",
"320 0 LINE",
"243 0 LINE",
"243 163 LINE",
"58 163 LINE",
"58 228 LINE",
"243 228 LINE",
"243 296 LINE",
"235 315 LINE"
);
}
);
width = 560;
}
);
rightKerningGroup = numbersign;
unicode = 00A5;
},
{
glyphname = brokenbar;
layers = (
{
layerId = "7BE58B69-D6A5-4645-9194-9194354D517E";
name = Regular;
paths = (
{
closed = 1;
nodes = (
"80 718 LINE",
"154 718 LINE",
"154 344 LINE",
"80 344 LINE"
);
},
{
closed = 1;
nodes = (
"80 156 LINE",
"154 156 LINE",
"154 -222 LINE",
"80 -222 LINE"
);
}
);
width = 234;
}
);
rightKerningGroup = numbersign;
unicode = 00A6;
},
{
glyphname = section;
layers = (
{
layerId = "7BE58B69-D6A5-4645-9194-9194354D517E";
name = Regular;
paths = (
{
closed = 1;
nodes = (
"418 571 LINE",
"345 581 OFFCURVE",
"290 586 OFFCURVE",
"253 586 CURVE SMOOTH",
"178 586 OFFCURVE",
"139 558 OFFCURVE",
"139 494 CURVE SMOOTH",
"139 430 OFFCURVE",
"172 414 OFFCURVE",
"285 393 CURVE SMOOTH",
"398 372 OFFCURVE",
"443 342 OFFCURVE",
"443 251 CURVE SMOOTH",
"443 205 OFFCURVE",
"428 161 OFFCURVE",
"399 118 CURVE",
"424 97 OFFCURVE",
"436 63 OFFCURVE",
"436 18 CURVE SMOOTH",
"436 -94 OFFCURVE",
"372 -150 OFFCURVE",
"245 -150 CURVE SMOOTH",
"202 -150 OFFCURVE",
"154 -146 OFFCURVE",
"100 -138 CURVE SMOOTH",
"70 -133 LINE",
"77 -70 LINE",
"150 -80 OFFCURVE",
"204 -85 OFFCURVE",
"241 -85 CURVE SMOOTH",
"323 -85 OFFCURVE",
"364 -52 OFFCURVE",
"364 14 CURVE SMOOTH",
"364 44 OFFCURVE",
"354 64 OFFCURVE",
"335 75 CURVE",
"316 85 OFFCURVE",
"277 96 OFFCURVE",
"218 107 CURVE SMOOTH",
"101 129 OFFCURVE",
"52 162 OFFCURVE",
"52 255 CURVE SMOOTH",
"52 307 OFFCURVE",
"89 364 OFFCURVE",
"110 381 CURVE",
"81 402 OFFCURVE",
"66 439 OFFCURVE",
"66 492 CURVE SMOOTH",
"66 598 OFFCURVE",
"130 651 OFFCURVE",
"258 651 CURVE SMOOTH",
"292 651 OFFCURVE",
"338 647 OFFCURVE",
"396 638 CURVE SMOOTH",
"422 634 LINE"
);
},
{
closed = 1;
nodes = (
"138 317 OFFCURVE",
"127 286 OFFCURVE",
"127 261 CURVE SMOOTH",
"127 209 OFFCURVE",
"155 188 OFFCURVE",
"245 172 CURVE SMOOTH",
"290 163 OFFCURVE",
"322 155 OFFCURVE",
"342 146 CURVE",
"349 155 OFFCURVE",
"367 200 OFFCURVE",
"367 248 CURVE SMOOTH",
"367 296 OFFCURVE",
"338 316 OFFCURVE",
"252 332 CURVE SMOOTH",
"209 339 OFFCURVE",
"178 347 OFFCURVE",
"160 354 CURVE"
);
}
);
width = 499;
}
);
rightKerningGroup = numbersign;
unicode = 00A7;
},
{
glyphname = dieresis;
layers = (
{
layerId = "7BE58B69-D6A5-4645-9194-9194354D517E";
name = Regular;
paths = (
{
closed = 1;
nodes = (
"-12 621 LINE",
"-12 711 LINE",
"60 711 LINE",
"60 621 LINE"
);
},
{
closed = 1;
nodes = (
"188 621 LINE",
"188 711 LINE",
"261 711 LINE",
"261 621 LINE"
);
}
);
width = 236;
}
);
rightKerningGroup = numbersign;
unicode = 00A8;
},
{
glyphname = copyright;
layers = (
{
layerId = "7BE58B69-D6A5-4645-9194-9194354D517E";
name = Regular;
paths = (
{
closed = 1;
nodes = (
"172 161 OFFCURVE",
"59 281 OFFCURVE",
"59 435 CURVE SMOOTH",
"59 589 OFFCURVE",
"171 707 OFFCURVE",
"323 707 CURVE SMOOTH",
"475 707 OFFCURVE",
"586 586 OFFCURVE",
"586 433 CURVE SMOOTH",
"586 280 OFFCURVE",
"476 161 OFFCURVE",
"324 161 CURVE SMOOTH"
);
},
{
closed = 1;
nodes = (
"124 552 OFFCURVE",
"103 498 OFFCURVE",
"103 434 CURVE SMOOTH",
"103 306 OFFCURVE",
"197 205 OFFCURVE",
"322 205 CURVE SMOOTH",
"447 205 OFFCURVE",
"542 306 OFFCURVE",
"542 434 CURVE SMOOTH",
"542 562 OFFCURVE",
"447 664 OFFCURVE",
"323 664 CURVE SMOOTH",
"260 664 OFFCURVE",
"208 642 OFFCURVE",
"166 597 CURVE SMOOTH"
);
},
{
closed = 1;
nodes = (
"239 276 OFFCURVE",
"209 324 OFFCURVE",
"209 434 CURVE SMOOTH",
"209 544 OFFCURVE",
"240 591 OFFCURVE",
"327 591 CURVE SMOOTH",
"352 591 OFFCURVE",
"374 589 OFFCURVE",
"394 584 CURVE",
"404 581 LINE",
"400 528 LINE",
"375 532 OFFCURVE",
"351 534 OFFCURVE",
"328 534 CURVE SMOOTH",
"282 534 OFFCURVE",
"270 507 OFFCURVE",
"270 436 CURVE SMOOTH",
"270 364 OFFCURVE",
"283 333 OFFCURVE",
"330 333 CURVE",
"400 340 LINE",
"404 288 LINE",
"379 280 OFFCURVE",
"353 276 OFFCURVE",
"326 276 CURVE SMOOTH"
);
}
);
width = 645;
}
);
rightKerningGroup = numbersign;
unicode = 00A9;
},
{
glyphname = ordfeminine;
layers = (
{
layerId = "7BE58B69-D6A5-4645-9194-9194354D517E";
name = Regular;
paths = (
{
closed = 1;
nodes = (
"302 423 LINE",
"308 416 OFFCURVE",
"318 410 OFFCURVE",
"332 406 CURVE",
"330 357 LINE",
"279 357 OFFCURVE",
"264 364 OFFCURVE",
"247 383 CURVE",
"210 366 OFFCURVE",
"177 357 OFFCURVE",
"146 357 CURVE SMOOTH",
"85 357 OFFCURVE",
"54 393 OFFCURVE",
"54 449 CURVE SMOOTH",
"54 502 OFFCURVE",
"86 531 OFFCURVE",
"150 535 CURVE SMOOTH",
"238 541 LINE",
"238 563 LINE SMOOTH",
"238 592 OFFCURVE",
"222 603 OFFCURVE",
"189 603 CURVE",
"74 596 LINE",
"72 644 LINE",
"118 654 OFFCURVE",
"159 659 OFFCURVE",
"195 659 CURVE SMOOTH",
"267 659 OFFCURVE",
"302 633 OFFCURVE",
"302 560 CURVE SMOOTH"
);
},
{
closed = 1;
nodes = (
"120 424 OFFCURVE",
"132 411 OFFCURVE",
"156 411 CURVE SMOOTH",
"175 411 OFFCURVE",
"199 415 OFFCURVE",
"226 424 CURVE SMOOTH",
"238 428 LINE",
"238 495 LINE",
"161 490 LINE",
"132 487 OFFCURVE",
"120 477 OFFCURVE",
"120 450 CURVE SMOOTH"
);
}
);
width = 386;
}
);
rightKerningGroup = numbersign;
unicode = 00AA;
},
{
glyphname = guillemotleft;
layers = (
{
layerId = "7BE58B69-D6A5-4645-9194-9194354D517E";
name = Regular;
paths = (
{
closed = 1;
nodes = (
"234 344 LINE",
"110 250 LINE",
"234 145 LINE",
"234 67 LINE",
"45 218 LINE",
"45 278 LINE",
"234 421 LINE"
);
},
{
closed = 1;
nodes = (
"472 344 LINE",
"347 250 LINE",
"472 145 LINE",
"472 67 LINE",
"282 218 LINE",
"282 278 LINE",
"472 421 LINE"
);
}
);
width = 539;
}
);
leftKerningGroup = guillemotleft;
rightKerningGroup = guillemotleft;
unicode = 00AB;
},
{
glyphname = logicalnot;
layers = (
{
layerId = "7BE58B69-D6A5-4645-9194-9194354D517E";
name = Regular;
paths = (
{
closed = 1;
nodes = (
"65 342 LINE",
"493 342 LINE",
"493 117 LINE",
"423 117 LINE",
"423 274 LINE",
"65 274 LINE"
);
}
);
width = 560;
}
);
rightKerningGroup = numbersign;
unicode = 00AC;
},
{
glyphname = registered;
layers = (
{
layerId = "7BE58B69-D6A5-4645-9194-9194354D517E";
name = Regular;
paths = (
{
closed = 1;
nodes = (
"172 161 OFFCURVE",
"59 281 OFFCURVE",
"59 435 CURVE SMOOTH",
"59 589 OFFCURVE",
"171 707 OFFCURVE",
"323 707 CURVE SMOOTH",
"475 707 OFFCURVE",
"586 588 OFFCURVE",
"586 434 CURVE SMOOTH",
"586 280 OFFCURVE",
"476 161 OFFCURVE",
"324 161 CURVE SMOOTH"
);
},
{
closed = 1;
nodes = (
"198 664 OFFCURVE",
"103 562 OFFCURVE",
"103 435 CURVE SMOOTH",
"103 307 OFFCURVE",
"198 205 OFFCURVE",
"323 205 CURVE SMOOTH",
"447 205 OFFCURVE",
"542 306 OFFCURVE",
"542 434 CURVE SMOOTH",
"542 562 OFFCURVE",
"447 664 OFFCURVE",
"323 664 CURVE SMOOTH"
);
},
{
closed = 1;
nodes = (
"271 389 LINE",
"271 282 LINE",
"213 282 LINE",
"213 585 LINE",
"323 585 LINE SMOOTH",
"399 585 OFFCURVE",
"437 556 OFFCURVE",
"437 497 CURVE SMOOTH",
"437 438 OFFCURVE",
"423 414 OFFCURVE",
"386 397 CURVE",
"441 282 LINE",
"380 282 LINE",
"330 389 LINE"
);
},
{
closed = 1;
nodes = (
"270 538 LINE",
"270 436 LINE",
"329 436 LINE SMOOTH",
"365 436 OFFCURVE",
"380 451 OFFCURVE",
"380 487 CURVE SMOOTH",
"380 521 OFFCURVE",
"359 538 OFFCURVE",
"318 538 CURVE SMOOTH"
);
}
);
width = 645;
}
);
rightKerningGroup = numbersign;
unicode = 00AE;
},
{
glyphname = macron;
layers = (
{
layerId = "7BE58B69-D6A5-4645-9194-9194354D517E";
name = Regular;
paths = (
{
closed = 1;
nodes = (
"-14 624 LINE",
"-14 683 LINE",
"261 683 LINE",
"261 624 LINE"
);
}
);
width = 236;
}
);
rightKerningGroup = numbersign;
unicode = 00AF;
},
{
glyphname = degree;
layers = (
{
layerId = "7BE58B69-D6A5-4645-9194-9194354D517E";
name = Regular;
paths = (
{
closed = 1;
nodes = (
"151 485 OFFCURVE",
"138 519 OFFCURVE",
"138 561 CURVE SMOOTH",
"138 645 OFFCURVE",
"196 702 OFFCURVE",
"280 702 CURVE SMOOTH",
"364 702 OFFCURVE",
"422 645 OFFCURVE",
"422 561 CURVE SMOOTH",
"422 477 OFFCURVE",
"364 420 OFFCURVE",
"280 420 CURVE SMOOTH",
"238 420 OFFCURVE",
"204 433 OFFCURVE",
"178 459 CURVE SMOOTH"
);
},
{
closed = 1;
nodes = (
"225 654 OFFCURVE",
"189 616 OFFCURVE",
"189 561 CURVE SMOOTH",
"189 505 OFFCURVE",
"225 468 OFFCURVE",
"280 468 CURVE SMOOTH",
"335 468 OFFCURVE",
"373 505 OFFCURVE",
"373 561 CURVE SMOOTH",
"373 616 OFFCURVE",
"335 654 OFFCURVE",
"280 654 CURVE SMOOTH"
);
}
);
width = 560;
}
);
rightKerningGroup = numbersign;
unicode = 00B0;
},
{
glyphname = plusminus;
layers = (
{
layerId = "7BE58B69-D6A5-4645-9194-9194354D517E";
name = Regular;
paths = (
{
closed = 1;
nodes = (
"55 293 LINE",
"55 361 LINE",
"244 361 LINE",
"244 487 LINE",
"314 487 LINE",
"314 361 LINE",
"505 361 LINE",
"505 293 LINE",
"314 293 LINE",
"314 166 LINE",
"244 166 LINE",
"244 293 LINE"
);
},
{
closed = 1;
nodes = (
"55 106 LINE",
"505 106 LINE",
"505 38 LINE",
"55 38 LINE"
);
}
);
width = 560;
}
);
rightKerningGroup = numbersign;
unicode = 00B1;
},
{
glyphname = twosuperior;
layers = (
{
layerId = "7BE58B69-D6A5-4645-9194-9194354D517E";
name = Regular;
paths = (
{
closed = 1;
nodes = (
"239 478 LINE",
"30 478 LINE",
"30 533 LINE",
"118 620 LINE SMOOTH",
"152 653 OFFCURVE",
"169 680 OFFCURVE",
"169 703 CURVE SMOOTH",
"169 728 OFFCURVE",
"153 740 OFFCURVE",
"120 740 CURVE",
"35 731 LINE",
"33 788 LINE",
"72 796 OFFCURVE",
"108 800 OFFCURVE",
"140 800 CURVE SMOOTH",
"203 800 OFFCURVE",
"235 770 OFFCURVE",
"235 709 CURVE SMOOTH",
"235 665 OFFCURVE",
"218 637 OFFCURVE",
"174 597 CURVE SMOOTH",
"111 536 LINE",
"239 536 LINE"
);
}
);
width = 280;
}
);
rightKerningGroup = numbersign;
unicode = 00B2;
},
{
glyphname = threesuperior;
layers = (
{
layerId = "7BE58B69-D6A5-4645-9194-9194354D517E";
name = Regular;
paths = (
{
closed = 1;
nodes = (
"206 800 OFFCURVE",
"241 772 OFFCURVE",
"241 716 CURVE SMOOTH",
"241 682 OFFCURVE",
"228 658 OFFCURVE",
"202 643 CURVE",
"234 632 OFFCURVE",
"249 614 OFFCURVE",
"249 565 CURVE SMOOTH",
"249 500 OFFCURVE",
"214 468 OFFCURVE",
"143 468 CURVE SMOOTH",
"114 468 OFFCURVE",
"83 471 OFFCURVE",
"48 476 CURVE SMOOTH",
"30 478 LINE",
"34 534 LINE",
"72 529 OFFCURVE",
"107 526 OFFCURVE",
"138 526 CURVE SMOOTH",
"169 526 OFFCURVE",
"184 540 OFFCURVE",
"184 569 CURVE SMOOTH",
"184 597 OFFCURVE",
"168 611 OFFCURVE",
"137 611 CURVE SMOOTH",
"72 611 LINE",
"72 664 LINE",
"137 664 LINE SMOOTH",
"156 664 OFFCURVE",
"175 684 OFFCURVE",
"175 708 CURVE SMOOTH",
"175 731 OFFCURVE",
"160 742 OFFCURVE",
"130 742 CURVE",
"38 735 LINE",
"34 790 LINE",
"73 797 OFFCURVE",
"107 800 OFFCURVE",
"136 800 CURVE SMOOTH"
);
}
);
width = 280;
}
);
rightKerningGroup = numbersign;
unicode = 00B3;
},
{
glyphname = acute;
layers = (
{
layerId = "7BE58B69-D6A5-4645-9194-9194354D517E";
name = Regular;
paths = (
{
closed = 1;
nodes = (
"26 642 LINE",
"242 740 LINE",
"268 676 LINE",
"47 591 LINE"
);
}
);
width = 268;
}
);
rightKerningGroup = numbersign;
unicode = 00B4;
},
{
glyphname = mu;
layers = (
{
layerId = "7BE58B69-D6A5-4645-9194-9194354D517E";
name = Regular;
paths = (
{
closed = 1;
nodes = (
"401 500 LINE",
"476 500 LINE",
"476 0 LINE",
"401 0 LINE",
"401 35 LINE",
"351 5 OFFCURVE",
"304 -10 OFFCURVE",
"261 -10 CURVE SMOOTH",
"217 -10 OFFCURVE",
"183 -4 OFFCURVE",
"159 7 CURVE",
"159 -222 LINE",
"84 -222 LINE",
"84 500 LINE",
"159 500 LINE",
"159 240 LINE SMOOTH",
"159 95 OFFCURVE",
"175 57 OFFCURVE",
"264 57 CURVE SMOOTH",
"308 57 OFFCURVE",
"359 73 OFFCURVE",
"383 85 CURVE SMOOTH",
"401 94 LINE"
);
}
);
width = 560;
}
);
rightKerningGroup = numbersign;
unicode = 00B5;
},
{
glyphname = paragraph;
layers = (
{
layerId = "7BE58B69-D6A5-4645-9194-9194354D517E";
name = Regular;
paths = (
{
closed = 1;
nodes = (
"411 0 LINE",
"411 627 LINE",
"295 627 LINE",
"295 0 LINE",
"228 0 LINE",
"228 324 LINE",
"221 324 LINE SMOOTH",
"113 324 OFFCURVE",
"35 399 OFFCURVE",
"35 507 CURVE SMOOTH",
"35 615 OFFCURVE",
"114 692 OFFCURVE",
"222 692 CURVE SMOOTH",
"551 692 LINE",
"551 627 LINE",
"479 627 LINE",
"479 0 LINE"
);
}
);
width = 593;
}
);
rightKerningGroup = numbersign;
unicode = 00B6;
},
{
glyphname = periodcentered;
layers = (
{
layerId = "7BE58B69-D6A5-4645-9194-9194354D517E";
name = Regular;
paths = (
{
closed = 1;
nodes = (
"68 229 LINE",
"68 343 LINE",
"150 343 LINE",
"150 229 LINE"
);
}
);
width = 217;
}
);
rightKerningGroup = numbersign;
unicode = 00B7;
},
{
glyphname = cedilla;
layers = (
{
layerId = "7BE58B69-D6A5-4645-9194-9194354D517E";
name = Regular;
paths = (
{
closed = 1;
nodes = (
"221 -187 OFFCURVE",
"190 -217 OFFCURVE",
"128 -217 CURVE SMOOTH",
"97 -217 OFFCURVE",
"73 -215 OFFCURVE",
"54 -212 CURVE SMOOTH",
"42 -210 LINE",
"45 -162 LINE",
"71 -164 OFFCURVE",
"93 -165 OFFCURVE",
"111 -165 CURVE SMOOTH",
"140 -165 OFFCURVE",
"155 -152 OFFCURVE",
"155 -127 CURVE SMOOTH",
"155 -104 OFFCURVE",
"140 -93 OFFCURVE",
"111 -93 CURVE SMOOTH",
"69 -93 LINE",
"69 1 LINE",
"110 1 LINE",
"110 -49 LINE",
"189 -49 OFFCURVE",
"221 -66 OFFCURVE",
"221 -127 CURVE SMOOTH"
);
}
);
width = 263;
}
);
rightKerningGroup = numbersign;
unicode = 00B8;
},
{
glyphname = onesuperior;
layers = (
{
layerId = "7BE58B69-D6A5-4645-9194-9194354D517E";
name = Regular;
paths = (
{
closed = 1;
nodes = (
"193 790 LINE",
"193 478 LINE",
"129 478 LINE",
"129 720 LINE",
"61 673 LINE",
"32 720 LINE",
"133 790 LINE"
);
}
);
width = 280;
}
);
rightKerningGroup = numbersign;
unicode = 00B9;
},
{
glyphname = ordmasculine;
layers = (
{
layerId = "7BE58B69-D6A5-4645-9194-9194354D517E";
name = Regular;
paths = (
{
closed = 1;
nodes = (
"53 613 OFFCURVE",
"99 659 OFFCURVE",
"191 659 CURVE SMOOTH",
"282 659 OFFCURVE",
"326 613 OFFCURVE",
"326 510 CURVE SMOOTH",
"326 408 OFFCURVE",
"281 357 OFFCURVE",
"191 357 CURVE SMOOTH",
"99 357 OFFCURVE",
"53 408 OFFCURVE",
"53 510 CURVE SMOOTH"
);
},
{
closed = 1;
nodes = (
"122 445 OFFCURVE",
"141 418 OFFCURVE",
"191 418 CURVE SMOOTH",
"241 418 OFFCURVE",
"257 445 OFFCURVE",
"257 510 CURVE SMOOTH",
"257 575 OFFCURVE",
"241 598 OFFCURVE",
"191 598 CURVE SMOOTH",
"141 598 OFFCURVE",
"122 574 OFFCURVE",
"122 510 CURVE SMOOTH"
);
}
);
width = 380;
}
);
rightKerningGroup = numbersign;
unicode = 00BA;
},
{
glyphname = guillemotright;
layers = (
{
layerId = "7BE58B69-D6A5-4645-9194-9194354D517E";
name = Regular;
paths = (
{
closed = 1;
nodes = (
"429 250 LINE",
"304 344 LINE",
"304 421 LINE",
"494 278 LINE",
"494 218 LINE",
"304 67 LINE",
"304 145 LINE"
);
},
{
closed = 1;
nodes = (
"192 250 LINE",
"67 344 LINE",
"67 421 LINE",
"256 278 LINE",
"256 218 LINE",
"67 67 LINE",
"67 145 LINE"
);
}
);
width = 539;
}
);
leftKerningGroup = guillemotright;
rightKerningGroup = guillemotright;
unicode = 00BB;
},
{
glyphname = onequarter;
layers = (
{
layerId = "7BE58B69-D6A5-4645-9194-9194354D517E";
name = Regular;
paths = (
{
closed = 1;
nodes = (
"198 790 LINE",
"198 478 LINE",
"134 478 LINE",
"134 720 LINE",
"66 673 LINE",
"37 720 LINE",
"138 790 LINE"
);
},
{
closed = 1;
nodes = (
"35 28 LINE",
"427 660 LINE",
"467 634 LINE",
"74 3 LINE"
);
},
{
closed = 1;
nodes = (
"412 -100 LINE",
"412 -52 LINE",
"271 -52 LINE",
"271 2 LINE",
"340 212 LINE",
"410 212 LINE",
"337 6 LINE",
"412 6 LINE",
"417 95 LINE",
"475 95 LINE",
"475 6 LINE",
"502 6 LINE",
"502 -52 LINE",
"475 -52 LINE",
"475 -100 LINE"
);
}
);
width = 534;
}
);
rightKerningGroup = numbersign;
unicode = 00BC;
},
{
glyphname = onehalf;
layers = (
{
layerId = "7BE58B69-D6A5-4645-9194-9194354D517E";
name = Regular;
paths = (
{
closed = 1;
nodes = (
"202 790 LINE",
"202 478 LINE",
"138 478 LINE",
"138 720 LINE",
"70 673 LINE",
"41 720 LINE",
"142 790 LINE"
);
},
{
closed = 1;
nodes = (
"33 28 LINE",
"425 660 LINE",
"465 634 LINE",
"72 3 LINE"
);
},
{
closed = 1;
nodes = (
"486 -100 LINE",
"277 -100 LINE",
"277 -45 LINE",
"365 42 LINE SMOOTH",
"399 75 OFFCURVE",
"416 102 OFFCURVE",
"416 125 CURVE SMOOTH",
"416 150 OFFCURVE",
"400 162 OFFCURVE",
"367 162 CURVE",
"282 153 LINE",
"280 210 LINE",
"319 218 OFFCURVE",
"355 222 OFFCURVE",
"386 222 CURVE SMOOTH",
"450 222 OFFCURVE",
"482 192 OFFCURVE",
"482 131 CURVE SMOOTH",
"482 87 OFFCURVE",
"465 59 OFFCURVE",
"421 19 CURVE SMOOTH",
"358 -42 LINE",
"486 -42 LINE"
);
}
);
width = 529;
}
);
rightKerningGroup = numbersign;
unicode = 00BD;
},
{
glyphname = threequarters;
layers = (
{
layerId = "7BE58B69-D6A5-4645-9194-9194354D517E";
name = Regular;
paths = (
{
closed = 1;
nodes = (
"225 800 OFFCURVE",
"260 772 OFFCURVE",
"260 716 CURVE SMOOTH",
"260 682 OFFCURVE",
"247 658 OFFCURVE",
"221 643 CURVE",
"253 632 OFFCURVE",
"268 614 OFFCURVE",
"268 565 CURVE SMOOTH",
"268 500 OFFCURVE",
"233 468 OFFCURVE",
"162 468 CURVE SMOOTH",
"133 468 OFFCURVE",
"101 471 OFFCURVE",
"66 476 CURVE SMOOTH",
"49 478 LINE",
"53 534 LINE",
"91 529 OFFCURVE",
"126 526 OFFCURVE",
"157 526 CURVE SMOOTH",
"188 526 OFFCURVE",
"203 540 OFFCURVE",
"203 569 CURVE SMOOTH",
"203 597 OFFCURVE",
"187 611 OFFCURVE",
"156 611 CURVE SMOOTH",
"91 611 LINE",
"91 664 LINE",
"156 664 LINE SMOOTH",
"175 664 OFFCURVE",
"194 684 OFFCURVE",
"194 708 CURVE SMOOTH",
"194 731 OFFCURVE",
"179 742 OFFCURVE",
"149 742 CURVE",
"57 735 LINE",
"53 790 LINE",
"92 797 OFFCURVE",
"126 800 OFFCURVE",
"155 800 CURVE SMOOTH"
);
},
{
closed = 1;
nodes = (
"52 28 LINE",
"444 660 LINE",
"484 634 LINE",
"91 3 LINE"
);
},
{
closed = 1;
nodes = (
"429 -100 LINE",
"429 -52 LINE",
"288 -52 LINE",
"288 2 LINE",
"357 212 LINE",
"427 212 LINE",
"354 6 LINE",
"429 6 LINE",
"434 95 LINE",
"492 95 LINE",
"492 6 LINE",
"519 6 LINE",
"519 -52 LINE",
"492 -52 LINE",
"492 -100 LINE"
);
}
);
width = 550;
}
);
rightKerningGroup = numbersign;
unicode = 00BE;
},
{
glyphname = questiondown;
layers = (
{
layerId = "7BE58B69-D6A5-4645-9194-9194354D517E";
name = Regular;
paths = (
{
closed = 1;
nodes = (
"38 46 OFFCURVE",
"55 76 OFFCURVE",
"127 136 CURVE SMOOTH",
"198 195 OFFCURVE",
"220 222 OFFCURVE",
"220 265 CURVE SMOOTH",
"220 300 LINE",
"283 300 LINE",
"292 282 OFFCURVE",
"296 262 OFFCURVE",
"296 239 CURVE SMOOTH",
"296 194 OFFCURVE",
"267 161 OFFCURVE",
"199 102 CURVE SMOOTH",
"131 43 OFFCURVE",
"114 22 OFFCURVE",
"114 -40 CURVE SMOOTH",
"114 -102 OFFCURVE",
"155 -133 OFFCURVE",
"247 -133 CURVE SMOOTH",
"282 -133 OFFCURVE",
"325 -127 OFFCURVE",
"376 -116 CURVE SMOOTH",
"402 -110 LINE",
"407 -171 LINE",
"340 -191 OFFCURVE",
"284 -201 OFFCURVE",
"240 -201 CURVE SMOOTH",
"103 -201 OFFCURVE",
"38 -154 OFFCURVE",
"38 -41 CURVE SMOOTH"
);
},
{
closed = 1;
nodes = (
"294 500 LINE",
"294 388 LINE",
"212 388 LINE",
"212 500 LINE"
);
}
);
width = 441;
}
);
rightKerningGroup = numbersign;
unicode = 00BF;
},
{
glyphname = Agrave;
layers = (
{
layerId = "7BE58B69-D6A5-4645-9194-9194354D517E";
name = Regular;
paths = (
{
closed = 1;
nodes = (
"24 0 LINE",
"214 692 LINE",
"382 692 LINE",
"572 0 LINE",
"496 0 LINE",
"446 178 LINE",
"150 178 LINE",
"100 0 LINE"
);
},
{
closed = 1;
nodes = (
"272 626 LINE",
"167 247 LINE",
"429 247 LINE",
"324 626 LINE"
);
},
{
closed = 1;
nodes = (
"189 931 LINE",
"405 831 LINE",
"382 778 LINE",
"163 865 LINE"
);
}
);
width = 596;
}
);
leftKerningGroup = A;
rightKerningGroup = numbersign;
unicode = 00C0;
},
{
glyphname = Aacute;
layers = (
{
layerId = "7BE58B69-D6A5-4645-9194-9194354D517E";
name = Regular;
paths = (
{
closed = 1;
nodes = (
"24 0 LINE",
"214 692 LINE",
"382 692 LINE",
"572 0 LINE",
"496 0 LINE",
"446 178 LINE",
"150 178 LINE",
"100 0 LINE"
);
},
{
closed = 1;
nodes = (
"272 626 LINE",
"167 247 LINE",
"429 247 LINE",
"324 626 LINE"
);
},
{
closed = 1;
nodes = (
"186 831 LINE",
"402 931 LINE",
"428 865 LINE",
"209 778 LINE"
);
}
);
width = 596;
}
);
leftKerningGroup = A;
rightKerningGroup = numbersign;
unicode = 00C1;
},
{
glyphname = Acircumflex;
layers = (
{
layerId = "7BE58B69-D6A5-4645-9194-9194354D517E";
name = Regular;
paths = (
{
closed = 1;
nodes = (
"24 0 LINE",
"214 692 LINE",
"382 692 LINE",
"572 0 LINE",
"496 0 LINE",
"446 178 LINE",
"150 178 LINE",
"100 0 LINE"
);
},
{
closed = 1;
nodes = (
"272 626 LINE",
"167 247 LINE",
"429 247 LINE",
"324 626 LINE"
);
},
{
closed = 1;
nodes = (
"130 791 LINE",
"264 926 LINE",
"329 926 LINE",
"463 791 LINE",
"379 791 LINE",
"297 871 LINE",
"214 791 LINE"
);
}
);
width = 596;
}
);
leftKerningGroup = A;
rightKerningGroup = numbersign;
unicode = 00C2;
},
{
glyphname = Atilde;
layers = (
{
layerId = "7BE58B69-D6A5-4645-9194-9194354D517E";
name = Regular;
paths = (
{
closed = 1;
nodes = (
"24 0 LINE",
"214 692 LINE",
"382 692 LINE",
"572 0 LINE",
"496 0 LINE",
"446 178 LINE",
"150 178 LINE",
"100 0 LINE"
);
},
{
closed = 1;
nodes = (
"272 626 LINE",
"167 247 LINE",
"429 247 LINE",
"324 626 LINE"
);
},
{
closed = 1;
nodes = (
"360 803 OFFCURVE",
"332 812 OFFCURVE",
"291 830 CURVE SMOOTH",
"250 848 OFFCURVE",
"225 857 OFFCURVE",
"216 857 CURVE SMOOTH",
"201 857 OFFCURVE",
"181 845 OFFCURVE",
"155 821 CURVE SMOOTH",
"142 809 LINE",
"125 865 LINE",
"150 894 OFFCURVE",
"188 923 OFFCURVE",
"219 923 CURVE SMOOTH",
"234 923 OFFCURVE",
"262 914 OFFCURVE",
"303 896 CURVE SMOOTH",
"344 878 OFFCURVE",
"367 869 OFFCURVE",
"374 869 CURVE SMOOTH",
"387 869 OFFCURVE",
"407 881 OFFCURVE",
"432 904 CURVE SMOOTH",
"444 915 LINE",
"462 859 LINE",
"431 822 OFFCURVE",
"401 803 OFFCURVE",
"374 803 CURVE SMOOTH"
);
}
);
width = 596;
}
);
leftKerningGroup = A;
rightKerningGroup = numbersign;
unicode = 00C3;
},
{
glyphname = Adieresis;
layers = (
{
layerId = "7BE58B69-D6A5-4645-9194-9194354D517E";
name = Regular;
paths = (
{
closed = 1;
nodes = (
"24 0 LINE",
"214 692 LINE",
"382 692 LINE",
"572 0 LINE",
"496 0 LINE",
"446 178 LINE",
"150 178 LINE",
"100 0 LINE"
);
},
{
closed = 1;
nodes = (
"272 626 LINE",
"167 247 LINE",
"429 247 LINE",
"324 626 LINE"
);
},
{
closed = 1;
nodes = (
"159 808 LINE",
"159 898 LINE",
"232 898 LINE",
"232 808 LINE"
);
},
{
closed = 1;
nodes = (
"363 808 LINE",
"363 898 LINE",
"435 898 LINE",
"435 808 LINE"
);
}
);
width = 596;
}
);
leftKerningGroup = A;
rightKerningGroup = numbersign;
unicode = 00C4;
},
{
glyphname = Aring;
layers = (
{
layerId = "7BE58B69-D6A5-4645-9194-9194354D517E";
name = Regular;
paths = (
{
closed = 1;
nodes = (
"366 849 OFFCURVE",
"415 808 OFFCURVE",
"415 747 CURVE SMOOTH",
"415 716 OFFCURVE",
"406 691 OFFCURVE",
"387 671 CURVE",
"572 0 LINE",
"496 0 LINE",
"446 178 LINE",
"150 178 LINE",
"100 0 LINE",
"24 0 LINE",
"208 669 LINE",
"188 688 OFFCURVE",
"178 713 OFFCURVE",
"178 745 CURVE SMOOTH",
"178 809 OFFCURVE",
"228 849 OFFCURVE",
"297 849 CURVE SMOOTH"
);
},
{
closed = 1;
nodes = (
"272 626 LINE",
"167 247 LINE",
"429 247 LINE",
"324 626 LINE"
);
},
{
closed = 1;
nodes = (
"235 715 OFFCURVE",
"249 697 OFFCURVE",
"278 692 CURVE",
"315 692 LINE",
"344 697 OFFCURVE",
"359 715 OFFCURVE",
"359 744 CURVE SMOOTH",
"359 777 OFFCURVE",
"336 797 OFFCURVE",
"297 797 CURVE SMOOTH",
"256 797 OFFCURVE",
"235 779 OFFCURVE",
"235 744 CURVE SMOOTH"
);
}
);
width = 596;
}
);
leftKerningGroup = A;
rightKerningGroup = numbersign;
unicode = 00C5;
},
{
glyphname = AE;
layers = (
{
layerId = "7BE58B69-D6A5-4645-9194-9194354D517E";
name = Regular;
paths = (
{
closed = 1;
nodes = (
"408 0 LINE",
"408 175 LINE",
"157 175 LINE",
"99 0 LINE",
"20 0 LINE",
"244 696 LINE",
"829 696 LINE",
"829 623 LINE",
"484 623 LINE",
"484 393 LINE",
"769 393 LINE",
"769 320 LINE",
"484 320 LINE",
"484 73 LINE",
"829 73 LINE",
"829 0 LINE"
);
},
{
closed = 1;
nodes = (
"300 623 LINE",
"178 249 LINE",
"408 249 LINE",
"409 623 LINE"
);
}
);
width = 876;
}
);
rightKerningGroup = E;
unicode = 00C6;
},
{
glyphname = Ccedilla;
layers = (
{
layerId = "7BE58B69-D6A5-4645-9194-9194354D517E";
name = Regular;
paths = (
{
closed = 1;
nodes = (
"433 -187 OFFCURVE",
"402 -217 OFFCURVE",
"340 -217 CURVE SMOOTH",
"309 -217 OFFCURVE",
"285 -215 OFFCURVE",
"266 -212 CURVE SMOOTH",
"254 -210 LINE",
"257 -162 LINE",
"283 -164 OFFCURVE",
"305 -165 OFFCURVE",
"323 -165 CURVE SMOOTH",
"352 -165 OFFCURVE",
"367 -152 OFFCURVE",
"367 -127 CURVE SMOOTH",
"367 -104 OFFCURVE",
"352 -93 OFFCURVE",
"323 -93 CURVE SMOOTH",
"281 -93 LINE",
"281 -9 LINE",
"109 3 OFFCURVE",
"59 111 OFFCURVE",
"59 344 CURVE SMOOTH",
"59 468 OFFCURVE",
"71 546 OFFCURVE",
"108 610 CURVE SMOOTH",
"144 674 OFFCURVE",
"208 702 OFFCURVE",
"315 702 CURVE SMOOTH",
"368 702 OFFCURVE",
"431 695 OFFCURVE",
"503 680 CURVE",
"500 615 LINE",
"433 627 OFFCURVE",
"373 633 OFFCURVE",
"320 633 CURVE SMOOTH",
"173 633 OFFCURVE",
"139 555 OFFCURVE",
"139 344 CURVE SMOOTH",
"139 239 OFFCURVE",
"146 182 OFFCURVE",
"171 131 CURVE SMOOTH",
"196 79 OFFCURVE",
"240 59 OFFCURVE",
"334 59 CURVE SMOOTH",
"381 59 OFFCURVE",
"436 65 OFFCURVE",
"500 77 CURVE",
"503 11 LINE",
"442 -2 OFFCURVE",
"381 -9 OFFCURVE",
"322 -10 CURVE",
"322 -49 LINE",
"401 -49 OFFCURVE",
"433 -66 OFFCURVE",
"433 -127 CURVE SMOOTH"
);
}
);
width = 544;
}
);
leftKerningGroup = C;
rightKerningGroup = C;
unicode = 00C7;
},
{
glyphname = Egrave;
layers = (
{
layerId = "7BE58B69-D6A5-4645-9194-9194354D517E";
name = Regular;
paths = (
{
closed = 1;
nodes = (
"85 0 LINE",
"85 692 LINE",
"506 692 LINE",
"506 624 LINE",
"162 624 LINE",
"162 385 LINE",
"446 385 LINE",
"446 318 LINE",
"162 318 LINE",
"162 68 LINE",
"506 68 LINE",
"506 0 LINE"
);
},
{
closed = 1;
nodes = (
"195 931 LINE",
"411 831 LINE",
"388 778 LINE",
"169 865 LINE"
);
}
);
width = 553;
}
);
leftKerningGroup = B;
rightKerningGroup = E;
unicode = 00C8;
},
{
glyphname = Eacute;
layers = (
{
layerId = "7BE58B69-D6A5-4645-9194-9194354D517E";
name = Regular;
paths = (
{
closed = 1;
nodes = (
"85 0 LINE",
"85 692 LINE",
"506 692 LINE",
"506 624 LINE",
"162 624 LINE",
"162 385 LINE",
"446 385 LINE",
"446 318 LINE",
"162 318 LINE",
"162 68 LINE",
"506 68 LINE",
"506 0 LINE"
);
},
{
closed = 1;
nodes = (
"176 831 LINE",
"392 931 LINE",
"418 865 LINE",
"199 778 LINE"
);
}
);
width = 553;
}
);
leftKerningGroup = B;
rightKerningGroup = E;
unicode = 00C9;
},
{
glyphname = Ecircumflex;
layers = (
{
layerId = "7BE58B69-D6A5-4645-9194-9194354D517E";
name = Regular;
paths = (
{
closed = 1;
nodes = (
"85 0 LINE",
"85 692 LINE",
"506 692 LINE",
"506 624 LINE",
"162 624 LINE",
"162 385 LINE",
"446 385 LINE",
"446 318 LINE",
"162 318 LINE",
"162 68 LINE",
"506 68 LINE",
"506 0 LINE"
);
},
{
closed = 1;
nodes = (
"127 791 LINE",
"261 926 LINE",
"326 926 LINE",
"460 791 LINE",
"376 791 LINE",
"294 871 LINE",
"211 791 LINE"
);
}
);
width = 553;
}
);
leftKerningGroup = B;
rightKerningGroup = E;
unicode = 00CA;
},
{
glyphname = Edieresis;
layers = (
{
layerId = "7BE58B69-D6A5-4645-9194-9194354D517E";
name = Regular;
paths = (
{
closed = 1;
nodes = (
"85 0 LINE",
"85 692 LINE",
"506 692 LINE",
"506 624 LINE",
"162 624 LINE",
"162 385 LINE",
"446 385 LINE",
"446 318 LINE",
"162 318 LINE",
"162 68 LINE",
"506 68 LINE",
"506 0 LINE"
);
},
{
closed = 1;
nodes = (
"157 808 LINE",
"157 898 LINE",
"230 898 LINE",
"230 808 LINE"
);
},
{
closed = 1;
nodes = (
"361 808 LINE",
"361 898 LINE",
"433 898 LINE",
"433 808 LINE"
);
}
);
width = 553;
}
);
leftKerningGroup = B;
rightKerningGroup = E;
unicode = 00CB;
},
{
glyphname = Igrave;
layers = (
{
layerId = "7BE58B69-D6A5-4645-9194-9194354D517E";
name = Regular;
paths = (
{
closed = 1;
nodes = (
"85 0 LINE",
"85 692 LINE",
"162 692 LINE",
"162 0 LINE"
);
},
{
closed = 1;
nodes = (
"6 931 LINE",
"222 831 LINE",
"199 778 LINE",
"-20 865 LINE"
);
}
);
width = 246;
}
);
leftKerningGroup = B;
rightKerningGroup = H;
unicode = 00CC;
},
{
glyphname = Iacute;
layers = (
{
layerId = "7BE58B69-D6A5-4645-9194-9194354D517E";
name = Regular;
paths = (
{
closed = 1;
nodes = (
"85 0 LINE",
"85 692 LINE",
"162 692 LINE",
"162 0 LINE"
);
},
{
closed = 1;
nodes = (
"13 831 LINE",
"229 931 LINE",
"255 865 LINE",
"36 778 LINE"
);
}
);
width = 246;
}
);
leftKerningGroup = B;
rightKerningGroup = H;
unicode = 00CD;
},
{
glyphname = Icircumflex;
layers = (
{
layerId = "7BE58B69-D6A5-4645-9194-9194354D517E";
name = Regular;
paths = (
{
closed = 1;
nodes = (
"85 0 LINE",
"85 692 LINE",
"162 692 LINE",
"162 0 LINE"
);
},
{
closed = 1;
nodes = (
"-47 791 LINE",
"87 926 LINE",
"152 926 LINE",
"286 791 LINE",
"202 791 LINE",
"120 871 LINE",
"37 791 LINE"
);
}
);
width = 246;
}
);
leftKerningGroup = B;
rightKerningGroup = H;
unicode = 00CE;
},
{
glyphname = Idieresis;
layers = (
{
layerId = "7BE58B69-D6A5-4645-9194-9194354D517E";
name = Regular;
paths = (
{
closed = 1;
nodes = (
"85 0 LINE",
"85 692 LINE",
"162 692 LINE",
"162 0 LINE"
);
},
{
closed = 1;
nodes = (
"-15 808 LINE",
"-15 898 LINE",
"58 898 LINE",
"58 808 LINE"
);
},
{
closed = 1;
nodes = (
"189 808 LINE",
"189 898 LINE",
"261 898 LINE",
"261 808 LINE"
);
}
);
width = 246;
}
);
leftKerningGroup = B;
rightKerningGroup = H;
unicode = 00CF;
},
{
glyphname = Eth;
layers = (
{
layerId = "7BE58B69-D6A5-4645-9194-9194354D517E";
name = Regular;
paths = (
{
closed = 1;
nodes = (
"20 311 LINE",
"20 384 LINE",
"88 384 LINE",
"88 696 LINE",
"335 696 LINE SMOOTH",
"523 696 OFFCURVE",
"591 574 OFFCURVE",
"591 359 CURVE SMOOTH",
"591 184 OFFCURVE",
"547 74 OFFCURVE",
"460 28 CURVE SMOOTH",
"426 9 OFFCURVE",
"384 0 OFFCURVE",
"335 0 CURVE SMOOTH",
"88 0 LINE",
"88 311 LINE"
);
},
{
closed = 1;
nodes = (
"511 488 OFFCURVE",
"481 570 OFFCURVE",
"422 603 CURVE SMOOTH",
"399 616 OFFCURVE",
"370 623 OFFCURVE",
"335 623 CURVE SMOOTH",
"164 623 LINE",
"164 384 LINE",
"322 384 LINE",
"322 311 LINE",
"164 311 LINE",
"164 73 LINE",
"335 73 LINE SMOOTH",
"452 73 OFFCURVE",
"511 168 OFFCURVE",
"511 359 CURVE SMOOTH"
);
}
);
width = 647;
}
);
leftKerningGroup = B;
rightKerningGroup = D;
unicode = 00D0;
},
{
glyphname = Ntilde;
layers = (
{
layerId = "7BE58B69-D6A5-4645-9194-9194354D517E";
name = Regular;
paths = (
{
closed = 1;
nodes = (
"85 0 LINE",
"85 692 LINE",
"229 692 LINE",
"494 68 LINE",
"515 68 LINE",
"515 692 LINE",
"591 692 LINE",
"591 0 LINE",
"450 0 LINE",
"181 624 LINE",
"162 624 LINE",
"162 0 LINE"
);
},
{
closed = 1;
nodes = (
"402 803 OFFCURVE",
"374 812 OFFCURVE",
"333 830 CURVE SMOOTH",
"292 848 OFFCURVE",
"267 857 OFFCURVE",
"258 857 CURVE SMOOTH",
"243 857 OFFCURVE",
"223 845 OFFCURVE",
"197 821 CURVE SMOOTH",
"184 809 LINE",
"167 865 LINE",
"192 894 OFFCURVE",
"230 923 OFFCURVE",
"261 923 CURVE SMOOTH",
"276 923 OFFCURVE",
"304 914 OFFCURVE",
"345 896 CURVE SMOOTH",
"386 878 OFFCURVE",
"409 869 OFFCURVE",
"416 869 CURVE SMOOTH",
"429 869 OFFCURVE",
"449 881 OFFCURVE",
"474 904 CURVE SMOOTH",
"486 915 LINE",
"504 859 LINE",
"473 822 OFFCURVE",
"443 803 OFFCURVE",
"416 803 CURVE SMOOTH"
);
}
);
width = 676;
}
);
leftKerningGroup = B;
rightKerningGroup = H;
unicode = 00D1;
},
{
glyphname = Ograve;
layers = (
{
layerId = "7BE58B69-D6A5-4645-9194-9194354D517E";
name = Regular;
paths = (
{
closed = 1;
nodes = (
"136 140 OFFCURVE",
"178 58 OFFCURVE",
"331 58 CURVE SMOOTH",
"483 58 OFFCURVE",
"524 137 OFFCURVE",
"524 341 CURVE SMOOTH",
"524 545 OFFCURVE",
"480 634 OFFCURVE",
"330 634 CURVE SMOOTH",
"180 634 OFFCURVE",
"136 546 OFFCURVE",
"136 343 CURVE SMOOTH"
);
},
{
closed = 1;
nodes = (
"604 94 OFFCURVE",
"538 -10 OFFCURVE",
"331 -10 CURVE SMOOTH",
"123 -10 OFFCURVE",
"57 99 OFFCURVE",
"57 343 CURVE SMOOTH",
"57 586 OFFCURVE",
"126 702 OFFCURVE",
"330 702 CURVE SMOOTH",
"534 702 OFFCURVE",
"604 588 OFFCURVE",
"604 341 CURVE SMOOTH"
);
},
{
closed = 1;
nodes = (
"227 931 LINE",
"443 831 LINE",
"420 778 LINE",
"201 865 LINE"
);
}
);
width = 660;
}
);
leftKerningGroup = G;
rightKerningGroup = O;
unicode = 00D2;
},
{
glyphname = Oacute;
layers = (
{
layerId = "7BE58B69-D6A5-4645-9194-9194354D517E";
name = Regular;
paths = (
{
closed = 1;
nodes = (
"136 140 OFFCURVE",
"178 58 OFFCURVE",
"331 58 CURVE SMOOTH",
"483 58 OFFCURVE",
"524 137 OFFCURVE",
"524 341 CURVE SMOOTH",
"524 545 OFFCURVE",
"480 634 OFFCURVE",
"330 634 CURVE SMOOTH",
"180 634 OFFCURVE",
"136 546 OFFCURVE",
"136 343 CURVE SMOOTH"
);
},
{
closed = 1;
nodes = (
"604 94 OFFCURVE",
"538 -10 OFFCURVE",
"331 -10 CURVE SMOOTH",
"123 -10 OFFCURVE",
"57 99 OFFCURVE",
"57 343 CURVE SMOOTH",
"57 586 OFFCURVE",
"126 702 OFFCURVE",
"330 702 CURVE SMOOTH",
"534 702 OFFCURVE",
"604 588 OFFCURVE",
"604 341 CURVE SMOOTH"
);
},
{
closed = 1;
nodes = (
"198 831 LINE",
"414 931 LINE",
"440 865 LINE",
"221 778 LINE"
);
}
);
width = 660;
}
);
leftKerningGroup = G;
rightKerningGroup = O;
unicode = 00D3;
},
{
glyphname = Ocircumflex;
layers = (
{
layerId = "7BE58B69-D6A5-4645-9194-9194354D517E";
name = Regular;
paths = (
{
closed = 1;
nodes = (
"136 140 OFFCURVE",
"178 58 OFFCURVE",
"331 58 CURVE SMOOTH",
"483 58 OFFCURVE",
"524 137 OFFCURVE",
"524 341 CURVE SMOOTH",
"524 545 OFFCURVE",
"480 634 OFFCURVE",
"330 634 CURVE SMOOTH",
"180 634 OFFCURVE",
"136 546 OFFCURVE",
"136 343 CURVE SMOOTH"
);
},
{
closed = 1;
nodes = (
"604 94 OFFCURVE",
"538 -10 OFFCURVE",
"331 -10 CURVE SMOOTH",
"123 -10 OFFCURVE",
"57 99 OFFCURVE",
"57 343 CURVE SMOOTH",
"57 586 OFFCURVE",
"126 702 OFFCURVE",
"330 702 CURVE SMOOTH",
"534 702 OFFCURVE",
"604 588 OFFCURVE",
"604 341 CURVE SMOOTH"
);
},
{
closed = 1;
nodes = (
"164 791 LINE",
"298 926 LINE",
"363 926 LINE",
"497 791 LINE",
"413 791 LINE",
"331 871 LINE",
"248 791 LINE"
);
}
);
width = 660;
}
);
leftKerningGroup = G;
rightKerningGroup = O;
unicode = 00D4;
},
{
glyphname = Otilde;
layers = (
{
layerId = "7BE58B69-D6A5-4645-9194-9194354D517E";
name = Regular;
paths = (
{
closed = 1;
nodes = (
"136 140 OFFCURVE",
"178 58 OFFCURVE",
"331 58 CURVE SMOOTH",
"483 58 OFFCURVE",
"524 137 OFFCURVE",
"524 341 CURVE SMOOTH",
"524 545 OFFCURVE",
"480 634 OFFCURVE",
"330 634 CURVE SMOOTH",
"180 634 OFFCURVE",
"136 546 OFFCURVE",
"136 343 CURVE SMOOTH"
);
},
{
closed = 1;
nodes = (
"604 94 OFFCURVE",
"538 -10 OFFCURVE",
"331 -10 CURVE SMOOTH",
"123 -10 OFFCURVE",
"57 99 OFFCURVE",
"57 343 CURVE SMOOTH",
"57 586 OFFCURVE",
"126 702 OFFCURVE",
"330 702 CURVE SMOOTH",
"534 702 OFFCURVE",
"604 588 OFFCURVE",
"604 341 CURVE SMOOTH"
);
},
{
closed = 1;
nodes = (
"394 803 OFFCURVE",
"366 812 OFFCURVE",
"325 830 CURVE SMOOTH",
"284 848 OFFCURVE",
"259 857 OFFCURVE",
"250 857 CURVE SMOOTH",
"235 857 OFFCURVE",
"215 845 OFFCURVE",
"189 821 CURVE SMOOTH",
"176 809 LINE",
"159 865 LINE",
"184 894 OFFCURVE",
"222 923 OFFCURVE",
"253 923 CURVE SMOOTH",
"268 923 OFFCURVE",
"296 914 OFFCURVE",
"337 896 CURVE SMOOTH",
"378 878 OFFCURVE",
"401 869 OFFCURVE",
"408 869 CURVE SMOOTH",
"421 869 OFFCURVE",
"441 881 OFFCURVE",
"466 904 CURVE SMOOTH",
"478 915 LINE",
"496 859 LINE",
"465 822 OFFCURVE",
"435 803 OFFCURVE",
"408 803 CURVE SMOOTH"
);
}
);
width = 660;
}
);
leftKerningGroup = G;
rightKerningGroup = O;
unicode = 00D5;
},
{
glyphname = Odieresis;
layers = (
{
layerId = "7BE58B69-D6A5-4645-9194-9194354D517E";
name = Regular;
paths = (
{
closed = 1;
nodes = (
"136 140 OFFCURVE",
"178 58 OFFCURVE",
"331 58 CURVE SMOOTH",
"483 58 OFFCURVE",
"524 137 OFFCURVE",
"524 341 CURVE SMOOTH",
"524 545 OFFCURVE",
"480 634 OFFCURVE",
"330 634 CURVE SMOOTH",
"180 634 OFFCURVE",
"136 546 OFFCURVE",
"136 343 CURVE SMOOTH"
);
},
{
closed = 1;
nodes = (
"604 94 OFFCURVE",
"538 -10 OFFCURVE",
"331 -10 CURVE SMOOTH",
"123 -10 OFFCURVE",
"57 99 OFFCURVE",
"57 343 CURVE SMOOTH",
"57 586 OFFCURVE",
"126 702 OFFCURVE",
"330 702 CURVE SMOOTH",
"534 702 OFFCURVE",
"604 588 OFFCURVE",
"604 341 CURVE SMOOTH"
);
},
{
closed = 1;
nodes = (
"192 808 LINE",
"192 898 LINE",
"265 898 LINE",
"265 808 LINE"
);
},
{
closed = 1;
nodes = (
"396 808 LINE",
"396 898 LINE",
"468 898 LINE",
"468 808 LINE"
);
}
);
width = 660;
}
);
leftKerningGroup = G;
rightKerningGroup = O;
unicode = 00D6;
},
{
glyphname = multiply;
layers = (
{
layerId = "7BE58B69-D6A5-4645-9194-9194354D517E";
name = Regular;
paths = (
{
closed = 1;
nodes = (
"120 459 LINE",
"280 297 LINE",
"441 460 LINE",
"489 412 LINE",
"326 251 LINE",
"489 90 LINE",
"441 42 LINE",
"280 204 LINE",
"119 42 LINE",
"71 90 LINE",
"233 251 LINE",
"71 411 LINE"
);
}
);
width = 560;
}
);
rightKerningGroup = numbersign;
unicode = 00D7;
},
{
glyphname = Oslash;
layers = (
{
layerId = "7BE58B69-D6A5-4645-9194-9194354D517E";
name = Regular;
paths = (
{
closed = 1;
nodes = (
"284 -10 OFFCURVE",
"244 -4 OFFCURVE",
"210 7 CURVE",
"153 -116 LINE",
"96 -90 LINE",
"155 36 LINE",
"84 89 OFFCURVE",
"57 187 OFFCURVE",
"57 343 CURVE SMOOTH",
"57 586 OFFCURVE",
"126 702 OFFCURVE",
"330 702 CURVE SMOOTH",
"380 702 OFFCURVE",
"422 695 OFFCURVE",
"456 681 CURVE",
"512 799 LINE",
"570 775 LINE",
"511 648 LINE",
"573 596 OFFCURVE",
"604 494 OFFCURVE",
"604 343 CURVE SMOOTH",
"604 94 OFFCURVE",
"538 -10 OFFCURVE",
"330 -10 CURVE SMOOTH"
);
},
{
closed = 1;
nodes = (
"179 634 OFFCURVE",
"136 550 OFFCURVE",
"136 331 CURVE SMOOTH",
"136 221 OFFCURVE",
"153 147 OFFCURVE",
"188 108 CURVE",
"426 615 LINE",
"401 628 OFFCURVE",
"369 634 OFFCURVE",
"330 634 CURVE SMOOTH"
);
},
{
closed = 1;
nodes = (
"483 58 OFFCURVE",
"524 134 OFFCURVE",
"524 349 CURVE SMOOTH",
"524 456 OFFCURVE",
"508 531 OFFCURVE",
"476 574 CURVE",
"241 72 LINE",
"264 63 OFFCURVE",
"293 58 OFFCURVE",
"330 58 CURVE SMOOTH"
);
}
);
width = 660;
}
);
leftKerningGroup = G;
rightKerningGroup = O;
unicode = 00D8;
},
{
glyphname = Ugrave;
layers = (
{
layerId = "7BE58B69-D6A5-4645-9194-9194354D517E";
name = Regular;
paths = (
{
closed = 1;
nodes = (
"157 208 LINE SMOOTH",
"157 108 OFFCURVE",
"211 58 OFFCURVE",
"319 58 CURVE SMOOTH",
"431 58 OFFCURVE",
"488 103 OFFCURVE",
"488 208 CURVE SMOOTH",
"488 692 LINE",
"564 692 LINE",
"564 210 LINE SMOOTH",
"564 55 OFFCURVE",
"481 -10 OFFCURVE",
"321 -10 CURVE SMOOTH",
"161 -10 OFFCURVE",
"80 55 OFFCURVE",
"80 210 CURVE SMOOTH",
"80 692 LINE",
"157 692 LINE"
);
},
{
closed = 1;
nodes = (
"222 931 LINE",
"438 831 LINE",
"415 778 LINE",
"196 865 LINE"
);
}
);
width = 644;
}
);
leftKerningGroup = U;
rightKerningGroup = U;
unicode = 00D9;
},
{
glyphname = Uacute;
layers = (
{
layerId = "7BE58B69-D6A5-4645-9194-9194354D517E";
name = Regular;
paths = (
{
closed = 1;
nodes = (
"157 208 LINE SMOOTH",
"157 108 OFFCURVE",
"211 58 OFFCURVE",
"319 58 CURVE SMOOTH",
"431 58 OFFCURVE",
"488 103 OFFCURVE",
"488 208 CURVE SMOOTH",
"488 692 LINE",
"564 692 LINE",
"564 210 LINE SMOOTH",
"564 55 OFFCURVE",
"481 -10 OFFCURVE",
"321 -10 CURVE SMOOTH",
"161 -10 OFFCURVE",
"80 55 OFFCURVE",
"80 210 CURVE SMOOTH",
"80 692 LINE",
"157 692 LINE"
);
},
{
closed = 1;
nodes = (
"199 831 LINE",
"415 931 LINE",
"441 865 LINE",
"222 778 LINE"
);
}
);
width = 644;
}
);
leftKerningGroup = U;
rightKerningGroup = U;
unicode = 00DA;
},
{
glyphname = Ucircumflex;
layers = (
{
layerId = "7BE58B69-D6A5-4645-9194-9194354D517E";
name = Regular;
paths = (
{
closed = 1;
nodes = (
"157 208 LINE SMOOTH",
"157 108 OFFCURVE",
"211 58 OFFCURVE",
"319 58 CURVE SMOOTH",
"431 58 OFFCURVE",
"488 103 OFFCURVE",
"488 208 CURVE SMOOTH",
"488 692 LINE",
"564 692 LINE",
"564 210 LINE SMOOTH",
"564 55 OFFCURVE",
"481 -10 OFFCURVE",
"321 -10 CURVE SMOOTH",
"161 -10 OFFCURVE",
"80 55 OFFCURVE",
"80 210 CURVE SMOOTH",
"80 692 LINE",
"157 692 LINE"
);
},
{
closed = 1;
nodes = (
"155 791 LINE",
"289 926 LINE",
"354 926 LINE",
"488 791 LINE",
"404 791 LINE",
"322 871 LINE",
"239 791 LINE"
);
}
);
width = 644;
}
);
leftKerningGroup = U;
rightKerningGroup = U;
unicode = 00DB;
},
{
glyphname = Udieresis;
layers = (
{
layerId = "7BE58B69-D6A5-4645-9194-9194354D517E";
name = Regular;
paths = (
{
closed = 1;
nodes = (
"157 208 LINE SMOOTH",
"157 108 OFFCURVE",
"211 58 OFFCURVE",
"319 58 CURVE SMOOTH",
"431 58 OFFCURVE",
"488 103 OFFCURVE",
"488 208 CURVE SMOOTH",
"488 692 LINE",
"564 692 LINE",
"564 210 LINE SMOOTH",
"564 55 OFFCURVE",
"481 -10 OFFCURVE",
"321 -10 CURVE SMOOTH",
"161 -10 OFFCURVE",
"80 55 OFFCURVE",
"80 210 CURVE SMOOTH",
"80 692 LINE",
"157 692 LINE"
);
},
{
closed = 1;
nodes = (
"184 808 LINE",
"184 898 LINE",
"257 898 LINE",
"257 808 LINE"
);
},
{
closed = 1;
nodes = (
"388 808 LINE",
"388 898 LINE",
"460 898 LINE",
"460 808 LINE"
);
}
);
width = 644;
}
);
leftKerningGroup = U;
rightKerningGroup = U;
unicode = 00DC;
},
{
glyphname = Yacute;
layers = (
{
layerId = "7BE58B69-D6A5-4645-9194-9194354D517E";
name = Regular;
paths = (
{
closed = 1;
nodes = (
"308 0 LINE",
"231 0 LINE",
"231 291 LINE",
"10 692 LINE",
"97 692 LINE",
"269 368 LINE",
"441 692 LINE",
"528 692 LINE",
"308 291 LINE"
);
},
{
closed = 1;
nodes = (
"167 831 LINE",
"383 931 LINE",
"409 865 LINE",
"190 778 LINE"
);
}
);
width = 538;
}
);
leftKerningGroup = Y;
rightKerningGroup = Y;
unicode = 00DD;
},
{
glyphname = Thorn;
layers = (
{
layerId = "7BE58B69-D6A5-4645-9194-9194354D517E";
name = Regular;
paths = (
{
closed = 1;
nodes = (
"337 195 LINE SMOOTH",
"433 195 OFFCURVE",
"481 250 OFFCURVE",
"481 361 CURVE SMOOTH",
"481 465 OFFCURVE",
"437 510 OFFCURVE",
"337 510 CURVE SMOOTH",
"162 510 LINE",
"162 195 LINE"
);
},
{
closed = 1;
nodes = (
"162 121 LINE",
"162 0 LINE",
"85 0 LINE",
"85 696 LINE",
"162 696 LINE",
"162 584 LINE",
"338 584 LINE SMOOTH",
"489 584 OFFCURVE",
"560 512 OFFCURVE",
"560 360 CURVE SMOOTH",
"560 207 OFFCURVE",
"486 121 OFFCURVE",
"338 121 CURVE SMOOTH"
);
}
);
width = 599;
}
);
leftKerningGroup = B;
rightKerningGroup = numbersign;
unicode = 00DE;
},
{
glyphname = germandbls;
layers = (
{
layerId = "7BE58B69-D6A5-4645-9194-9194354D517E";
name = Regular;
paths = (
{
closed = 1;
nodes = (
"147 0 LINE",
"72 0 LINE",
"72 545 LINE SMOOTH",
"72 680 OFFCURVE",
"128 728 OFFCURVE",
"267 728 CURVE SMOOTH",
"406 728 OFFCURVE",
"462 685 OFFCURVE",
"462 584 CURVE SMOOTH",
"462 513 OFFCURVE",
"437 480 OFFCURVE",
"384 457 CURVE SMOOTH",
"357 445 OFFCURVE",
"340 436 OFFCURVE",
"333 430 CURVE",
"325 424 OFFCURVE",
"321 416 OFFCURVE",
"321 406 CURVE SMOOTH",
"321 395 OFFCURVE",
"327 386 OFFCURVE",
"338 377 CURVE SMOOTH",
"349 368 OFFCURVE",
"376 353 OFFCURVE",
"419 332 CURVE SMOOTH",
"506 289 OFFCURVE",
"539 256 OFFCURVE",
"539 177 CURVE SMOOTH",
"539 41 OFFCURVE",
"485 -10 OFFCURVE",
"338 -10 CURVE SMOOTH",
"305 -10 OFFCURVE",
"268 -6 OFFCURVE",
"228 1 CURVE SMOOTH",
"207 5 LINE",
"210 68 LINE",
"267 61 OFFCURVE",
"307 57 OFFCURVE",
"332 57 CURVE SMOOTH",
"428 57 OFFCURVE",
"461 94 OFFCURVE",
"461 159 CURVE SMOOTH",
"461 223 OFFCURVE",
"441 241 OFFCURVE",
"354 282 CURVE SMOOTH",
"267 323 OFFCURVE",
"243 349 OFFCURVE",
"243 399 CURVE SMOOTH",
"243 449 OFFCURVE",
"267 471 OFFCURVE",
"319 494 CURVE SMOOTH",
"371 517 OFFCURVE",
"384 535 OFFCURVE",
"384 587 CURVE SMOOTH",
"384 638 OFFCURVE",
"355 661 OFFCURVE",
"267 661 CURVE SMOOTH",
"178 661 OFFCURVE",
"147 633 OFFCURVE",
"147 536 CURVE SMOOTH"
);
}
);
width = 574;
}
);
leftKerningGroup = h;
rightKerningGroup = numbersign;
unicode = 00DF;
},
{
glyphname = agrave;
layers = (
{
layerId = "7BE58B69-D6A5-4645-9194-9194354D517E";
name = Regular;
paths = (
{
closed = 1;
nodes = (
"425 93 LINE",
"427 68 OFFCURVE",
"446 54 OFFCURVE",
"483 49 CURVE",
"480 -10 LINE",
"427 -10 OFFCURVE",
"388 3 OFFCURVE",
"361 30 CURVE",
"301 3 OFFCURVE",
"241 -10 OFFCURVE",
"181 -10 CURVE SMOOTH",
"89 -10 OFFCURVE",
"40 44 OFFCURVE",
"40 141 CURVE SMOOTH",
"40 238 OFFCURVE",
"88 280 OFFCURVE",
"193 291 CURVE SMOOTH",
"350 306 LINE",
"350 349 LINE SMOOTH",
"350 417 OFFCURVE",
"319 444 OFFCURVE",
"268 444 CURVE SMOOTH",
"215 444 OFFCURVE",
"159 441 OFFCURVE",
"102 434 CURVE SMOOTH",
"71 431 LINE",
"68 488 LINE",
"141 503 OFFCURVE",
"206 510 OFFCURVE",
"263 510 CURVE SMOOTH",
"376 510 OFFCURVE",
"425 460 OFFCURVE",
"425 349 CURVE SMOOTH"
);
},
{
closed = 1;
nodes = (
"117 84 OFFCURVE",
"142 53 OFFCURVE",
"193 53 CURVE SMOOTH",
"238 53 OFFCURVE",
"283 61 OFFCURVE",
"327 76 CURVE SMOOTH",
"350 84 LINE",
"350 249 LINE",
"202 235 LINE SMOOTH",
"142 230 OFFCURVE",
"117 201 OFFCURVE",
"117 145 CURVE SMOOTH"
);
},
{
closed = 1;
nodes = (
"147 740 LINE",
"363 642 LINE",
"342 591 LINE",
"121 676 LINE"
);
}
);
width = 501;
}
);
leftKerningGroup = a;
rightKerningGroup = a;
unicode = 00E0;
},
{
glyphname = aacute;
layers = (
{
layerId = "7BE58B69-D6A5-4645-9194-9194354D517E";
name = Regular;
paths = (
{
closed = 1;
nodes = (
"425 93 LINE",
"427 68 OFFCURVE",
"446 54 OFFCURVE",
"483 49 CURVE",
"480 -10 LINE",
"427 -10 OFFCURVE",
"388 3 OFFCURVE",
"361 30 CURVE",
"301 3 OFFCURVE",
"241 -10 OFFCURVE",
"181 -10 CURVE SMOOTH",
"89 -10 OFFCURVE",
"40 44 OFFCURVE",
"40 141 CURVE SMOOTH",
"40 238 OFFCURVE",
"88 280 OFFCURVE",
"193 291 CURVE SMOOTH",
"350 306 LINE",
"350 349 LINE SMOOTH",
"350 417 OFFCURVE",
"319 444 OFFCURVE",
"268 444 CURVE SMOOTH",
"215 444 OFFCURVE",
"159 441 OFFCURVE",
"102 434 CURVE SMOOTH",
"71 431 LINE",
"68 488 LINE",
"141 503 OFFCURVE",
"206 510 OFFCURVE",
"263 510 CURVE SMOOTH",
"376 510 OFFCURVE",
"425 460 OFFCURVE",
"425 349 CURVE SMOOTH"
);
},
{
closed = 1;
nodes = (
"117 84 OFFCURVE",
"142 53 OFFCURVE",
"193 53 CURVE SMOOTH",
"238 53 OFFCURVE",
"283 61 OFFCURVE",
"327 76 CURVE SMOOTH",
"350 84 LINE",
"350 249 LINE",
"202 235 LINE SMOOTH",
"142 230 OFFCURVE",
"117 201 OFFCURVE",
"117 145 CURVE SMOOTH"
);
},
{
closed = 1;
nodes = (
"118 642 LINE",
"334 740 LINE",
"360 676 LINE",
"139 591 LINE"
);
}
);
width = 501;
}
);
leftKerningGroup = a;
rightKerningGroup = a;
unicode = 00E1;
},
{
glyphname = acircumflex;
layers = (
{
layerId = "7BE58B69-D6A5-4645-9194-9194354D517E";
name = Regular;
paths = (
{
closed = 1;
nodes = (
"425 93 LINE",
"427 68 OFFCURVE",
"446 54 OFFCURVE",
"483 49 CURVE",
"480 -10 LINE",
"427 -10 OFFCURVE",
"388 3 OFFCURVE",
"361 30 CURVE",
"301 3 OFFCURVE",
"241 -10 OFFCURVE",
"181 -10 CURVE SMOOTH",
"89 -10 OFFCURVE",
"40 44 OFFCURVE",
"40 141 CURVE SMOOTH",
"40 238 OFFCURVE",
"88 280 OFFCURVE",
"193 291 CURVE SMOOTH",
"350 306 LINE",
"350 349 LINE SMOOTH",
"350 417 OFFCURVE",
"319 444 OFFCURVE",
"268 444 CURVE SMOOTH",
"215 444 OFFCURVE",
"159 441 OFFCURVE",
"102 434 CURVE SMOOTH",
"71 431 LINE",
"68 488 LINE",
"141 503 OFFCURVE",
"206 510 OFFCURVE",
"263 510 CURVE SMOOTH",
"376 510 OFFCURVE",
"425 460 OFFCURVE",
"425 349 CURVE SMOOTH"
);
},
{
closed = 1;
nodes = (
"117 84 OFFCURVE",
"142 53 OFFCURVE",
"193 53 CURVE SMOOTH",
"238 53 OFFCURVE",
"283 61 OFFCURVE",
"327 76 CURVE SMOOTH",
"350 84 LINE",
"350 249 LINE",
"202 235 LINE SMOOTH",
"142 230 OFFCURVE",
"117 201 OFFCURVE",
"117 145 CURVE SMOOTH"
);
},
{
closed = 1;
nodes = (
"95 592 LINE",
"218 732 LINE",
"269 732 LINE",
"393 592 LINE",
"318 592 LINE",
"245 679 LINE",
"170 592 LINE"
);
}
);
width = 501;
}
);
leftKerningGroup = a;
rightKerningGroup = a;
unicode = 00E2;
},
{
glyphname = atilde;
layers = (
{
layerId = "7BE58B69-D6A5-4645-9194-9194354D517E";
name = Regular;
paths = (
{
closed = 1;
nodes = (
"425 93 LINE",
"427 68 OFFCURVE",
"446 54 OFFCURVE",
"483 49 CURVE",
"480 -10 LINE",
"427 -10 OFFCURVE",
"388 3 OFFCURVE",
"361 30 CURVE",
"301 3 OFFCURVE",
"241 -10 OFFCURVE",
"181 -10 CURVE SMOOTH",
"89 -10 OFFCURVE",
"40 44 OFFCURVE",
"40 141 CURVE SMOOTH",
"40 238 OFFCURVE",
"88 280 OFFCURVE",
"193 291 CURVE SMOOTH",
"350 306 LINE",
"350 349 LINE SMOOTH",
"350 417 OFFCURVE",
"319 444 OFFCURVE",
"268 444 CURVE SMOOTH",
"215 444 OFFCURVE",
"159 441 OFFCURVE",
"102 434 CURVE SMOOTH",
"71 431 LINE",
"68 488 LINE",
"141 503 OFFCURVE",
"206 510 OFFCURVE",
"263 510 CURVE SMOOTH",
"376 510 OFFCURVE",
"425 460 OFFCURVE",
"425 349 CURVE SMOOTH"
);
},
{
closed = 1;
nodes = (
"117 84 OFFCURVE",
"142 53 OFFCURVE",
"193 53 CURVE SMOOTH",
"238 53 OFFCURVE",
"283 61 OFFCURVE",
"327 76 CURVE SMOOTH",
"350 84 LINE",
"350 249 LINE",
"202 235 LINE SMOOTH",
"142 230 OFFCURVE",
"117 201 OFFCURVE",
"117 145 CURVE SMOOTH"
);
},
{
closed = 1;
nodes = (
"293 612 OFFCURVE",
"269 620 OFFCURVE",
"235 636 CURVE",
"200 651 OFFCURVE",
"179 659 OFFCURVE",
"170 659 CURVE SMOOTH",
"155 659 OFFCURVE",
"134 649 OFFCURVE",
"108 629 CURVE SMOOTH",
"95 619 LINE",
"77 667 LINE",
"110 702 OFFCURVE",
"141 719 OFFCURVE",
"168 719 CURVE SMOOTH",
"182 719 OFFCURVE",
"206 711 OFFCURVE",
"241 696 CURVE SMOOTH",
"276 681 OFFCURVE",
"297 673 OFFCURVE",
"304 673 CURVE SMOOTH",
"319 673 OFFCURVE",
"339 683 OFFCURVE",
"364 702 CURVE SMOOTH",
"376 711 LINE",
"393 663 LINE",
"362 629 OFFCURVE",
"334 612 OFFCURVE",
"307 612 CURVE SMOOTH"
);
}
);
width = 501;
}
);
leftKerningGroup = a;
rightKerningGroup = a;
unicode = 00E3;
},
{
glyphname = adieresis;
layers = (
{
layerId = "7BE58B69-D6A5-4645-9194-9194354D517E";
name = Regular;
paths = (
{
closed = 1;
nodes = (
"425 93 LINE",
"427 68 OFFCURVE",
"446 54 OFFCURVE",
"483 49 CURVE",
"480 -10 LINE",
"427 -10 OFFCURVE",
"388 3 OFFCURVE",
"361 30 CURVE",
"301 3 OFFCURVE",
"241 -10 OFFCURVE",
"181 -10 CURVE SMOOTH",
"89 -10 OFFCURVE",
"40 44 OFFCURVE",
"40 141 CURVE SMOOTH",
"40 238 OFFCURVE",
"88 280 OFFCURVE",
"193 291 CURVE SMOOTH",
"350 306 LINE",
"350 349 LINE SMOOTH",
"350 417 OFFCURVE",
"319 444 OFFCURVE",
"268 444 CURVE SMOOTH",
"215 444 OFFCURVE",
"159 441 OFFCURVE",
"102 434 CURVE SMOOTH",
"71 431 LINE",
"68 488 LINE",
"141 503 OFFCURVE",
"206 510 OFFCURVE",
"263 510 CURVE SMOOTH",
"376 510 OFFCURVE",
"425 460 OFFCURVE",
"425 349 CURVE SMOOTH"
);
},
{
closed = 1;
nodes = (
"117 84 OFFCURVE",
"142 53 OFFCURVE",
"193 53 CURVE SMOOTH",
"238 53 OFFCURVE",
"283 61 OFFCURVE",
"327 76 CURVE SMOOTH",
"350 84 LINE",
"350 249 LINE",
"202 235 LINE SMOOTH",
"142 230 OFFCURVE",
"117 201 OFFCURVE",
"117 145 CURVE SMOOTH"
);
},
{
closed = 1;
nodes = (
"105 621 LINE",
"105 711 LINE",
"177 711 LINE",
"177 621 LINE"
);
},
{
closed = 1;
nodes = (
"305 621 LINE",
"305 711 LINE",
"378 711 LINE",
"378 621 LINE"
);
}
);
width = 501;
}
);
leftKerningGroup = a;
rightKerningGroup = a;
unicode = 00E4;
},
{
glyphname = aring;
layers = (
{
layerId = "7BE58B69-D6A5-4645-9194-9194354D517E";
name = Regular;
paths = (
{
closed = 1;
nodes = (
"425 93 LINE",
"427 68 OFFCURVE",
"446 54 OFFCURVE",
"483 49 CURVE",
"480 -10 LINE",
"427 -10 OFFCURVE",
"388 3 OFFCURVE",
"361 30 CURVE",
"301 3 OFFCURVE",
"241 -10 OFFCURVE",
"181 -10 CURVE SMOOTH",
"89 -10 OFFCURVE",
"40 44 OFFCURVE",
"40 141 CURVE SMOOTH",
"40 238 OFFCURVE",
"88 280 OFFCURVE",
"193 291 CURVE SMOOTH",
"350 306 LINE",
"350 349 LINE SMOOTH",
"350 417 OFFCURVE",
"319 444 OFFCURVE",
"268 444 CURVE SMOOTH",
"215 444 OFFCURVE",
"159 441 OFFCURVE",
"102 434 CURVE SMOOTH",
"71 431 LINE",
"68 488 LINE",
"141 503 OFFCURVE",
"206 510 OFFCURVE",
"263 510 CURVE SMOOTH",
"376 510 OFFCURVE",
"425 460 OFFCURVE",
"425 349 CURVE SMOOTH"
);
},
{
closed = 1;
nodes = (
"117 84 OFFCURVE",
"142 53 OFFCURVE",
"193 53 CURVE SMOOTH",
"238 53 OFFCURVE",
"283 61 OFFCURVE",
"327 76 CURVE SMOOTH",
"350 84 LINE",
"350 249 LINE",
"202 235 LINE SMOOTH",
"142 230 OFFCURVE",
"117 201 OFFCURVE",
"117 145 CURVE SMOOTH"
);
},
{
closed = 1;
nodes = (
"161 591 OFFCURVE",
"151 616 OFFCURVE",
"151 645 CURVE SMOOTH",
"151 704 OFFCURVE",
"197 749 OFFCURVE",
"255 749 CURVE SMOOTH",
"313 749 OFFCURVE",
"358 704 OFFCURVE",
"358 645 CURVE SMOOTH",
"358 586 OFFCURVE",
"314 541 OFFCURVE",
"255 541 CURVE SMOOTH",
"226 541 OFFCURVE",
"201 551 OFFCURVE",
"181 571 CURVE SMOOTH"
);
},
{
closed = 1;
nodes = (
"224 701 OFFCURVE",
"200 676 OFFCURVE",
"200 645 CURVE SMOOTH",
"200 613 OFFCURVE",
"224 588 OFFCURVE",
"255 588 CURVE SMOOTH",
"286 588 OFFCURVE",
"310 613 OFFCURVE",
"310 645 CURVE SMOOTH",
"310 676 OFFCURVE",
"286 701 OFFCURVE",
"255 701 CURVE SMOOTH"
);
}
);
width = 501;
}
);
leftKerningGroup = a;
rightKerningGroup = a;
unicode = 00E5;
},
{
glyphname = ae;
layers = (
{
layerId = "7BE58B69-D6A5-4645-9194-9194354D517E";
name = Regular;
paths = (
{
closed = 1;
nodes = (
"739 67 LINE",
"741 6 LINE",
"666 -5 OFFCURVE",
"598 -10 OFFCURVE",
"538 -10 CURVE SMOOTH",
"478 -10 OFFCURVE",
"432 8 OFFCURVE",
"400 44 CURVE",
"368 30 LINE SMOOTH",
"310 3 OFFCURVE",
"246 -10 OFFCURVE",
"176 -10 CURVE SMOOTH",
"87 -10 OFFCURVE",
"40 43 OFFCURVE",
"40 146 CURVE SMOOTH",
"40 249 OFFCURVE",
"89 281 OFFCURVE",
"221 294 CURVE SMOOTH",
"350 306 LINE",
"350 347 LINE SMOOTH",
"350 408 OFFCURVE",
"321 438 OFFCURVE",
"263 438 CURVE SMOOTH",
"219 438 OFFCURVE",
"166 435 OFFCURVE",
"104 430 CURVE SMOOTH",
"73 428 LINE",
"70 495 LINE",
"149 505 OFFCURVE",
"215 510 OFFCURVE",
"267 510 CURVE SMOOTH",
"335 510 OFFCURVE",
"380 486 OFFCURVE",
"402 437 CURVE",
"434 486 OFFCURVE",
"485 510 OFFCURVE",
"555 510 CURVE SMOOTH",
"694 510 OFFCURVE",
"759 437 OFFCURVE",
"759 276 CURVE",
"755 218 LINE",
"425 218 LINE",
"425 109 OFFCURVE",
"465 58 OFFCURVE",
"547 58 CURVE SMOOTH",
"588 58 OFFCURVE",
"642 60 OFFCURVE",
"710 65 CURVE SMOOTH"
);
},
{
closed = 1;
nodes = (
"249 55 OFFCURVE",
"347 81 OFFCURVE",
"367 92 CURVE",
"354 126 OFFCURVE",
"348 177 OFFCURVE",
"348 245 CURVE",
"202 233 LINE SMOOTH",
"143 228 OFFCURVE",
"117 201 OFFCURVE",
"117 145 CURVE SMOOTH",
"117 85 OFFCURVE",
"141 55 OFFCURVE",
"188 55 CURVE SMOOTH"
);
},
{
closed = 1;
nodes = (
"684 279 LINE",
"684 398 OFFCURVE",
"647 443 OFFCURVE",
"559 443 CURVE SMOOTH",
"470 443 OFFCURVE",
"425 394 OFFCURVE",
"425 279 CURVE"
);
}
);
width = 804;
}
);
leftKerningGroup = a;
rightKerningGroup = e;
unicode = 00E6;
},
{
glyphname = ccedilla;
layers = (
{
layerId = "7BE58B69-D6A5-4645-9194-9194354D517E";
name = Regular;
paths = (
{
closed = 1;
nodes = (
"360 -187 OFFCURVE",
"329 -217 OFFCURVE",
"267 -217 CURVE SMOOTH",
"236 -217 OFFCURVE",
"211 -215 OFFCURVE",
"192 -212 CURVE SMOOTH",
"181 -210 LINE",
"184 -162 LINE",
"210 -164 OFFCURVE",
"232 -165 OFFCURVE",
"250 -165 CURVE SMOOTH",
"279 -165 OFFCURVE",
"294 -152 OFFCURVE",
"294 -127 CURVE SMOOTH",
"294 -104 OFFCURVE",
"279 -93 OFFCURVE",
"250 -93 CURVE SMOOTH",
"208 -93 LINE",
"208 -7 LINE",
"91 6 OFFCURVE",
"51 80 OFFCURVE",
"51 260 CURVE SMOOTH",
"51 440 OFFCURVE",
"110 510 OFFCURVE",
"259 510 CURVE SMOOTH",
"281 510 OFFCURVE",
"318 506 OFFCURVE",
"371 498 CURVE SMOOTH",
"395 495 LINE",
"392 434 LINE",
"339 440 OFFCURVE",
"299 443 OFFCURVE",
"274 443 CURVE SMOOTH",
"161 443 OFFCURVE",
"128 399 OFFCURVE",
"128 253 CURVE SMOOTH",
"128 107 OFFCURVE",
"155 57 OFFCURVE",
"275 57 CURVE",
"393 66 LINE",
"396 4 LINE",
"334 -5 OFFCURVE",
"288 -10 OFFCURVE",
"257 -10 CURVE SMOOTH",
"249 -10 LINE",
"249 -49 LINE",
"328 -49 OFFCURVE",
"360 -66 OFFCURVE",
"360 -127 CURVE SMOOTH"
);
}
);
width = 436;
}
);
leftKerningGroup = c;
rightKerningGroup = c;
unicode = 00E7;
},
{
glyphname = egrave;
layers = (
{
layerId = "7BE58B69-D6A5-4645-9194-9194354D517E";
name = Regular;
paths = (
{
closed = 1;
nodes = (
"441 65 LINE",
"443 6 LINE",
"367 -5 OFFCURVE",
"302 -10 OFFCURVE",
"248 -10 CURVE SMOOTH",
"104 -10 OFFCURVE",
"50 71 OFFCURVE",
"50 247 CURVE SMOOTH",
"50 422 OFFCURVE",
"120 510 OFFCURVE",
"259 510 CURVE SMOOTH",
"394 510 OFFCURVE",
"460 437 OFFCURVE",
"460 276 CURVE",
"456 219 LINE",
"126 219 LINE",
"126 108 OFFCURVE",
"161 56 OFFCURVE",
"261 56 CURVE SMOOTH",
"310 56 OFFCURVE",
"361 58 OFFCURVE",
"412 62 CURVE SMOOTH"
);
},
{
closed = 1;
nodes = (
"385 279 LINE",
"385 402 OFFCURVE",
"348 447 OFFCURVE",
"260 447 CURVE SMOOTH",
"171 447 OFFCURVE",
"126 396 OFFCURVE",
"125 279 CURVE"
);
},
{
closed = 1;
nodes = (
"147 741 LINE",
"363 643 LINE",
"342 592 LINE",
"121 677 LINE"
);
}
);
width = 505;
}
);
leftKerningGroup = c;
rightKerningGroup = e;
unicode = 00E8;
},
{
glyphname = eacute;
layers = (
{
layerId = "7BE58B69-D6A5-4645-9194-9194354D517E";
name = Regular;
paths = (
{
closed = 1;
nodes = (
"441 65 LINE",
"443 6 LINE",
"367 -5 OFFCURVE",
"302 -10 OFFCURVE",
"248 -10 CURVE SMOOTH",
"104 -10 OFFCURVE",
"50 71 OFFCURVE",
"50 247 CURVE SMOOTH",
"50 422 OFFCURVE",
"120 510 OFFCURVE",
"259 510 CURVE SMOOTH",
"394 510 OFFCURVE",
"460 437 OFFCURVE",
"460 276 CURVE",
"456 219 LINE",
"126 219 LINE",
"126 108 OFFCURVE",
"161 56 OFFCURVE",
"261 56 CURVE SMOOTH",
"310 56 OFFCURVE",
"361 58 OFFCURVE",
"412 62 CURVE SMOOTH"
);
},
{
closed = 1;
nodes = (
"385 279 LINE",
"385 402 OFFCURVE",
"348 447 OFFCURVE",
"260 447 CURVE SMOOTH",
"171 447 OFFCURVE",
"126 396 OFFCURVE",
"125 279 CURVE"
);
},
{
closed = 1;
nodes = (
"145 642 LINE",
"361 740 LINE",
"387 676 LINE",
"166 591 LINE"
);
}
);
width = 505;
}
);
leftKerningGroup = c;
rightKerningGroup = e;
unicode = 00E9;
},
{
glyphname = ecircumflex;
layers = (
{
layerId = "7BE58B69-D6A5-4645-9194-9194354D517E";
name = Regular;
paths = (
{
closed = 1;
nodes = (
"441 65 LINE",
"443 6 LINE",
"367 -5 OFFCURVE",
"302 -10 OFFCURVE",
"248 -10 CURVE SMOOTH",
"104 -10 OFFCURVE",
"50 71 OFFCURVE",
"50 247 CURVE SMOOTH",
"50 422 OFFCURVE",
"120 510 OFFCURVE",
"259 510 CURVE SMOOTH",
"394 510 OFFCURVE",
"460 437 OFFCURVE",
"460 276 CURVE",
"456 219 LINE",
"126 219 LINE",
"126 108 OFFCURVE",
"161 56 OFFCURVE",
"261 56 CURVE SMOOTH",
"310 56 OFFCURVE",
"361 58 OFFCURVE",
"412 62 CURVE SMOOTH"
);
},
{
closed = 1;
nodes = (
"385 279 LINE",
"385 402 OFFCURVE",
"348 447 OFFCURVE",
"260 447 CURVE SMOOTH",
"171 447 OFFCURVE",
"126 396 OFFCURVE",
"125 279 CURVE"
);
},
{
closed = 1;
nodes = (
"112 592 LINE",
"235 732 LINE",
"286 732 LINE",
"410 592 LINE",
"335 592 LINE",
"262 679 LINE",
"187 592 LINE"
);
}
);
width = 505;
}
);
leftKerningGroup = c;
rightKerningGroup = e;
unicode = 00EA;
},
{
glyphname = edieresis;
layers = (
{
layerId = "7BE58B69-D6A5-4645-9194-9194354D517E";
name = Regular;
paths = (
{
closed = 1;
nodes = (
"441 65 LINE",
"443 6 LINE",
"367 -5 OFFCURVE",
"302 -10 OFFCURVE",
"248 -10 CURVE SMOOTH",
"104 -10 OFFCURVE",
"50 71 OFFCURVE",
"50 247 CURVE SMOOTH",
"50 422 OFFCURVE",
"120 510 OFFCURVE",
"259 510 CURVE SMOOTH",
"394 510 OFFCURVE",
"460 437 OFFCURVE",
"460 276 CURVE",
"456 219 LINE",
"126 219 LINE",
"126 108 OFFCURVE",
"161 56 OFFCURVE",
"261 56 CURVE SMOOTH",
"310 56 OFFCURVE",
"361 58 OFFCURVE",
"412 62 CURVE SMOOTH"
);
},
{
closed = 1;
nodes = (
"385 279 LINE",
"385 402 OFFCURVE",
"348 447 OFFCURVE",
"260 447 CURVE SMOOTH",
"171 447 OFFCURVE",
"126 396 OFFCURVE",
"125 279 CURVE"
);
},
{
closed = 1;
nodes = (
"120 621 LINE",
"120 711 LINE",
"192 711 LINE",
"192 621 LINE"
);
},
{
closed = 1;
nodes = (
"320 621 LINE",
"320 711 LINE",
"393 711 LINE",
"393 621 LINE"
);
}
);
width = 505;
}
);
leftKerningGroup = c;
rightKerningGroup = e;
unicode = 00EB;
},
{
glyphname = igrave;
layers = (
{
layerId = "7BE58B69-D6A5-4645-9194-9194354D517E";
name = Regular;
paths = (
{
closed = 1;
nodes = (
"72 0 LINE",
"72 500 LINE",
"147 500 LINE",
"147 0 LINE"
);
},
{
closed = 1;
nodes = (
"-34 740 LINE",
"182 642 LINE",
"161 591 LINE",
"-60 676 LINE"
);
}
);
width = 219;
}
);
leftKerningGroup = i;
rightKerningGroup = i;
unicode = 00EC;
},
{
glyphname = iacute;
layers = (
{
layerId = "7BE58B69-D6A5-4645-9194-9194354D517E";
name = Regular;
paths = (
{
closed = 1;
nodes = (
"38 642 LINE",
"254 740 LINE",
"280 676 LINE",
"59 591 LINE"
);
},
{
closed = 1;
nodes = (
"72 500 LINE",
"147 500 LINE",
"147 0 LINE",
"72 0 LINE"
);
}
);
width = 219;
}
);
leftKerningGroup = i;
rightKerningGroup = i;
unicode = 00ED;
},
{
glyphname = icircumflex;
layers = (
{
layerId = "7BE58B69-D6A5-4645-9194-9194354D517E";
name = Regular;
paths = (
{
closed = 1;
nodes = (
"72 500 LINE",
"147 500 LINE",
"147 0 LINE",
"72 0 LINE"
);
},
{
closed = 1;
nodes = (
"-42 592 LINE",
"81 732 LINE",
"132 732 LINE",
"256 592 LINE",
"181 592 LINE",
"108 679 LINE",
"33 592 LINE"
);
}
);
width = 219;
}
);
leftKerningGroup = i;
rightKerningGroup = i;
unicode = 00EE;
},
{
glyphname = idieresis;
layers = (
{
layerId = "7BE58B69-D6A5-4645-9194-9194354D517E";
name = Regular;
paths = (
{
closed = 1;
nodes = (
"72 500 LINE",
"147 500 LINE",
"147 0 LINE",
"72 0 LINE"
);
},
{
closed = 1;
nodes = (
"-31 621 LINE",
"-31 711 LINE",
"41 711 LINE",
"41 621 LINE"
);
},
{
closed = 1;
nodes = (
"169 621 LINE",
"169 711 LINE",
"242 711 LINE",
"242 621 LINE"
);
}
);
width = 219;
}
);
leftKerningGroup = i;
rightKerningGroup = i;
unicode = 00EF;
},
{
glyphname = eth;
layers = (
{
layerId = "7BE58B69-D6A5-4645-9194-9194354D517E";
name = Regular;
paths = (
{
closed = 1;
nodes = (
"342 643 LINE",
"445 578 OFFCURVE",
"496 481 OFFCURVE",
"496 352 CURVE SMOOTH",
"496 94 OFFCURVE",
"429 -9 OFFCURVE",
"265 -9 CURVE SMOOTH",
"122 -9 OFFCURVE",
"42 72 OFFCURVE",
"42 210 CURVE SMOOTH",
"42 348 OFFCURVE",
"119 430 OFFCURVE",
"252 430 CURVE SMOOTH",
"295 430 OFFCURVE",
"342 421 OFFCURVE",
"392 403 CURVE SMOOTH",
"417 394 LINE",
"412 481 OFFCURVE",
"367 550 OFFCURVE",
"280 601 CURVE",
"158 520 LINE",
"125 567 LINE",
"220 631 LINE",
"184 646 OFFCURVE",
"143 660 OFFCURVE",
"96 672 CURVE",
"111 728 LINE",
"178 715 OFFCURVE",
"235 697 OFFCURVE",
"284 674 CURVE",
"385 742 LINE",
"419 695 LINE"
);
},
{
closed = 1;
nodes = (
"358 351 OFFCURVE",
"305 363 OFFCURVE",
"260 363 CURVE SMOOTH",
"169 363 OFFCURVE",
"121 303 OFFCURVE",
"121 210 CURVE SMOOTH",
"121 117 OFFCURVE",
"169 59 OFFCURVE",
"271 59 CURVE SMOOTH",
"373 59 OFFCURVE",
"417 127 OFFCURVE",
"418 327 CURVE"
);
}
);
width = 548;
}
);
rightKerningGroup = numbersign;
unicode = 00F0;
},
{
glyphname = ntilde;
layers = (
{
layerId = "7BE58B69-D6A5-4645-9194-9194354D517E";
name = Regular;
paths = (
{
closed = 1;
nodes = (
"72 0 LINE",
"72 500 LINE",
"146 500 LINE",
"146 465 LINE",
"168 476 LINE SMOOTH",
"199 492 OFFCURVE",
"257 510 OFFCURVE",
"301 510 CURVE SMOOTH",
"434 510 OFFCURVE",
"470 448 OFFCURVE",
"470 264 CURVE",
"470 264 OFFCURVE",
"470 176 OFFCURVE",
"470 0 CURVE",
"396 0 LINE",
"396 262 LINE SMOOTH",
"396 401 OFFCURVE",
"378 443 OFFCURVE",
"286 443 CURVE SMOOTH",
"239 443 OFFCURVE",
"193 431 OFFCURVE",
"147 406 CURVE",
"147 0 LINE"
);
},
{
closed = 1;
nodes = (
"335 612 OFFCURVE",
"311 620 OFFCURVE",
"277 636 CURVE",
"242 651 OFFCURVE",
"221 659 OFFCURVE",
"212 659 CURVE SMOOTH",
"197 659 OFFCURVE",
"176 649 OFFCURVE",
"150 629 CURVE SMOOTH",
"137 619 LINE",
"119 667 LINE",
"152 702 OFFCURVE",
"183 719 OFFCURVE",
"210 719 CURVE SMOOTH",
"224 719 OFFCURVE",
"248 711 OFFCURVE",
"283 696 CURVE SMOOTH",
"318 681 OFFCURVE",
"339 673 OFFCURVE",
"346 673 CURVE SMOOTH",
"361 673 OFFCURVE",
"381 683 OFFCURVE",
"406 702 CURVE SMOOTH",
"418 711 LINE",
"435 663 LINE",
"404 629 OFFCURVE",
"376 612 OFFCURVE",
"349 612 CURVE SMOOTH"
);
}
);
width = 537;
}
);
leftKerningGroup = m;
rightKerningGroup = h;
unicode = 00F1;
},
{
glyphname = ograve;
layers = (
{
layerId = "7BE58B69-D6A5-4645-9194-9194354D517E";
name = Regular;
paths = (
{
closed = 1;
nodes = (
"50 434 OFFCURVE",
"109 510 OFFCURVE",
"265 510 CURVE SMOOTH",
"420 510 OFFCURVE",
"478 434 OFFCURVE",
"478 251 CURVE SMOOTH",
"478 68 OFFCURVE",
"427 -10 OFFCURVE",
"264 -10 CURVE SMOOTH",
"101 -10 OFFCURVE",
"50 68 OFFCURVE",
"50 251 CURVE SMOOTH"
);
},
{
closed = 1;
nodes = (
"127 107 OFFCURVE",
"152 55 OFFCURVE",
"265 55 CURVE SMOOTH",
"377 55 OFFCURVE",
"401 105 OFFCURVE",
"401 252 CURVE SMOOTH",
"401 399 OFFCURVE",
"369 445 OFFCURVE",
"265 445 CURVE SMOOTH",
"160 445 OFFCURVE",
"127 399 OFFCURVE",
"127 253 CURVE SMOOTH"
);
},
{
closed = 1;
nodes = (
"167 740 LINE",
"383 642 LINE",
"362 591 LINE",
"141 676 LINE"
);
}
);
width = 528;
}
);
leftKerningGroup = c;
rightKerningGroup = o;
unicode = 00F2;
},
{
glyphname = oacute;
layers = (
{
layerId = "7BE58B69-D6A5-4645-9194-9194354D517E";
name = Regular;
paths = (
{
closed = 1;
nodes = (
"420 510 OFFCURVE",
"478 434 OFFCURVE",
"478 251 CURVE SMOOTH",
"478 68 OFFCURVE",
"427 -10 OFFCURVE",
"264 -10 CURVE SMOOTH",
"101 -10 OFFCURVE",
"50 68 OFFCURVE",
"50 251 CURVE SMOOTH",
"50 434 OFFCURVE",
"109 510 OFFCURVE",
"265 510 CURVE SMOOTH"
);
},
{
closed = 1;
nodes = (
"377 55 OFFCURVE",
"401 105 OFFCURVE",
"401 252 CURVE SMOOTH",
"401 399 OFFCURVE",
"369 445 OFFCURVE",
"265 445 CURVE SMOOTH",
"160 445 OFFCURVE",
"127 399 OFFCURVE",
"127 253 CURVE SMOOTH",
"127 107 OFFCURVE",
"152 55 OFFCURVE",
"265 55 CURVE SMOOTH"
);
},
{
closed = 1;
nodes = (
"154 642 LINE",
"370 740 LINE",
"396 676 LINE",
"175 591 LINE"
);
}
);
width = 528;
}
);
leftKerningGroup = c;
rightKerningGroup = o;
unicode = 00F3;
},
{
glyphname = ocircumflex;
layers = (
{
layerId = "7BE58B69-D6A5-4645-9194-9194354D517E";
name = Regular;
paths = (
{
closed = 1;
nodes = (
"420 510 OFFCURVE",
"478 434 OFFCURVE",
"478 251 CURVE SMOOTH",
"478 68 OFFCURVE",
"427 -10 OFFCURVE",
"264 -10 CURVE SMOOTH",
"101 -10 OFFCURVE",
"50 68 OFFCURVE",
"50 251 CURVE SMOOTH",
"50 434 OFFCURVE",
"109 510 OFFCURVE",
"265 510 CURVE SMOOTH"
);
},
{
closed = 1;
nodes = (
"377 55 OFFCURVE",
"401 105 OFFCURVE",
"401 252 CURVE SMOOTH",
"401 399 OFFCURVE",
"369 445 OFFCURVE",
"265 445 CURVE SMOOTH",
"160 445 OFFCURVE",
"127 399 OFFCURVE",
"127 253 CURVE SMOOTH",
"127 107 OFFCURVE",
"152 55 OFFCURVE",
"265 55 CURVE SMOOTH"
);
},
{
closed = 1;
nodes = (
"113 592 LINE",
"236 732 LINE",
"287 732 LINE",
"411 592 LINE",
"336 592 LINE",
"263 679 LINE",
"188 592 LINE"
);
}
);
width = 528;
}
);
leftKerningGroup = c;
rightKerningGroup = o;
unicode = 00F4;
},
{
glyphname = otilde;
layers = (
{
layerId = "7BE58B69-D6A5-4645-9194-9194354D517E";
name = Regular;
paths = (
{
closed = 1;
nodes = (
"420 510 OFFCURVE",
"478 434 OFFCURVE",
"478 251 CURVE SMOOTH",
"478 68 OFFCURVE",
"427 -10 OFFCURVE",
"264 -10 CURVE SMOOTH",
"101 -10 OFFCURVE",
"50 68 OFFCURVE",
"50 251 CURVE SMOOTH",
"50 434 OFFCURVE",
"109 510 OFFCURVE",
"265 510 CURVE SMOOTH"
);
},
{
closed = 1;
nodes = (
"377 55 OFFCURVE",
"401 105 OFFCURVE",
"401 252 CURVE SMOOTH",
"401 399 OFFCURVE",
"369 445 OFFCURVE",
"265 445 CURVE SMOOTH",
"160 445 OFFCURVE",
"127 399 OFFCURVE",
"127 253 CURVE SMOOTH",
"127 107 OFFCURVE",
"152 55 OFFCURVE",
"265 55 CURVE SMOOTH"
);
},
{
closed = 1;
nodes = (
"321 612 OFFCURVE",
"297 620 OFFCURVE",
"263 636 CURVE",
"228 651 OFFCURVE",
"207 659 OFFCURVE",
"198 659 CURVE SMOOTH",
"183 659 OFFCURVE",
"162 649 OFFCURVE",
"136 629 CURVE SMOOTH",
"123 619 LINE",
"105 667 LINE",
"138 702 OFFCURVE",
"169 719 OFFCURVE",
"196 719 CURVE SMOOTH",
"210 719 OFFCURVE",
"234 711 OFFCURVE",
"269 696 CURVE SMOOTH",
"304 681 OFFCURVE",
"325 673 OFFCURVE",
"332 673 CURVE SMOOTH",
"347 673 OFFCURVE",
"367 683 OFFCURVE",
"392 702 CURVE SMOOTH",
"404 711 LINE",
"421 663 LINE",
"390 629 OFFCURVE",
"362 612 OFFCURVE",
"335 612 CURVE SMOOTH"
);
}
);
width = 528;
}
);
leftKerningGroup = c;
rightKerningGroup = o;
unicode = 00F5;
},
{
glyphname = odieresis;
layers = (
{
layerId = "7BE58B69-D6A5-4645-9194-9194354D517E";
name = Regular;
paths = (
{
closed = 1;
nodes = (
"420 510 OFFCURVE",
"478 434 OFFCURVE",
"478 251 CURVE SMOOTH",
"478 68 OFFCURVE",
"427 -10 OFFCURVE",
"264 -10 CURVE SMOOTH",
"101 -10 OFFCURVE",
"50 68 OFFCURVE",
"50 251 CURVE SMOOTH",
"50 434 OFFCURVE",
"109 510 OFFCURVE",
"265 510 CURVE SMOOTH"
);
},
{
closed = 1;
nodes = (
"377 55 OFFCURVE",
"401 105 OFFCURVE",
"401 252 CURVE SMOOTH",
"401 399 OFFCURVE",
"369 445 OFFCURVE",
"265 445 CURVE SMOOTH",
"160 445 OFFCURVE",
"127 399 OFFCURVE",
"127 253 CURVE SMOOTH",
"127 107 OFFCURVE",
"152 55 OFFCURVE",
"265 55 CURVE SMOOTH"
);
},
{
closed = 1;
nodes = (
"125 621 LINE",
"125 711 LINE",
"197 711 LINE",
"197 621 LINE"
);
},
{
closed = 1;
nodes = (
"325 621 LINE",
"325 711 LINE",
"398 711 LINE",
"398 621 LINE"
);
}
);
width = 528;
}
);
leftKerningGroup = c;
rightKerningGroup = o;
unicode = 00F6;
},
{
glyphname = divide;
layers = (
{
layerId = "7BE58B69-D6A5-4645-9194-9194354D517E";
name = Regular;
paths = (
{
closed = 1;
nodes = (
"120 281 LINE",
"120 354 LINE",
"177 354 LINE",
"177 402 LINE",
"383 402 LINE",
"383 354 LINE",
"439 354 LINE",
"439 281 LINE"
);
},
{
closed = 1;
nodes = (
"242 30 LINE",
"242 131 LINE",
"317 131 LINE",
"317 30 LINE"
);
}
);
width = 560;
}
);
rightKerningGroup = numbersign;
unicode = 00F7;
},
{
glyphname = oslash;
layers = (
{
layerId = "7BE58B69-D6A5-4645-9194-9194354D517E";
name = Regular;
paths = (
{
closed = 1;
nodes = (
"290 510 OFFCURVE",
"315 507 OFFCURVE",
"338 502 CURVE",
"381 606 LINE",
"431 587 LINE",
"388 483 LINE",
"448 450 OFFCURVE",
"478 374 OFFCURVE",
"478 256 CURVE SMOOTH",
"478 67 OFFCURVE",
"427 -10 OFFCURVE",
"264 -10 CURVE SMOOTH",
"237 -10 OFFCURVE",
"211 -7 OFFCURVE",
"188 -2 CURVE",
"145 -112 LINE",
"95 -94 LINE",
"139 15 LINE",
"74 51 OFFCURVE",
"50 125 OFFCURVE",
"50 256 CURVE SMOOTH",
"50 432 OFFCURVE",
"109 510 OFFCURVE",
"264 510 CURVE SMOOTH"
);
},
{
closed = 1;
nodes = (
"160 445 OFFCURVE",
"127 392 OFFCURVE",
"127 273 CURVE SMOOTH",
"127 213 OFFCURVE",
"130 169 OFFCURVE",
"136 142 CURVE",
"141 115 OFFCURVE",
"152 94 OFFCURVE",
"169 80 CURVE",
"314 439 LINE",
"300 443 OFFCURVE",
"283 445 OFFCURVE",
"264 445 CURVE SMOOTH"
);
},
{
closed = 1;
nodes = (
"377 55 OFFCURVE",
"401 103 OFFCURVE",
"401 261 CURVE SMOOTH",
"401 340 OFFCURVE",
"387 392 OFFCURVE",
"359 417 CURVE",
"213 60 LINE",
"225 57 OFFCURVE",
"242 55 OFFCURVE",
"264 55 CURVE SMOOTH"
);
}
);
width = 528;
}
);
leftKerningGroup = c;
rightKerningGroup = o;
unicode = 00F8;
},
{
glyphname = ugrave;
layers = (
{
layerId = "7BE58B69-D6A5-4645-9194-9194354D517E";
name = Regular;
paths = (
{
closed = 1;
nodes = (
"384 500 LINE",
"459 500 LINE",
"459 0 LINE",
"384 0 LINE",
"384 35 LINE",
"334 5 OFFCURVE",
"285 -10 OFFCURVE",
"236 -10 CURVE SMOOTH",
"100 -10 OFFCURVE",
"67 48 OFFCURVE",
"67 239 CURVE SMOOTH",
"67 500 LINE",
"142 500 LINE",
"142 240 LINE SMOOTH",
"142 95 OFFCURVE",
"158 57 OFFCURVE",
"247 57 CURVE SMOOTH",
"291 57 OFFCURVE",
"342 73 OFFCURVE",
"366 85 CURVE SMOOTH",
"384 94 LINE"
);
},
{
closed = 1;
nodes = (
"140 740 LINE",
"356 642 LINE",
"335 591 LINE",
"114 676 LINE"
);
}
);
width = 531;
}
);
leftKerningGroup = u;
rightKerningGroup = q;
unicode = 00F9;
},
{
glyphname = uacute;
layers = (
{
layerId = "7BE58B69-D6A5-4645-9194-9194354D517E";
name = Regular;
paths = (
{
closed = 1;
nodes = (
"459 500 LINE",
"459 0 LINE",
"384 0 LINE",
"384 35 LINE",
"363 24 LINE",
"335 8 OFFCURVE",
"279 -10 OFFCURVE",
"236 -10 CURVE SMOOTH",
"100 -10 OFFCURVE",
"67 48 OFFCURVE",
"67 239 CURVE",
"67 239 OFFCURVE",
"67 326 OFFCURVE",
"67 500 CURVE",
"142 500 LINE",
"142 240 LINE SMOOTH",
"142 95 OFFCURVE",
"157 57 OFFCURVE",
"251 57 CURVE SMOOTH",
"298 57 OFFCURVE",
"342 69 OFFCURVE",
"384 94 CURVE",
"384 500 LINE"
);
},
{
closed = 1;
nodes = (
"155 642 LINE",
"371 740 LINE",
"397 676 LINE",
"176 591 LINE"
);
}
);
width = 531;
}
);
leftKerningGroup = u;
rightKerningGroup = q;
unicode = 00FA;
},
{
glyphname = ucircumflex;
layers = (
{
layerId = "7BE58B69-D6A5-4645-9194-9194354D517E";
name = Regular;
paths = (
{
closed = 1;
nodes = (
"459 500 LINE",
"459 0 LINE",
"384 0 LINE",
"384 35 LINE",
"363 24 LINE",
"335 8 OFFCURVE",
"279 -10 OFFCURVE",
"236 -10 CURVE SMOOTH",
"100 -10 OFFCURVE",
"67 48 OFFCURVE",
"67 239 CURVE",
"67 239 OFFCURVE",
"67 326 OFFCURVE",
"67 500 CURVE",
"142 500 LINE",
"142 240 LINE SMOOTH",
"142 95 OFFCURVE",
"157 57 OFFCURVE",
"251 57 CURVE SMOOTH",
"298 57 OFFCURVE",
"342 69 OFFCURVE",
"384 94 CURVE",
"384 500 LINE"
);
},
{
closed = 1;
nodes = (
"105 592 LINE",
"228 732 LINE",
"279 732 LINE",
"403 592 LINE",
"328 592 LINE",
"255 679 LINE",
"180 592 LINE"
);
}
);
width = 531;
}
);
leftKerningGroup = u;
rightKerningGroup = q;
unicode = 00FB;
},
{
glyphname = udieresis;
layers = (
{
layerId = "7BE58B69-D6A5-4645-9194-9194354D517E";
name = Regular;
paths = (
{
closed = 1;
nodes = (
"459 500 LINE",
"459 0 LINE",
"384 0 LINE",
"384 35 LINE",
"363 24 LINE",
"335 8 OFFCURVE",
"279 -10 OFFCURVE",
"236 -10 CURVE SMOOTH",
"100 -10 OFFCURVE",
"67 48 OFFCURVE",
"67 239 CURVE",
"67 239 OFFCURVE",
"67 326 OFFCURVE",
"67 500 CURVE",
"142 500 LINE",
"142 240 LINE SMOOTH",
"142 95 OFFCURVE",
"157 57 OFFCURVE",
"251 57 CURVE SMOOTH",
"298 57 OFFCURVE",
"342 69 OFFCURVE",
"384 94 CURVE",
"384 500 LINE"
);
},
{
closed = 1;
nodes = (
"132 621 LINE",
"132 711 LINE",
"204 711 LINE",
"204 621 LINE"
);
},
{
closed = 1;
nodes = (
"332 621 LINE",
"332 711 LINE",
"405 711 LINE",
"405 621 LINE"
);
}
);
width = 531;
}
);
leftKerningGroup = u;
rightKerningGroup = q;
unicode = 00FC;
},
{
glyphname = yacute;
layers = (
{
layerId = "7BE58B69-D6A5-4645-9194-9194354D517E";
name = Regular;
paths = (
{
closed = 1;
nodes = (
"25 500 LINE",
"100 500 LINE",
"225 65 LINE",
"258 65 LINE",
"384 500 LINE",
"459 500 LINE",
"251 -222 LINE",
"176 -222 LINE",
"241 0 LINE",
"167 0 LINE"
);
},
{
closed = 1;
nodes = (
"154 642 LINE",
"370 740 LINE",
"396 676 LINE",
"175 591 LINE"
);
}
);
width = 483;
}
);
leftKerningGroup = y;
rightKerningGroup = y;
unicode = 00FD;
},
{
glyphname = thorn;
layers = (
{
layerId = "7BE58B69-D6A5-4645-9194-9194354D517E";
name = Regular;
paths = (
{
closed = 1;
nodes = (
"369 55 OFFCURVE",
"399 111 OFFCURVE",
"399 252 CURVE SMOOTH",
"399 392 OFFCURVE",
"371 443 OFFCURVE",
"286 443 CURVE SMOOTH",
"247 443 OFFCURVE",
"207 436 OFFCURVE",
"166 421 CURVE SMOOTH",
"147 414 LINE",
"147 61 LINE",
"190 57 OFFCURVE",
"223 55 OFFCURVE",
"244 55 CURVE SMOOTH"
);
},
{
closed = 1;
nodes = (
"428 510 OFFCURVE",
"476 443 OFFCURVE",
"476 252 CURVE SMOOTH",
"476 61 OFFCURVE",
"420 -10 OFFCURVE",
"248 -10 CURVE",
"147 -3 LINE",
"147 -222 LINE",
"72 -222 LINE",
"72 718 LINE",
"147 718 LINE",
"147 475 LINE",
"197 498 OFFCURVE",
"246 510 OFFCURVE",
"293 510 CURVE SMOOTH"
);
}
);
width = 527;
}
);
leftKerningGroup = b;
rightKerningGroup = b;
unicode = 00FE;
},
{
glyphname = ydieresis;
layers = (
{
layerId = "7BE58B69-D6A5-4645-9194-9194354D517E";
name = Regular;
paths = (
{
closed = 1;
nodes = (
"25 500 LINE",
"100 500 LINE",
"225 65 LINE",
"258 65 LINE",
"384 500 LINE",
"459 500 LINE",
"251 -222 LINE",
"176 -222 LINE",
"241 0 LINE",
"167 0 LINE"
);
},
{
closed = 1;
nodes = (
"104 621 LINE",
"104 711 LINE",
"176 711 LINE",
"176 621 LINE"
);
},
{
closed = 1;
nodes = (
"304 621 LINE",
"304 711 LINE",
"377 711 LINE",
"377 621 LINE"
);
}
);
width = 483;
}
);
leftKerningGroup = y;
rightKerningGroup = y;
unicode = 00FF;
},
{
glyphname = Amacron;
layers = (
{
layerId = "7BE58B69-D6A5-4645-9194-9194354D517E";
name = Regular;
paths = (
{
closed = 1;
nodes = (
"24 0 LINE",
"214 692 LINE",
"382 692 LINE",
"572 0 LINE",
"496 0 LINE",
"446 178 LINE",
"150 178 LINE",
"100 0 LINE"
);
},
{
closed = 1;
nodes = (
"272 626 LINE",
"167 247 LINE",
"429 247 LINE",
"324 626 LINE"
);
},
{
closed = 1;
nodes = (
"141 812 LINE",
"141 870 LINE",
"452 870 LINE",
"452 812 LINE"
);
}
);
width = 596;
}
);
leftKerningGroup = A;
rightKerningGroup = numbersign;
unicode = 0100;
},
{
glyphname = amacron;
layers = (
{
layerId = "7BE58B69-D6A5-4645-9194-9194354D517E";
name = Regular;
paths = (
{
closed = 1;
nodes = (
"425 93 LINE",
"427 68 OFFCURVE",
"446 54 OFFCURVE",
"483 49 CURVE",
"480 -10 LINE",
"427 -10 OFFCURVE",
"388 3 OFFCURVE",
"361 30 CURVE",
"301 3 OFFCURVE",
"241 -10 OFFCURVE",
"181 -10 CURVE SMOOTH",
"89 -10 OFFCURVE",
"40 44 OFFCURVE",
"40 141 CURVE SMOOTH",
"40 238 OFFCURVE",
"88 280 OFFCURVE",
"193 291 CURVE SMOOTH",
"350 306 LINE",
"350 349 LINE SMOOTH",
"350 417 OFFCURVE",
"319 444 OFFCURVE",
"268 444 CURVE SMOOTH",
"215 444 OFFCURVE",
"159 441 OFFCURVE",
"102 434 CURVE SMOOTH",
"71 431 LINE",
"68 488 LINE",
"141 503 OFFCURVE",
"206 510 OFFCURVE",
"263 510 CURVE SMOOTH",
"376 510 OFFCURVE",
"425 460 OFFCURVE",
"425 349 CURVE SMOOTH"
);
},
{
closed = 1;
nodes = (
"117 84 OFFCURVE",
"142 53 OFFCURVE",
"193 53 CURVE SMOOTH",
"238 53 OFFCURVE",
"283 61 OFFCURVE",
"327 76 CURVE SMOOTH",
"350 84 LINE",
"350 249 LINE",
"202 235 LINE SMOOTH",
"142 230 OFFCURVE",
"117 201 OFFCURVE",
"117 145 CURVE SMOOTH"
);
},
{
closed = 1;
nodes = (
"112 624 LINE",
"112 683 LINE",
"387 683 LINE",
"387 624 LINE"
);
}
);
width = 501;
}
);
leftKerningGroup = a;
rightKerningGroup = a;
unicode = 0101;
},
{
glyphname = Abreve;
layers = (
{
layerId = "7BE58B69-D6A5-4645-9194-9194354D517E";
name = Regular;
paths = (
{
closed = 1;
nodes = (
"24 0 LINE",
"214 692 LINE",
"382 692 LINE",
"572 0 LINE",
"496 0 LINE",
"446 178 LINE",
"150 178 LINE",
"100 0 LINE"
);
},
{
closed = 1;
nodes = (
"272 626 LINE",
"167 247 LINE",
"429 247 LINE",
"324 626 LINE"
);
},
{
closed = 1;
nodes = (
"208 918 LINE",
"209 874 OFFCURVE",
"248 843 OFFCURVE",
"297 843 CURVE SMOOTH",
"345 843 OFFCURVE",
"383 874 OFFCURVE",
"384 918 CURVE",
"454 918 LINE",
"450 839 OFFCURVE",
"388 787 OFFCURVE",
"296 787 CURVE SMOOTH",
"204 787 OFFCURVE",
"143 839 OFFCURVE",
"139 918 CURVE"
);
}
);
width = 596;
}
);
leftKerningGroup = A;
rightKerningGroup = numbersign;
unicode = 0102;
},
{
glyphname = abreve;
layers = (
{
layerId = "7BE58B69-D6A5-4645-9194-9194354D517E";
name = Regular;
paths = (
{
closed = 1;
nodes = (
"425 101 LINE",
"426 75 OFFCURVE",
"445 60 OFFCURVE",
"482 55 CURVE",
"480 -10 LINE",
"425 -10 OFFCURVE",
"386 3 OFFCURVE",
"361 28 CURVE",
"336 18 LINE SMOOTH",
"303 6 OFFCURVE",
"233 -10 OFFCURVE",
"176 -10 CURVE SMOOTH",
"89 -10 OFFCURVE",
"40 46 OFFCURVE",
"40 142 CURVE SMOOTH",
"40 238 OFFCURVE",
"88 282 OFFCURVE",
"193 291 CURVE",
"193 291 OFFCURVE",
"245 296 OFFCURVE",
"350 306 CURVE",
"350 347 LINE SMOOTH",
"350 408 OFFCURVE",
"321 438 OFFCURVE",
"263 438 CURVE SMOOTH",
"214 438 OFFCURVE",
"151 434 OFFCURVE",
"72 425 CURVE",
"69 490 LINE",
"101 495 LINE SMOOTH",
"165 505 OFFCURVE",
"220 510 OFFCURVE",
"267 510 CURVE SMOOTH",
"374 510 OFFCURVE",
"425 459 OFFCURVE",
"425 347 CURVE SMOOTH"
);
},
{
closed = 1;
nodes = (
"238 55 OFFCURVE",
"292 65 OFFCURVE",
"350 85 CURVE",
"350 245 LINE",
"202 233 LINE SMOOTH",
"145 228 OFFCURVE",
"117 198 OFFCURVE",
"117 145 CURVE SMOOTH",
"117 88 OFFCURVE",
"143 55 OFFCURVE",
"188 55 CURVE SMOOTH"
);
},
{
closed = 1;
nodes = (
"169 733 LINE",
"172 688 OFFCURVE",
"201 658 OFFCURVE",
"253 658 CURVE SMOOTH",
"304 658 OFFCURVE",
"335 688 OFFCURVE",
"336 733 CURVE",
"413 733 LINE",
"409 649 OFFCURVE",
"349 591 OFFCURVE",
"253 591 CURVE SMOOTH",
"156 591 OFFCURVE",
"96 649 OFFCURVE",
"92 733 CURVE"
);
}
);
width = 503;
}
);
leftKerningGroup = a;
rightKerningGroup = a;
unicode = 0103;
},
{
glyphname = Aogonek;
layers = (
{
layerId = "7BE58B69-D6A5-4645-9194-9194354D517E";
name = Regular;
paths = (
{
closed = 1;
nodes = (
"494 -127 OFFCURVE",
"511 -145 OFFCURVE",
"535 -145 CURVE",
"585 -139 LINE",
"592 -197 LINE",
"562 -203 OFFCURVE",
"535 -206 OFFCURVE",
"510 -206 CURVE SMOOTH",
"461 -206 OFFCURVE",
"421 -171 OFFCURVE",
"421 -123 CURVE SMOOTH",
"421 -76 OFFCURVE",
"463 -28 OFFCURVE",
"496 1 CURVE",
"446 178 LINE",
"150 178 LINE",
"100 0 LINE",
"24 0 LINE",
"214 692 LINE",
"382 692 LINE",
"572 0 LINE",
"564 0 LINE",
"517 -47 OFFCURVE",
"494 -81 OFFCURVE",
"494 -102 CURVE SMOOTH"
);
},
{
closed = 1;
nodes = (
"272 626 LINE",
"167 247 LINE",
"429 247 LINE",
"324 626 LINE"
);
}
);
width = 596;
}
);
leftKerningGroup = A;
rightKerningGroup = numbersign;
unicode = 0104;
},
{
glyphname = aogonek;
layers = (
{
layerId = "7BE58B69-D6A5-4645-9194-9194354D517E";
name = Regular;
paths = (
{
closed = 1;
nodes = (
"425 93 LINE",
"427 68 OFFCURVE",
"446 54 OFFCURVE",
"483 49 CURVE",
"480 -10 LINE",
"472 -10 OFFCURVE",
"461 -9 OFFCURVE",
"446 -8 CURVE",
"405 -51 OFFCURVE",
"385 -82 OFFCURVE",
"385 -102 CURVE SMOOTH",
"385 -127 OFFCURVE",
"402 -145 OFFCURVE",
"426 -145 CURVE",
"476 -139 LINE",
"483 -197 LINE",
"453 -203 OFFCURVE",
"426 -206 OFFCURVE",
"401 -206 CURVE SMOOTH",
"352 -206 OFFCURVE",
"312 -170 OFFCURVE",
"312 -127 CURVE SMOOTH",
"312 -84 OFFCURVE",
"346 -31 OFFCURVE",
"393 6 CURVE",
"382 11 OFFCURVE",
"372 19 OFFCURVE",
"361 30 CURVE",
"301 3 OFFCURVE",
"241 -10 OFFCURVE",
"181 -10 CURVE SMOOTH",
"89 -10 OFFCURVE",
"40 44 OFFCURVE",
"40 141 CURVE SMOOTH",
"40 238 OFFCURVE",
"88 280 OFFCURVE",
"193 291 CURVE SMOOTH",
"350 306 LINE",
"350 349 LINE SMOOTH",
"350 417 OFFCURVE",
"319 444 OFFCURVE",
"268 444 CURVE SMOOTH",
"215 444 OFFCURVE",
"159 441 OFFCURVE",
"102 434 CURVE SMOOTH",
"71 431 LINE",
"68 488 LINE",
"141 503 OFFCURVE",
"206 510 OFFCURVE",
"263 510 CURVE SMOOTH",
"376 510 OFFCURVE",
"425 460 OFFCURVE",
"425 349 CURVE SMOOTH"
);
},
{
closed = 1;
nodes = (
"117 84 OFFCURVE",
"142 53 OFFCURVE",
"193 53 CURVE SMOOTH",
"238 53 OFFCURVE",
"283 61 OFFCURVE",
"327 76 CURVE SMOOTH",
"350 84 LINE",
"350 249 LINE",
"202 235 LINE SMOOTH",
"142 230 OFFCURVE",
"117 201 OFFCURVE",
"117 145 CURVE SMOOTH"
);
}
);
width = 500;
}
);
leftKerningGroup = a;
rightKerningGroup = a;
unicode = 0105;
},
{
glyphname = Cacute;
layers = (
{
layerId = "7BE58B69-D6A5-4645-9194-9194354D517E";
name = Regular;
paths = (
{
closed = 1;
nodes = (
"503 11 LINE",
"434 -3 OFFCURVE",
"373 -10 OFFCURVE",
"318 -10 CURVE SMOOTH",
"209 -10 OFFCURVE",
"144 19 OFFCURVE",
"108 83 CURVE SMOOTH",
"71 146 OFFCURVE",
"59 222 OFFCURVE",
"59 345 CURVE SMOOTH",
"59 468 OFFCURVE",
"71 546 OFFCURVE",
"108 610 CURVE SMOOTH",
"144 674 OFFCURVE",
"208 702 OFFCURVE",
"315 702 CURVE SMOOTH",
"368 702 OFFCURVE",
"431 695 OFFCURVE",
"503 680 CURVE",
"500 615 LINE",
"433 627 OFFCURVE",
"373 633 OFFCURVE",
"320 633 CURVE SMOOTH",
"173 633 OFFCURVE",
"139 555 OFFCURVE",
"139 344 CURVE SMOOTH",
"139 239 OFFCURVE",
"146 182 OFFCURVE",
"171 131 CURVE SMOOTH",
"196 79 OFFCURVE",
"240 59 OFFCURVE",
"334 59 CURVE SMOOTH",
"381 59 OFFCURVE",
"436 65 OFFCURVE",
"500 77 CURVE"
);
},
{
closed = 1;
nodes = (
"181 831 LINE",
"397 931 LINE",
"423 865 LINE",
"204 778 LINE"
);
}
);
width = 544;
}
);
leftKerningGroup = C;
rightKerningGroup = C;
unicode = 0106;
},
{
glyphname = cacute;
layers = (
{
layerId = "7BE58B69-D6A5-4645-9194-9194354D517E";
name = Regular;
paths = (
{
closed = 1;
nodes = (
"281 510 OFFCURVE",
"318 506 OFFCURVE",
"371 498 CURVE SMOOTH",
"395 495 LINE",
"392 434 LINE",
"339 440 OFFCURVE",
"299 443 OFFCURVE",
"274 443 CURVE SMOOTH",
"161 443 OFFCURVE",
"128 399 OFFCURVE",
"128 253 CURVE SMOOTH",
"128 107 OFFCURVE",
"155 57 OFFCURVE",
"275 57 CURVE",
"393 66 LINE",
"396 4 LINE",
"334 -5 OFFCURVE",
"288 -10 OFFCURVE",
"257 -10 CURVE SMOOTH",
"101 -10 OFFCURVE",
"51 63 OFFCURVE",
"51 253 CURVE SMOOTH",
"51 443 OFFCURVE",
"110 510 OFFCURVE",
"259 510 CURVE SMOOTH"
);
},
{
closed = 1;
nodes = (
"126 642 LINE",
"342 740 LINE",
"368 676 LINE",
"147 591 LINE"
);
}
);
width = 436;
}
);
leftKerningGroup = c;
rightKerningGroup = c;
unicode = 0107;
},
{
glyphname = Ccircumflex;
layers = (
{
layerId = "7BE58B69-D6A5-4645-9194-9194354D517E";
name = Regular;
paths = (
{
closed = 1;
nodes = (
"503 11 LINE",
"434 -3 OFFCURVE",
"373 -10 OFFCURVE",
"318 -10 CURVE SMOOTH",
"209 -10 OFFCURVE",
"144 19 OFFCURVE",
"108 83 CURVE SMOOTH",
"71 146 OFFCURVE",
"59 222 OFFCURVE",
"59 345 CURVE SMOOTH",
"59 468 OFFCURVE",
"71 546 OFFCURVE",
"108 610 CURVE SMOOTH",
"144 674 OFFCURVE",
"208 702 OFFCURVE",
"315 702 CURVE SMOOTH",
"368 702 OFFCURVE",
"431 695 OFFCURVE",
"503 680 CURVE",
"500 615 LINE",
"433 627 OFFCURVE",
"373 633 OFFCURVE",
"320 633 CURVE SMOOTH",
"173 633 OFFCURVE",
"139 555 OFFCURVE",
"139 344 CURVE SMOOTH",
"139 239 OFFCURVE",
"146 182 OFFCURVE",
"171 131 CURVE SMOOTH",
"196 79 OFFCURVE",
"240 59 OFFCURVE",
"334 59 CURVE SMOOTH",
"381 59 OFFCURVE",
"436 65 OFFCURVE",
"500 77 CURVE"
);
},
{
closed = 1;
nodes = (
"144 791 LINE",
"278 926 LINE",
"343 926 LINE",
"477 791 LINE",
"393 791 LINE",
"311 871 LINE",
"228 791 LINE"
);
}
);
width = 544;
}
);
leftKerningGroup = C;
rightKerningGroup = C;
unicode = 0108;
},
{
glyphname = ccircumflex;
layers = (
{
layerId = "7BE58B69-D6A5-4645-9194-9194354D517E";
name = Regular;
paths = (
{
closed = 1;
nodes = (
"281 510 OFFCURVE",
"318 506 OFFCURVE",
"371 498 CURVE SMOOTH",
"395 495 LINE",
"392 434 LINE",
"339 440 OFFCURVE",
"299 443 OFFCURVE",
"274 443 CURVE SMOOTH",
"161 443 OFFCURVE",
"128 399 OFFCURVE",
"128 253 CURVE SMOOTH",
"128 107 OFFCURVE",
"155 57 OFFCURVE",
"275 57 CURVE",
"393 66 LINE",
"396 4 LINE",
"334 -5 OFFCURVE",
"288 -10 OFFCURVE",
"257 -10 CURVE SMOOTH",
"101 -10 OFFCURVE",
"51 63 OFFCURVE",
"51 253 CURVE SMOOTH",
"51 443 OFFCURVE",
"110 510 OFFCURVE",
"259 510 CURVE SMOOTH"
);
},
{
closed = 1;
nodes = (
"83 592 LINE",
"206 732 LINE",
"257 732 LINE",
"381 592 LINE",
"306 592 LINE",
"233 679 LINE",
"158 592 LINE"
);
}
);
width = 436;
}
);
leftKerningGroup = c;
rightKerningGroup = c;
unicode = 0109;
},
{
glyphname = Cdotaccent;
layers = (
{
layerId = "7BE58B69-D6A5-4645-9194-9194354D517E";
name = Regular;
paths = (
{
closed = 1;
nodes = (
"503 11 LINE",
"434 -3 OFFCURVE",
"373 -10 OFFCURVE",
"318 -10 CURVE SMOOTH",
"209 -10 OFFCURVE",
"144 19 OFFCURVE",
"108 83 CURVE SMOOTH",
"71 146 OFFCURVE",
"59 222 OFFCURVE",
"59 345 CURVE SMOOTH",
"59 468 OFFCURVE",
"71 546 OFFCURVE",
"108 610 CURVE SMOOTH",
"144 674 OFFCURVE",
"208 702 OFFCURVE",
"315 702 CURVE SMOOTH",
"368 702 OFFCURVE",
"431 695 OFFCURVE",
"503 680 CURVE",
"500 615 LINE",
"433 627 OFFCURVE",
"373 633 OFFCURVE",
"320 633 CURVE SMOOTH",
"173 633 OFFCURVE",
"139 555 OFFCURVE",
"139 344 CURVE SMOOTH",
"139 239 OFFCURVE",
"146 182 OFFCURVE",
"171 131 CURVE SMOOTH",
"196 79 OFFCURVE",
"240 59 OFFCURVE",
"334 59 CURVE SMOOTH",
"381 59 OFFCURVE",
"436 65 OFFCURVE",
"500 77 CURVE"
);
},
{
closed = 1;
nodes = (
"255 798 LINE",
"255 885 LINE",
"329 885 LINE",
"329 798 LINE"
);
}
);
width = 544;
}
);
leftKerningGroup = C;
rightKerningGroup = C;
unicode = 010A;
},
{
glyphname = cdotaccent;
layers = (
{
layerId = "7BE58B69-D6A5-4645-9194-9194354D517E";
name = Regular;
paths = (
{
closed = 1;
nodes = (
"281 510 OFFCURVE",
"318 506 OFFCURVE",
"371 498 CURVE SMOOTH",
"395 495 LINE",
"392 434 LINE",
"339 440 OFFCURVE",
"299 443 OFFCURVE",
"274 443 CURVE SMOOTH",
"161 443 OFFCURVE",
"128 399 OFFCURVE",
"128 253 CURVE SMOOTH",
"128 107 OFFCURVE",
"155 57 OFFCURVE",
"275 57 CURVE",
"393 66 LINE",
"396 4 LINE",
"334 -5 OFFCURVE",
"288 -10 OFFCURVE",
"257 -10 CURVE SMOOTH",
"101 -10 OFFCURVE",
"51 63 OFFCURVE",
"51 253 CURVE SMOOTH",
"51 443 OFFCURVE",
"110 510 OFFCURVE",
"259 510 CURVE SMOOTH"
);
},
{
closed = 1;
nodes = (
"214 609 LINE",
"214 696 LINE",
"288 696 LINE",
"288 609 LINE"
);
}
);
width = 436;
}
);
leftKerningGroup = c;
rightKerningGroup = c;
unicode = 010B;
},
{
glyphname = Ccaron;
layers = (
{
layerId = "7BE58B69-D6A5-4645-9194-9194354D517E";
name = Regular;
paths = (
{
closed = 1;
nodes = (
"503 11 LINE",
"434 -3 OFFCURVE",
"373 -10 OFFCURVE",
"318 -10 CURVE SMOOTH",
"209 -10 OFFCURVE",
"144 19 OFFCURVE",
"108 83 CURVE SMOOTH",
"71 146 OFFCURVE",
"59 222 OFFCURVE",
"59 345 CURVE SMOOTH",
"59 468 OFFCURVE",
"71 546 OFFCURVE",
"108 610 CURVE SMOOTH",
"144 674 OFFCURVE",
"208 702 OFFCURVE",
"315 702 CURVE SMOOTH",
"368 702 OFFCURVE",
"431 695 OFFCURVE",
"503 680 CURVE",
"500 615 LINE",
"433 627 OFFCURVE",
"373 633 OFFCURVE",
"320 633 CURVE SMOOTH",
"173 633 OFFCURVE",
"139 555 OFFCURVE",
"139 344 CURVE SMOOTH",
"139 239 OFFCURVE",
"146 182 OFFCURVE",
"171 131 CURVE SMOOTH",
"196 79 OFFCURVE",
"240 59 OFFCURVE",
"334 59 CURVE SMOOTH",
"381 59 OFFCURVE",
"436 65 OFFCURVE",
"500 77 CURVE"
);
},
{
closed = 1;
nodes = (
"271 791 LINE",
"137 926 LINE",
"221 926 LINE",
"304 846 LINE",
"386 926 LINE",
"470 926 LINE",
"336 791 LINE"
);
}
);
width = 544;
}
);
leftKerningGroup = C;
rightKerningGroup = C;
unicode = 010C;
},
{
glyphname = ccaron;
layers = (
{
layerId = "7BE58B69-D6A5-4645-9194-9194354D517E";
name = Regular;
paths = (
{
closed = 1;
nodes = (
"281 510 OFFCURVE",
"318 506 OFFCURVE",
"371 498 CURVE SMOOTH",
"395 495 LINE",
"392 434 LINE",
"339 440 OFFCURVE",
"299 443 OFFCURVE",
"274 443 CURVE SMOOTH",
"161 443 OFFCURVE",
"128 399 OFFCURVE",
"128 253 CURVE SMOOTH",
"128 107 OFFCURVE",
"155 57 OFFCURVE",
"275 57 CURVE",
"393 66 LINE",
"396 4 LINE",
"334 -5 OFFCURVE",
"288 -10 OFFCURVE",
"257 -10 CURVE SMOOTH",
"101 -10 OFFCURVE",
"51 63 OFFCURVE",
"51 253 CURVE SMOOTH",
"51 443 OFFCURVE",
"110 510 OFFCURVE",
"259 510 CURVE SMOOTH"
);
},
{
closed = 1;
nodes = (
"214 592 LINE",
"91 732 LINE",
"165 732 LINE",
"240 645 LINE",
"314 732 LINE",
"389 732 LINE",
"264 592 LINE"
);
}
);
width = 436;
}
);
leftKerningGroup = c;
rightKerningGroup = c;
unicode = 010D;
},
{
glyphname = Dcaron;
layers = (
{
layerId = "7BE58B69-D6A5-4645-9194-9194354D517E";
name = Regular;
paths = (
{
closed = 1;
nodes = (
"85 0 LINE",
"85 692 LINE",
"332 692 LINE SMOOTH",
"557 692 OFFCURVE",
"588 523 OFFCURVE",
"588 356 CURVE SMOOTH",
"588 182 OFFCURVE",
"545 72 OFFCURVE",
"458 27 CURVE SMOOTH",
"423 9 OFFCURVE",
"381 0 OFFCURVE",
"332 0 CURVE SMOOTH"
);
},
{
closed = 1;
nodes = (
"509 489 OFFCURVE",
"479 571 OFFCURVE",
"420 604 CURVE SMOOTH",
"396 617 OFFCURVE",
"367 624 OFFCURVE",
"332 624 CURVE SMOOTH",
"162 624 LINE",
"162 68 LINE",
"332 68 LINE SMOOTH",
"450 68 OFFCURVE",
"509 164 OFFCURVE",
"509 356 CURVE SMOOTH"
);
},
{
closed = 1;
nodes = (
"262 791 LINE",
"128 926 LINE",
"212 926 LINE",
"295 846 LINE",
"377 926 LINE",
"461 926 LINE",
"327 791 LINE"
);
}
);
width = 645;
}
);
leftKerningGroup = B;
rightKerningGroup = D;
unicode = 010E;
},
{
glyphname = dcaron;
layers = (
{
layerId = "7BE58B69-D6A5-4645-9194-9194354D517E";
name = Regular;
paths = (
{
closed = 1;
nodes = (
"558 683 LINE",
"632 683 LINE",
"583 476 LINE",
"518 476 LINE"
);
},
{
closed = 1;
nodes = (
"456 718 LINE",
"456 0 LINE",
"382 0 LINE",
"382 34 LINE",
"331 5 OFFCURVE",
"280 -10 OFFCURVE",
"230 -10 CURVE SMOOTH",
"177 -10 OFFCURVE",
"139 1 OFFCURVE",
"104 36 CURVE SMOOTH",
"68 72 OFFCURVE",
"50 139 OFFCURVE",
"50 236 CURVE SMOOTH",
"50 430 OFFCURVE",
"110 510 OFFCURVE",
"259 510 CURVE SMOOTH",
"298 510 OFFCURVE",
"339 506 OFFCURVE",
"382 497 CURVE",
"382 718 LINE"
);
},
{
closed = 1;
nodes = (
"183 65 OFFCURVE",
"205 57 OFFCURVE",
"243 57 CURVE SMOOTH",
"281 57 OFFCURVE",
"335 73 OFFCURVE",
"362 85 CURVE SMOOTH",
"382 94 LINE",
"382 433 LINE",
"339 441 OFFCURVE",
"300 445 OFFCURVE",
"263 445 CURVE SMOOTH",
"162 445 OFFCURVE",
"127 382 OFFCURVE",
"127 246 CURVE SMOOTH",
"127 169 OFFCURVE",
"139 117 OFFCURVE",
"162 90 CURVE SMOOTH"
);
}
);
width = 575;
}
);
leftKerningGroup = d;
rightKerningGroup = dcaron;
unicode = 010F;
},
{
glyphname = Dcroat;
layers = (
{
layerId = "7BE58B69-D6A5-4645-9194-9194354D517E";
name = Regular;
paths = (
{
closed = 1;
nodes = (
"20 311 LINE",
"20 384 LINE",
"88 384 LINE",
"88 696 LINE",
"335 696 LINE SMOOTH",
"523 696 OFFCURVE",
"591 574 OFFCURVE",
"591 359 CURVE SMOOTH",
"591 184 OFFCURVE",
"547 74 OFFCURVE",
"460 28 CURVE SMOOTH",
"426 9 OFFCURVE",
"384 0 OFFCURVE",
"335 0 CURVE SMOOTH",
"88 0 LINE",
"88 311 LINE"
);
},
{
closed = 1;
nodes = (
"511 488 OFFCURVE",
"481 570 OFFCURVE",
"422 603 CURVE SMOOTH",
"399 616 OFFCURVE",
"370 623 OFFCURVE",
"335 623 CURVE SMOOTH",
"164 623 LINE",
"164 384 LINE",
"322 384 LINE",
"322 311 LINE",
"164 311 LINE",
"164 73 LINE",
"335 73 LINE SMOOTH",
"452 73 OFFCURVE",
"511 168 OFFCURVE",
"511 359 CURVE SMOOTH"
);
}
);
width = 647;
}
);
leftKerningGroup = B;
rightKerningGroup = D;
unicode = 0110;
},
{
glyphname = dcroat;
layers = (
{
layerId = "7BE58B69-D6A5-4645-9194-9194354D517E";
name = Regular;
paths = (
{
closed = 1;
nodes = (
"456 718 LINE",
"456 688 LINE",
"479 688 LINE",
"479 622 LINE",
"456 622 LINE",
"456 0 LINE",
"382 0 LINE",
"382 34 LINE",
"331 5 OFFCURVE",
"280 -10 OFFCURVE",
"230 -10 CURVE SMOOTH",
"177 -10 OFFCURVE",
"139 1 OFFCURVE",
"104 36 CURVE SMOOTH",
"68 72 OFFCURVE",
"50 139 OFFCURVE",
"50 236 CURVE SMOOTH",
"50 430 OFFCURVE",
"110 510 OFFCURVE",
"259 510 CURVE SMOOTH",
"298 510 OFFCURVE",
"339 506 OFFCURVE",
"382 497 CURVE",
"382 622 LINE",
"188 622 LINE",
"188 688 LINE",
"382 688 LINE",
"382 718 LINE"
);
},
{
closed = 1;
nodes = (
"183 65 OFFCURVE",
"205 57 OFFCURVE",
"243 57 CURVE SMOOTH",
"281 57 OFFCURVE",
"335 73 OFFCURVE",
"362 85 CURVE SMOOTH",
"382 94 LINE",
"382 433 LINE",
"339 441 OFFCURVE",
"300 445 OFFCURVE",
"263 445 CURVE SMOOTH",
"162 445 OFFCURVE",
"127 382 OFFCURVE",
"127 246 CURVE SMOOTH",
"127 169 OFFCURVE",
"139 117 OFFCURVE",
"162 90 CURVE SMOOTH"
);
}
);
width = 529;
}
);
leftKerningGroup = d;
rightKerningGroup = d;
unicode = 0111;
},
{
glyphname = Emacron;
layers = (
{
layerId = "7BE58B69-D6A5-4645-9194-9194354D517E";
name = Regular;
paths = (
{
closed = 1;
nodes = (
"85 0 LINE",
"85 692 LINE",
"506 692 LINE",
"506 624 LINE",
"162 624 LINE",
"162 385 LINE",
"446 385 LINE",
"446 318 LINE",
"162 318 LINE",
"162 68 LINE",
"506 68 LINE",
"506 0 LINE"
);
},
{
closed = 1;
nodes = (
"138 812 LINE",
"138 870 LINE",
"449 870 LINE",
"449 812 LINE"
);
}
);
width = 553;
}
);
leftKerningGroup = B;
rightKerningGroup = E;
unicode = 0112;
},
{
glyphname = emacron;
layers = (
{
layerId = "7BE58B69-D6A5-4645-9194-9194354D517E";
name = Regular;
paths = (
{
closed = 1;
nodes = (
"441 65 LINE",
"443 6 LINE",
"367 -5 OFFCURVE",
"302 -10 OFFCURVE",
"248 -10 CURVE SMOOTH",
"104 -10 OFFCURVE",
"50 71 OFFCURVE",
"50 247 CURVE SMOOTH",
"50 422 OFFCURVE",
"120 510 OFFCURVE",
"259 510 CURVE SMOOTH",
"394 510 OFFCURVE",
"460 437 OFFCURVE",
"460 276 CURVE",
"456 219 LINE",
"126 219 LINE",
"126 108 OFFCURVE",
"161 56 OFFCURVE",
"261 56 CURVE SMOOTH",
"310 56 OFFCURVE",
"361 58 OFFCURVE",
"412 62 CURVE SMOOTH"
);
},
{
closed = 1;
nodes = (
"385 279 LINE",
"385 402 OFFCURVE",
"348 447 OFFCURVE",
"260 447 CURVE SMOOTH",
"171 447 OFFCURVE",
"126 396 OFFCURVE",
"125 279 CURVE"
);
},
{
closed = 1;
nodes = (
"123 624 LINE",
"123 683 LINE",
"398 683 LINE",
"398 624 LINE"
);
}
);
width = 505;
}
);
leftKerningGroup = c;
rightKerningGroup = e;
unicode = 0113;
},
{
glyphname = Ebreve;
layers = (
{
layerId = "7BE58B69-D6A5-4645-9194-9194354D517E";
name = Regular;
paths = (
{
closed = 1;
nodes = (
"85 0 LINE",
"85 692 LINE",
"506 692 LINE",
"506 624 LINE",
"162 624 LINE",
"162 385 LINE",
"446 385 LINE",
"446 318 LINE",
"162 318 LINE",
"162 68 LINE",
"506 68 LINE",
"506 0 LINE"
);
},
{
closed = 1;
nodes = (
"216 918 LINE",
"217 874 OFFCURVE",
"256 843 OFFCURVE",
"305 843 CURVE SMOOTH",
"353 843 OFFCURVE",
"391 874 OFFCURVE",
"392 918 CURVE",
"462 918 LINE",
"458 839 OFFCURVE",
"396 787 OFFCURVE",
"304 787 CURVE SMOOTH",
"212 787 OFFCURVE",
"151 839 OFFCURVE",
"147 918 CURVE"
);
}
);
width = 553;
}
);
leftKerningGroup = B;
rightKerningGroup = E;
unicode = 0114;
},
{
glyphname = ebreve;
layers = (
{
layerId = "7BE58B69-D6A5-4645-9194-9194354D517E";
name = Regular;
paths = (
{
closed = 1;
nodes = (
"441 65 LINE",
"443 6 LINE",
"367 -5 OFFCURVE",
"302 -10 OFFCURVE",
"248 -10 CURVE SMOOTH",
"104 -10 OFFCURVE",
"50 71 OFFCURVE",
"50 247 CURVE SMOOTH",
"50 422 OFFCURVE",
"120 510 OFFCURVE",
"259 510 CURVE SMOOTH",
"394 510 OFFCURVE",
"460 437 OFFCURVE",
"460 276 CURVE",
"456 219 LINE",
"126 219 LINE",
"126 108 OFFCURVE",
"161 56 OFFCURVE",
"261 56 CURVE SMOOTH",
"310 56 OFFCURVE",
"361 58 OFFCURVE",
"412 62 CURVE SMOOTH"
);
},
{
closed = 1;
nodes = (
"385 279 LINE",
"385 402 OFFCURVE",
"348 447 OFFCURVE",
"260 447 CURVE SMOOTH",
"171 447 OFFCURVE",
"126 396 OFFCURVE",
"125 279 CURVE"
);
},
{
closed = 1;
nodes = (
"169 726 LINE",
"172 675 OFFCURVE",
"204 642 OFFCURVE",
"257 642 CURVE SMOOTH",
"309 642 OFFCURVE",
"342 675 OFFCURVE",
"343 726 CURVE",
"405 726 LINE",
"401 646 OFFCURVE",
"344 586 OFFCURVE",
"257 586 CURVE SMOOTH",
"169 586 OFFCURVE",
"112 646 OFFCURVE",
"108 726 CURVE"
);
}
);
width = 505;
}
);
leftKerningGroup = c;
rightKerningGroup = e;
unicode = 0115;
},
{
glyphname = Edotaccent;
layers = (
{
layerId = "7BE58B69-D6A5-4645-9194-9194354D517E";
name = Regular;
paths = (
{
closed = 1;
nodes = (
"85 0 LINE",
"85 692 LINE",
"506 692 LINE",
"506 624 LINE",
"162 624 LINE",
"162 385 LINE",
"446 385 LINE",
"446 318 LINE",
"162 318 LINE",
"162 68 LINE",
"506 68 LINE",
"506 0 LINE"
);
},
{
closed = 1;
nodes = (
"260 801 LINE",
"260 888 LINE",
"334 888 LINE",
"334 801 LINE"
);
}
);
width = 553;
}
);
leftKerningGroup = B;
rightKerningGroup = E;
unicode = 0116;
},
{
glyphname = edotaccent;
layers = (
{
layerId = "7BE58B69-D6A5-4645-9194-9194354D517E";
name = Regular;
paths = (
{
closed = 1;
nodes = (
"441 65 LINE",
"443 6 LINE",
"367 -5 OFFCURVE",
"302 -10 OFFCURVE",
"248 -10 CURVE SMOOTH",
"104 -10 OFFCURVE",
"50 71 OFFCURVE",
"50 247 CURVE SMOOTH",
"50 422 OFFCURVE",
"120 510 OFFCURVE",
"259 510 CURVE SMOOTH",
"394 510 OFFCURVE",
"460 437 OFFCURVE",
"460 276 CURVE",
"456 219 LINE",
"126 219 LINE",
"126 108 OFFCURVE",
"161 56 OFFCURVE",
"261 56 CURVE SMOOTH",
"310 56 OFFCURVE",
"361 58 OFFCURVE",
"412 62 CURVE SMOOTH"
);
},
{
closed = 1;
nodes = (
"385 279 LINE",
"385 402 OFFCURVE",
"348 447 OFFCURVE",
"260 447 CURVE SMOOTH",
"171 447 OFFCURVE",
"126 396 OFFCURVE",
"125 279 CURVE"
);
},
{
closed = 1;
nodes = (
"217 609 LINE",
"217 696 LINE",
"291 696 LINE",
"291 609 LINE"
);
}
);
width = 505;
}
);
leftKerningGroup = c;
rightKerningGroup = e;
unicode = 0117;
},
{
glyphname = Eogonek;
layers = (
{
layerId = "7BE58B69-D6A5-4645-9194-9194354D517E";
name = Regular;
paths = (
{
closed = 1;
nodes = (
"85 0 LINE",
"85 692 LINE",
"506 692 LINE",
"506 624 LINE",
"162 624 LINE",
"162 385 LINE",
"446 385 LINE",
"446 318 LINE",
"162 318 LINE",
"162 68 LINE",
"506 68 LINE",
"506 0 LINE",
"477 0 LINE",
"430 -47 OFFCURVE",
"407 -81 OFFCURVE",
"407 -102 CURVE SMOOTH",
"407 -127 OFFCURVE",
"424 -145 OFFCURVE",
"448 -145 CURVE",
"498 -139 LINE",
"505 -197 LINE",
"475 -203 OFFCURVE",
"448 -206 OFFCURVE",
"423 -206 CURVE SMOOTH",
"374 -206 OFFCURVE",
"334 -171 OFFCURVE",
"334 -123 CURVE SMOOTH",
"334 -76 OFFCURVE",
"375 -29 OFFCURVE",
"408 0 CURVE"
);
}
);
width = 553;
}
);
leftKerningGroup = B;
rightKerningGroup = E;
unicode = 0118;
},
{
glyphname = eogonek;
layers = (
{
layerId = "7BE58B69-D6A5-4645-9194-9194354D517E";
name = Regular;
paths = (
{
closed = 1;
nodes = (
"343 -127 OFFCURVE",
"360 -145 OFFCURVE",
"384 -145 CURVE",
"434 -139 LINE",
"441 -197 LINE",
"411 -203 OFFCURVE",
"384 -206 OFFCURVE",
"359 -206 CURVE SMOOTH",
"310 -206 OFFCURVE",
"270 -174 OFFCURVE",
"270 -114 CURVE SMOOTH",
"270 -85 OFFCURVE",
"293 -48 OFFCURVE",
"338 -5 CURVE",
"303 -8 OFFCURVE",
"273 -10 OFFCURVE",
"248 -10 CURVE SMOOTH",
"104 -10 OFFCURVE",
"50 71 OFFCURVE",
"50 247 CURVE SMOOTH",
"50 422 OFFCURVE",
"120 510 OFFCURVE",
"259 510 CURVE SMOOTH",
"394 510 OFFCURVE",
"460 437 OFFCURVE",
"460 276 CURVE",
"456 219 LINE",
"126 219 LINE",
"126 108 OFFCURVE",
"162 56 OFFCURVE",
"257 56 CURVE SMOOTH",
"309 56 OFFCURVE",
"361 58 OFFCURVE",
"412 62 CURVE SMOOTH",
"441 65 LINE",
"443 6 LINE",
"432 5 OFFCURVE",
"421 3 OFFCURVE",
"408 1 CURVE",
"414 1 LINE",
"367 -46 OFFCURVE",
"343 -80 OFFCURVE",
"343 -102 CURVE SMOOTH"
);
},
{
closed = 1;
nodes = (
"385 279 LINE",
"385 402 OFFCURVE",
"348 447 OFFCURVE",
"260 447 CURVE SMOOTH",
"171 447 OFFCURVE",
"126 396 OFFCURVE",
"125 279 CURVE"
);
}
);
width = 506;
}
);
leftKerningGroup = c;
rightKerningGroup = e;
unicode = 0119;
},
{
glyphname = Ecaron;
layers = (
{
layerId = "7BE58B69-D6A5-4645-9194-9194354D517E";
name = Regular;
paths = (
{
closed = 1;
nodes = (
"85 0 LINE",
"85 692 LINE",
"506 692 LINE",
"506 624 LINE",
"162 624 LINE",
"162 385 LINE",
"446 385 LINE",
"446 318 LINE",
"162 318 LINE",
"162 68 LINE",
"506 68 LINE",
"506 0 LINE"
);
},
{
closed = 1;
nodes = (
"258 791 LINE",
"124 926 LINE",
"208 926 LINE",
"291 846 LINE",
"373 926 LINE",
"457 926 LINE",
"323 791 LINE"
);
}
);
width = 553;
}
);
leftKerningGroup = B;
rightKerningGroup = E;
unicode = 011A;
},
{
glyphname = ecaron;
layers = (
{
layerId = "7BE58B69-D6A5-4645-9194-9194354D517E";
name = Regular;
paths = (
{
closed = 1;
nodes = (
"441 65 LINE",
"443 6 LINE",
"367 -5 OFFCURVE",
"302 -10 OFFCURVE",
"248 -10 CURVE SMOOTH",
"104 -10 OFFCURVE",
"50 71 OFFCURVE",
"50 247 CURVE SMOOTH",
"50 422 OFFCURVE",
"120 510 OFFCURVE",
"259 510 CURVE SMOOTH",
"394 510 OFFCURVE",
"460 437 OFFCURVE",
"460 276 CURVE",
"456 219 LINE",
"126 219 LINE",
"126 108 OFFCURVE",
"161 56 OFFCURVE",
"261 56 CURVE SMOOTH",
"310 56 OFFCURVE",
"361 58 OFFCURVE",
"412 62 CURVE SMOOTH"
);
},
{
closed = 1;
nodes = (
"385 279 LINE",
"385 402 OFFCURVE",
"348 447 OFFCURVE",
"260 447 CURVE SMOOTH",
"171 447 OFFCURVE",
"126 396 OFFCURVE",
"125 279 CURVE"
);
},
{
closed = 1;
nodes = (
"227 592 LINE",
"104 732 LINE",
"178 732 LINE",
"253 645 LINE",
"327 732 LINE",
"402 732 LINE",
"277 592 LINE"
);
}
);
width = 505;
}
);
leftKerningGroup = c;
rightKerningGroup = e;
unicode = 011B;
},
{
glyphname = Gcircumflex;
layers = (
{
layerId = "7BE58B69-D6A5-4645-9194-9194354D517E";
name = Regular;
paths = (
{
closed = 1;
nodes = (
"359 287 LINE",
"359 356 LINE",
"550 356 LINE",
"550 16 LINE",
"466 0 OFFCURVE",
"391 -8 OFFCURVE",
"325 -8 CURVE SMOOTH",
"124 -8 OFFCURVE",
"57 106 OFFCURVE",
"57 348 CURVE SMOOTH",
"57 590 OFFCURVE",
"124 704 OFFCURVE",
"323 704 CURVE SMOOTH",
"385 704 OFFCURVE",
"449 697 OFFCURVE",
"516 684 CURVE SMOOTH",
"550 678 LINE",
"547 614 LINE",
"464 628 OFFCURVE",
"393 635 OFFCURVE",
"332 635 CURVE SMOOTH",
"179 635 OFFCURVE",
"137 554 OFFCURVE",
"137 348 CURVE SMOOTH",
"137 142 OFFCURVE",
"179 60 OFFCURVE",
"331 60 CURVE SMOOTH",
"378 60 OFFCURVE",
"425 65 OFFCURVE",
"474 74 CURVE",
"474 287 LINE"
);
},
{
closed = 1;
nodes = (
"156 788 LINE",
"290 923 LINE",
"355 923 LINE",
"489 788 LINE",
"405 788 LINE",
"323 868 LINE",
"240 788 LINE"
);
}
);
width = 616;
}
);
leftKerningGroup = G;
rightKerningGroup = G;
unicode = 011C;
},
{
glyphname = gcircumflex;
layers = (
{
layerId = "7BE58B69-D6A5-4645-9194-9194354D517E";
name = Regular;
paths = (
{
closed = 1;
nodes = (
"105 -235 OFFCURVE",
"50 -199 OFFCURVE",
"50 -84 CURVE SMOOTH",
"50 -29 OFFCURVE",
"72 -3 OFFCURVE",
"129 40 CURVE",
"110 53 OFFCURVE",
"101 76 OFFCURVE",
"101 109 CURVE SMOOTH",
"101 120 OFFCURVE",
"109 141 OFFCURVE",
"126 172 CURVE SMOOTH",
"135 188 LINE",
"82 212 OFFCURVE",
"56 262 OFFCURVE",
"56 339 CURVE SMOOTH",
"56 453 OFFCURVE",
"118 510 OFFCURVE",
"243 510 CURVE SMOOTH",
"275 510 OFFCURVE",
"305 507 OFFCURVE",
"332 500 CURVE",
"347 497 LINE",
"495 501 LINE",
"495 437 LINE",
"400 439 LINE",
"422 417 OFFCURVE",
"433 384 OFFCURVE",
"433 339 CURVE SMOOTH",
"433 214 OFFCURVE",
"373 170 OFFCURVE",
"240 170 CURVE SMOOTH",
"222 170 OFFCURVE",
"206 171 OFFCURVE",
"191 174 CURVE",
"179 145 OFFCURVE",
"173 126 OFFCURVE",
"173 117 CURVE SMOOTH",
"173 96 OFFCURVE",
"179 84 OFFCURVE",
"192 79 CURVE SMOOTH",
"205 74 OFFCURVE",
"243 71 OFFCURVE",
"307 71 CURVE SMOOTH",
"435 71 OFFCURVE",
"487 40 OFFCURVE",
"487 -76 CURVE SMOOTH",
"487 -182 OFFCURVE",
"413 -235 OFFCURVE",
"265 -235 CURVE SMOOTH"
);
},
{
closed = 1;
nodes = (
"124 -149 OFFCURVE",
"157 -172 OFFCURVE",
"263 -172 CURVE SMOOTH",
"369 -172 OFFCURVE",
"411 -145 OFFCURVE",
"411 -76 CURVE SMOOTH",
"411 -8 OFFCURVE",
"385 5 OFFCURVE",
"288 5 CURVE",
"180 10 LINE",
"136 -22 OFFCURVE",
"124 -41 OFFCURVE",
"124 -78 CURVE SMOOTH"
);
},
{
closed = 1;
nodes = (
"131 260 OFFCURVE",
"164 230 OFFCURVE",
"245 230 CURVE SMOOTH",
"326 230 OFFCURVE",
"358 260 OFFCURVE",
"358 340 CURVE SMOOTH",
"358 419 OFFCURVE",
"326 449 OFFCURVE",
"245 449 CURVE SMOOTH",
"164 449 OFFCURVE",
"131 418 OFFCURVE",
"131 339 CURVE SMOOTH"
);
},
{
closed = 1;
nodes = (
"113 592 LINE",
"236 732 LINE",
"287 732 LINE",
"411 592 LINE",
"336 592 LINE",
"263 679 LINE",
"188 592 LINE"
);
}
);
width = 514;
}
);
leftKerningGroup = g;
rightKerningGroup = g;
unicode = 011D;
},
{
glyphname = Gbreve;
layers = (
{
layerId = "7BE58B69-D6A5-4645-9194-9194354D517E";
name = Regular;
paths = (
{
closed = 1;
nodes = (
"359 285 LINE",
"359 354 LINE",
"550 354 LINE",
"550 14 LINE",
"466 -2 OFFCURVE",
"391 -10 OFFCURVE",
"325 -10 CURVE SMOOTH",
"124 -10 OFFCURVE",
"57 104 OFFCURVE",
"57 346 CURVE SMOOTH",
"57 588 OFFCURVE",
"124 702 OFFCURVE",
"323 702 CURVE SMOOTH",
"385 702 OFFCURVE",
"449 695 OFFCURVE",
"516 682 CURVE SMOOTH",
"550 676 LINE",
"547 612 LINE",
"464 626 OFFCURVE",
"393 633 OFFCURVE",
"332 633 CURVE SMOOTH",
"179 633 OFFCURVE",
"137 552 OFFCURVE",
"137 346 CURVE SMOOTH",
"137 140 OFFCURVE",
"179 58 OFFCURVE",
"331 58 CURVE SMOOTH",
"378 58 OFFCURVE",
"425 63 OFFCURVE",
"474 72 CURVE",
"474 285 LINE"
);
},
{
closed = 1;
nodes = (
"240 918 LINE",
"241 874 OFFCURVE",
"280 843 OFFCURVE",
"329 843 CURVE SMOOTH",
"377 843 OFFCURVE",
"415 874 OFFCURVE",
"416 918 CURVE",
"486 918 LINE",
"482 839 OFFCURVE",
"420 787 OFFCURVE",
"328 787 CURVE SMOOTH",
"236 787 OFFCURVE",
"175 839 OFFCURVE",
"171 918 CURVE"
);
}
);
width = 616;
}
);
leftKerningGroup = G;
rightKerningGroup = G;
unicode = 011E;
},
{
glyphname = gbreve;
layers = (
{
layerId = "7BE58B69-D6A5-4645-9194-9194354D517E";
name = Regular;
paths = (
{
closed = 1;
nodes = (
"105 -235 OFFCURVE",
"50 -199 OFFCURVE",
"50 -84 CURVE SMOOTH",
"50 -29 OFFCURVE",
"72 -3 OFFCURVE",
"129 40 CURVE",
"110 53 OFFCURVE",
"101 76 OFFCURVE",
"101 109 CURVE SMOOTH",
"101 120 OFFCURVE",
"109 141 OFFCURVE",
"126 172 CURVE SMOOTH",
"135 188 LINE",
"82 212 OFFCURVE",
"56 262 OFFCURVE",
"56 339 CURVE SMOOTH",
"56 453 OFFCURVE",
"118 510 OFFCURVE",
"243 510 CURVE SMOOTH",
"275 510 OFFCURVE",
"305 507 OFFCURVE",
"332 500 CURVE",
"347 497 LINE",
"495 501 LINE",
"495 437 LINE",
"400 439 LINE",
"422 417 OFFCURVE",
"433 384 OFFCURVE",
"433 339 CURVE SMOOTH",
"433 214 OFFCURVE",
"373 170 OFFCURVE",
"240 170 CURVE SMOOTH",
"222 170 OFFCURVE",
"206 171 OFFCURVE",
"191 174 CURVE",
"179 145 OFFCURVE",
"173 126 OFFCURVE",
"173 117 CURVE SMOOTH",
"173 96 OFFCURVE",
"179 84 OFFCURVE",
"192 79 CURVE SMOOTH",
"205 74 OFFCURVE",
"243 71 OFFCURVE",
"307 71 CURVE SMOOTH",
"435 71 OFFCURVE",
"487 40 OFFCURVE",
"487 -76 CURVE SMOOTH",
"487 -182 OFFCURVE",
"413 -235 OFFCURVE",
"265 -235 CURVE SMOOTH"
);
},
{
closed = 1;
nodes = (
"124 -149 OFFCURVE",
"157 -172 OFFCURVE",
"263 -172 CURVE SMOOTH",
"369 -172 OFFCURVE",
"411 -145 OFFCURVE",
"411 -76 CURVE SMOOTH",
"411 -8 OFFCURVE",
"385 5 OFFCURVE",
"288 5 CURVE",
"180 10 LINE",
"136 -22 OFFCURVE",
"124 -41 OFFCURVE",
"124 -78 CURVE SMOOTH"
);
},
{
closed = 1;
nodes = (
"131 260 OFFCURVE",
"164 230 OFFCURVE",
"245 230 CURVE SMOOTH",
"326 230 OFFCURVE",
"358 260 OFFCURVE",
"358 340 CURVE SMOOTH",
"358 419 OFFCURVE",
"326 449 OFFCURVE",
"245 449 CURVE SMOOTH",
"164 449 OFFCURVE",
"131 418 OFFCURVE",
"131 339 CURVE SMOOTH"
);
},
{
closed = 1;
nodes = (
"174 726 LINE",
"177 675 OFFCURVE",
"209 642 OFFCURVE",
"262 642 CURVE SMOOTH",
"314 642 OFFCURVE",
"347 675 OFFCURVE",
"348 726 CURVE",
"410 726 LINE",
"406 646 OFFCURVE",
"349 586 OFFCURVE",
"262 586 CURVE SMOOTH",
"174 586 OFFCURVE",
"117 646 OFFCURVE",
"113 726 CURVE"
);
}
);
width = 514;
}
);
leftKerningGroup = g;
rightKerningGroup = g;
unicode = 011F;
},
{
glyphname = Gdotaccent;
layers = (
{
layerId = "7BE58B69-D6A5-4645-9194-9194354D517E";
name = Regular;
paths = (
{
closed = 1;
nodes = (
"359 285 LINE",
"359 354 LINE",
"550 354 LINE",
"550 14 LINE",
"466 -2 OFFCURVE",
"391 -10 OFFCURVE",
"325 -10 CURVE SMOOTH",
"124 -10 OFFCURVE",
"57 104 OFFCURVE",
"57 346 CURVE SMOOTH",
"57 588 OFFCURVE",
"124 702 OFFCURVE",
"323 702 CURVE SMOOTH",
"385 702 OFFCURVE",
"449 695 OFFCURVE",
"516 682 CURVE SMOOTH",
"550 676 LINE",
"547 612 LINE",
"464 626 OFFCURVE",
"393 633 OFFCURVE",
"332 633 CURVE SMOOTH",
"179 633 OFFCURVE",
"137 552 OFFCURVE",
"137 346 CURVE SMOOTH",
"137 140 OFFCURVE",
"179 58 OFFCURVE",
"331 58 CURVE SMOOTH",
"378 58 OFFCURVE",
"425 63 OFFCURVE",
"474 72 CURVE",
"474 285 LINE"
);
},
{
closed = 1;
nodes = (
"276 801 LINE",
"276 888 LINE",
"350 888 LINE",
"350 801 LINE"
);
}
);
width = 616;
}
);
leftKerningGroup = G;
rightKerningGroup = G;
unicode = 0120;
},
{
glyphname = gdotaccent;
layers = (
{
layerId = "7BE58B69-D6A5-4645-9194-9194354D517E";
name = Regular;
paths = (
{
closed = 1;
nodes = (
"105 -235 OFFCURVE",
"50 -199 OFFCURVE",
"50 -84 CURVE SMOOTH",
"50 -29 OFFCURVE",
"72 -3 OFFCURVE",
"129 40 CURVE",
"110 53 OFFCURVE",
"101 76 OFFCURVE",
"101 109 CURVE SMOOTH",
"101 120 OFFCURVE",
"109 141 OFFCURVE",
"126 172 CURVE SMOOTH",
"135 188 LINE",
"82 212 OFFCURVE",
"56 262 OFFCURVE",
"56 339 CURVE SMOOTH",
"56 453 OFFCURVE",
"118 510 OFFCURVE",
"243 510 CURVE SMOOTH",
"275 510 OFFCURVE",
"305 507 OFFCURVE",
"332 500 CURVE",
"347 497 LINE",
"495 501 LINE",
"495 437 LINE",
"400 439 LINE",
"422 417 OFFCURVE",
"433 384 OFFCURVE",
"433 339 CURVE SMOOTH",
"433 214 OFFCURVE",
"373 170 OFFCURVE",
"240 170 CURVE SMOOTH",
"222 170 OFFCURVE",
"206 171 OFFCURVE",
"191 174 CURVE",
"179 145 OFFCURVE",
"173 126 OFFCURVE",
"173 117 CURVE SMOOTH",
"173 96 OFFCURVE",
"179 84 OFFCURVE",
"192 79 CURVE SMOOTH",
"205 74 OFFCURVE",
"243 71 OFFCURVE",
"307 71 CURVE SMOOTH",
"435 71 OFFCURVE",
"487 40 OFFCURVE",
"487 -76 CURVE SMOOTH",
"487 -182 OFFCURVE",
"413 -235 OFFCURVE",
"265 -235 CURVE SMOOTH"
);
},
{
closed = 1;
nodes = (
"124 -149 OFFCURVE",
"157 -172 OFFCURVE",
"263 -172 CURVE SMOOTH",
"369 -172 OFFCURVE",
"411 -145 OFFCURVE",
"411 -76 CURVE SMOOTH",
"411 -8 OFFCURVE",
"385 5 OFFCURVE",
"288 5 CURVE",
"180 10 LINE",
"136 -22 OFFCURVE",
"124 -41 OFFCURVE",
"124 -78 CURVE SMOOTH"
);
},
{
closed = 1;
nodes = (
"131 260 OFFCURVE",
"164 230 OFFCURVE",
"245 230 CURVE SMOOTH",
"326 230 OFFCURVE",
"358 260 OFFCURVE",
"358 340 CURVE SMOOTH",
"358 419 OFFCURVE",
"326 449 OFFCURVE",
"245 449 CURVE SMOOTH",
"164 449 OFFCURVE",
"131 418 OFFCURVE",
"131 339 CURVE SMOOTH"
);
},
{
closed = 1;
nodes = (
"224 609 LINE",
"224 696 LINE",
"298 696 LINE",
"298 609 LINE"
);
}
);
width = 514;
}
);
leftKerningGroup = g;
rightKerningGroup = g;
unicode = 0121;
},
{
glyphname = Gcommaaccent;
layers = (
{
layerId = "7BE58B69-D6A5-4645-9194-9194354D517E";
name = Regular;
paths = (
{
closed = 1;
nodes = (
"359 285 LINE",
"359 354 LINE",
"550 354 LINE",
"550 14 LINE",
"466 -2 OFFCURVE",
"391 -10 OFFCURVE",
"325 -10 CURVE SMOOTH",
"124 -10 OFFCURVE",
"57 104 OFFCURVE",
"57 346 CURVE SMOOTH",
"57 588 OFFCURVE",
"124 702 OFFCURVE",
"323 702 CURVE SMOOTH",
"385 702 OFFCURVE",
"449 695 OFFCURVE",
"516 682 CURVE SMOOTH",
"550 676 LINE",
"547 612 LINE",
"464 626 OFFCURVE",
"393 633 OFFCURVE",
"332 633 CURVE SMOOTH",
"179 633 OFFCURVE",
"137 552 OFFCURVE",
"137 346 CURVE SMOOTH",
"137 140 OFFCURVE",
"179 58 OFFCURVE",
"331 58 CURVE SMOOTH",
"378 58 OFFCURVE",
"425 63 OFFCURVE",
"474 72 CURVE",
"474 285 LINE"
);
},
{
closed = 1;
nodes = (
"301 -78 LINE",
"375 -78 LINE",
"325 -285 LINE",
"260 -285 LINE"
);
}
);
width = 616;
}
);
leftKerningGroup = G;
rightKerningGroup = G;
unicode = 0122;
},
{
glyphname = gcommaaccent;
layers = (
{
layerId = "7BE58B69-D6A5-4645-9194-9194354D517E";
name = Regular;
paths = (
{
closed = 1;
nodes = (
"307 796 LINE",
"266 589 LINE",
"192 589 LINE",
"242 796 LINE"
);
},
{
closed = 1;
nodes = (
"105 -235 OFFCURVE",
"50 -199 OFFCURVE",
"50 -84 CURVE SMOOTH",
"50 -29 OFFCURVE",
"72 -3 OFFCURVE",
"129 40 CURVE",
"110 53 OFFCURVE",
"101 76 OFFCURVE",
"101 109 CURVE SMOOTH",
"101 120 OFFCURVE",
"109 141 OFFCURVE",
"126 172 CURVE SMOOTH",
"135 188 LINE",
"82 212 OFFCURVE",
"56 262 OFFCURVE",
"56 339 CURVE SMOOTH",
"56 453 OFFCURVE",
"118 510 OFFCURVE",
"243 510 CURVE SMOOTH",
"275 510 OFFCURVE",
"305 507 OFFCURVE",
"332 500 CURVE",
"347 497 LINE",
"495 501 LINE",
"495 437 LINE",
"400 439 LINE",
"422 417 OFFCURVE",
"433 384 OFFCURVE",
"433 339 CURVE SMOOTH",
"433 214 OFFCURVE",
"373 170 OFFCURVE",
"240 170 CURVE SMOOTH",
"222 170 OFFCURVE",
"206 171 OFFCURVE",
"191 174 CURVE",
"179 145 OFFCURVE",
"173 126 OFFCURVE",
"173 117 CURVE SMOOTH",
"173 96 OFFCURVE",
"179 84 OFFCURVE",
"192 79 CURVE SMOOTH",
"205 74 OFFCURVE",
"243 71 OFFCURVE",
"307 71 CURVE SMOOTH",
"435 71 OFFCURVE",
"487 40 OFFCURVE",
"487 -76 CURVE SMOOTH",
"487 -182 OFFCURVE",
"413 -235 OFFCURVE",
"265 -235 CURVE SMOOTH"
);
},
{
closed = 1;
nodes = (
"124 -149 OFFCURVE",
"157 -172 OFFCURVE",
"263 -172 CURVE SMOOTH",
"369 -172 OFFCURVE",
"411 -145 OFFCURVE",
"411 -76 CURVE SMOOTH",
"411 -8 OFFCURVE",
"385 5 OFFCURVE",
"288 5 CURVE",
"180 10 LINE",
"136 -22 OFFCURVE",
"124 -41 OFFCURVE",
"124 -78 CURVE SMOOTH"
);
},
{
closed = 1;
nodes = (
"131 260 OFFCURVE",
"164 230 OFFCURVE",
"245 230 CURVE SMOOTH",
"326 230 OFFCURVE",
"358 260 OFFCURVE",
"358 340 CURVE SMOOTH",
"358 419 OFFCURVE",
"326 449 OFFCURVE",
"245 449 CURVE SMOOTH",
"164 449 OFFCURVE",
"131 418 OFFCURVE",
"131 339 CURVE SMOOTH"
);
}
);
width = 514;
}
);
leftKerningGroup = g;
rightKerningGroup = g;
unicode = 0123;
},
{
glyphname = Hcircumflex;
layers = (
{
layerId = "7BE58B69-D6A5-4645-9194-9194354D517E";
name = Regular;
paths = (
{
closed = 1;
nodes = (
"514 0 LINE",
"514 313 LINE",
"162 313 LINE",
"162 0 LINE",
"85 0 LINE",
"85 692 LINE",
"162 692 LINE",
"162 382 LINE",
"514 382 LINE",
"514 692 LINE",
"590 692 LINE",
"590 0 LINE"
);
},
{
closed = 1;
nodes = (
"172 791 LINE",
"306 926 LINE",
"371 926 LINE",
"505 791 LINE",
"421 791 LINE",
"339 871 LINE",
"256 791 LINE"
);
}
);
width = 675;
}
);
leftKerningGroup = B;
rightKerningGroup = H;
unicode = 0124;
},
{
glyphname = hcircumflex;
layers = (
{
layerId = "7BE58B69-D6A5-4645-9194-9194354D517E";
name = Regular;
paths = (
{
closed = 1;
nodes = (
"147 0 LINE",
"72 0 LINE",
"72 718 LINE",
"147 718 LINE",
"147 472 LINE",
"200 497 OFFCURVE",
"252 510 OFFCURVE",
"301 510 CURVE SMOOTH",
"434 510 OFFCURVE",
"470 448 OFFCURVE",
"470 264 CURVE SMOOTH",
"470 0 LINE",
"395 0 LINE",
"395 262 LINE SMOOTH",
"395 401 OFFCURVE",
"376 443 OFFCURVE",
"288 443 CURVE SMOOTH",
"246 443 OFFCURVE",
"205 435 OFFCURVE",
"166 420 CURVE SMOOTH",
"147 413 LINE"
);
},
{
closed = 1;
nodes = (
"118 774 LINE",
"241 914 LINE",
"292 914 LINE",
"416 774 LINE",
"341 774 LINE",
"268 861 LINE",
"193 774 LINE"
);
}
);
width = 537;
}
);
leftKerningGroup = h;
rightKerningGroup = h;
unicode = 0125;
},
{
glyphname = Hbar;
layers = (
{
layerId = "7BE58B69-D6A5-4645-9194-9194354D517E";
name = Regular;
paths = (
{
closed = 1;
nodes = (
"15 508 LINE",
"15 573 LINE",
"89 573 LINE",
"89 692 LINE",
"166 692 LINE",
"166 573 LINE",
"518 573 LINE",
"518 692 LINE",
"594 692 LINE",
"594 573 LINE",
"677 573 LINE",
"677 508 LINE",
"594 508 LINE",
"594 0 LINE",
"518 0 LINE",
"518 313 LINE",
"166 313 LINE",
"166 0 LINE",
"89 0 LINE",
"89 508 LINE"
);
},
{
closed = 1;
nodes = (
"166 382 LINE",
"518 382 LINE",
"518 508 LINE",
"166 508 LINE"
);
}
);
width = 686;
}
);
leftKerningGroup = B;
rightKerningGroup = H;
unicode = 0126;
},
{
glyphname = hbar;
layers = (
{
layerId = "7BE58B69-D6A5-4645-9194-9194354D517E";
name = Regular;
paths = (
{
closed = 1;
nodes = (
"10 580 LINE",
"10 646 LINE",
"72 646 LINE",
"72 718 LINE",
"147 718 LINE",
"147 646 LINE",
"301 646 LINE",
"301 580 LINE",
"147 580 LINE",
"147 472 LINE",
"200 497 OFFCURVE",
"252 510 OFFCURVE",
"301 510 CURVE SMOOTH",
"434 510 OFFCURVE",
"470 448 OFFCURVE",
"470 264 CURVE SMOOTH",
"470 0 LINE",
"395 0 LINE",
"395 262 LINE SMOOTH",
"395 401 OFFCURVE",
"376 443 OFFCURVE",
"288 443 CURVE SMOOTH",
"246 443 OFFCURVE",
"205 435 OFFCURVE",
"166 420 CURVE SMOOTH",
"147 413 LINE",
"147 0 LINE",
"72 0 LINE",
"72 580 LINE"
);
}
);
width = 537;
}
);
leftKerningGroup = h;
rightKerningGroup = h;
unicode = 0127;
},
{
glyphname = Itilde;
layers = (
{
layerId = "7BE58B69-D6A5-4645-9194-9194354D517E";
name = Regular;
paths = (
{
closed = 1;
nodes = (
"85 0 LINE",
"85 692 LINE",
"162 692 LINE",
"162 0 LINE"
);
},
{
closed = 1;
nodes = (
"185 803 OFFCURVE",
"157 812 OFFCURVE",
"116 830 CURVE SMOOTH",
"75 848 OFFCURVE",
"50 857 OFFCURVE",
"42 857 CURVE SMOOTH",
"27 857 OFFCURVE",
"6 845 OFFCURVE",
"-20 821 CURVE SMOOTH",
"-33 809 LINE",
"-50 865 LINE",
"-25 894 OFFCURVE",
"14 923 OFFCURVE",
"44 923 CURVE SMOOTH",
"59 923 OFFCURVE",
"87 914 OFFCURVE",
"128 896 CURVE SMOOTH",
"169 878 OFFCURVE",
"193 869 OFFCURVE",
"200 869 CURVE SMOOTH",
"213 869 OFFCURVE",
"231 881 OFFCURVE",
"256 904 CURVE",
"269 915 LINE",
"287 859 LINE",
"256 822 OFFCURVE",
"227 803 OFFCURVE",
"200 803 CURVE SMOOTH"
);
}
);
width = 246;
}
);
leftKerningGroup = B;
rightKerningGroup = H;
unicode = 0128;
},
{
glyphname = itilde;
layers = (
{
layerId = "7BE58B69-D6A5-4645-9194-9194354D517E";
name = Regular;
paths = (
{
closed = 1;
nodes = (
"72 500 LINE",
"147 500 LINE",
"147 0 LINE",
"72 0 LINE"
);
},
{
closed = 1;
nodes = (
"169 612 OFFCURVE",
"145 620 OFFCURVE",
"111 636 CURVE",
"76 651 OFFCURVE",
"55 659 OFFCURVE",
"46 659 CURVE SMOOTH",
"31 659 OFFCURVE",
"10 649 OFFCURVE",
"-16 629 CURVE SMOOTH",
"-29 619 LINE",
"-47 667 LINE",
"-14 702 OFFCURVE",
"17 719 OFFCURVE",
"44 719 CURVE SMOOTH",
"58 719 OFFCURVE",
"82 711 OFFCURVE",
"117 696 CURVE SMOOTH",
"152 681 OFFCURVE",
"173 673 OFFCURVE",
"180 673 CURVE SMOOTH",
"195 673 OFFCURVE",
"215 683 OFFCURVE",
"240 702 CURVE SMOOTH",
"252 711 LINE",
"269 663 LINE",
"238 629 OFFCURVE",
"210 612 OFFCURVE",
"183 612 CURVE SMOOTH"
);
}
);
width = 219;
}
);
leftKerningGroup = i;
rightKerningGroup = i;
unicode = 0129;
},
{
glyphname = Imacron;
layers = (
{
layerId = "7BE58B69-D6A5-4645-9194-9194354D517E";
name = Regular;
paths = (
{
closed = 1;
nodes = (
"85 0 LINE",
"85 692 LINE",
"162 692 LINE",
"162 0 LINE"
);
},
{
closed = 1;
nodes = (
"-30 812 LINE",
"-30 870 LINE",
"281 870 LINE",
"281 812 LINE"
);
}
);
width = 246;
}
);
leftKerningGroup = B;
rightKerningGroup = H;
unicode = 012A;
},
{
glyphname = imacron;
layers = (
{
layerId = "7BE58B69-D6A5-4645-9194-9194354D517E";
name = Regular;
paths = (
{
closed = 1;
nodes = (
"72 500 LINE",
"147 500 LINE",
"147 0 LINE",
"72 0 LINE"
);
},
{
closed = 1;
nodes = (
"-28 624 LINE",
"-28 683 LINE",
"247 683 LINE",
"247 624 LINE"
);
}
);
width = 219;
}
);
leftKerningGroup = i;
rightKerningGroup = i;
unicode = 012B;
},
{
glyphname = Ibreve;
layers = (
{
layerId = "7BE58B69-D6A5-4645-9194-9194354D517E";
name = Regular;
paths = (
{
closed = 1;
nodes = (
"85 0 LINE",
"85 692 LINE",
"162 692 LINE",
"162 0 LINE"
);
},
{
closed = 1;
nodes = (
"86 850 OFFCURVE",
"106 843 OFFCURVE",
"131 843 CURVE SMOOTH",
"180 843 OFFCURVE",
"218 874 OFFCURVE",
"219 918 CURVE",
"289 918 LINE",
"285 839 OFFCURVE",
"223 787 OFFCURVE",
"131 787 CURVE SMOOTH",
"39 787 OFFCURVE",
"-22 839 OFFCURVE",
"-26 918 CURVE",
"43 918 LINE",
"44 896 OFFCURVE",
"52 878 OFFCURVE",
"69 864 CURVE SMOOTH"
);
}
);
width = 246;
}
);
leftKerningGroup = B;
rightKerningGroup = H;
unicode = 012C;
},
{
glyphname = ibreve;
layers = (
{
layerId = "7BE58B69-D6A5-4645-9194-9194354D517E";
name = Regular;
paths = (
{
closed = 1;
nodes = (
"72 500 LINE",
"147 500 LINE",
"147 0 LINE",
"72 0 LINE"
);
},
{
closed = 1;
nodes = (
"22 726 LINE",
"25 675 OFFCURVE",
"57 642 OFFCURVE",
"110 642 CURVE SMOOTH",
"162 642 OFFCURVE",
"195 675 OFFCURVE",
"196 726 CURVE",
"258 726 LINE",
"254 646 OFFCURVE",
"197 586 OFFCURVE",
"110 586 CURVE SMOOTH",
"22 586 OFFCURVE",
"-35 646 OFFCURVE",
"-39 726 CURVE"
);
}
);
width = 219;
}
);
leftKerningGroup = i;
rightKerningGroup = i;
unicode = 012D;
},
{
glyphname = Iogonek;
layers = (
{
layerId = "7BE58B69-D6A5-4645-9194-9194354D517E";
name = Regular;
paths = (
{
closed = 1;
nodes = (
"85 0 LINE",
"85 692 LINE",
"162 692 LINE",
"162 0 LINE",
"111 -46 OFFCURVE",
"86 -80 OFFCURVE",
"86 -102 CURVE SMOOTH",
"86 -127 OFFCURVE",
"103 -145 OFFCURVE",
"127 -145 CURVE",
"178 -139 LINE",
"185 -197 LINE",
"155 -203 OFFCURVE",
"128 -206 OFFCURVE",
"103 -206 CURVE SMOOTH",
"54 -206 OFFCURVE",
"14 -171 OFFCURVE",
"14 -123 CURVE SMOOTH",
"14 -76 OFFCURVE",
"55 -29 OFFCURVE",
"88 0 CURVE"
);
}
);
width = 246;
}
);
leftKerningGroup = B;
rightKerningGroup = H;
unicode = 012E;
},
{
glyphname = iogonek;
layers = (
{
layerId = "7BE58B69-D6A5-4645-9194-9194354D517E";
name = Regular;
paths = (
{
closed = 1;
nodes = (
"72 0 LINE",
"72 500 LINE",
"147 500 LINE",
"147 0 LINE",
"96 -45 OFFCURVE",
"71 -79 OFFCURVE",
"71 -102 CURVE SMOOTH",
"71 -127 OFFCURVE",
"88 -145 OFFCURVE",
"112 -145 CURVE",
"163 -139 LINE",
"170 -197 LINE",
"140 -203 OFFCURVE",
"113 -206 OFFCURVE",
"88 -206 CURVE SMOOTH",
"39 -206 OFFCURVE",
"-1 -172 OFFCURVE",
"-1 -119 CURVE SMOOTH",
"-1 -84 OFFCURVE",
"25 -44 OFFCURVE",
"76 0 CURVE"
);
},
{
closed = 1;
nodes = (
"72 613 LINE",
"72 700 LINE",
"147 700 LINE",
"147 613 LINE"
);
}
);
width = 219;
}
);
leftKerningGroup = i;
rightKerningGroup = i;
unicode = 012F;
},
{
glyphname = Idotaccent;
layers = (
{
layerId = "7BE58B69-D6A5-4645-9194-9194354D517E";
name = Regular;
paths = (
{
closed = 1;
nodes = (
"85 0 LINE",
"85 692 LINE",
"162 692 LINE",
"162 0 LINE"
);
},
{
closed = 1;
nodes = (
"86 801 LINE",
"86 888 LINE",
"160 888 LINE",
"160 801 LINE"
);
}
);
width = 246;
}
);
leftKerningGroup = B;
rightKerningGroup = H;
unicode = 0130;
},
{
glyphname = dotlessi;
layers = (
{
layerId = "7BE58B69-D6A5-4645-9194-9194354D517E";
name = Regular;
paths = (
{
closed = 1;
nodes = (
"72 0 LINE",
"72 500 LINE",
"147 500 LINE",
"147 0 LINE"
);
}
);
width = 219;
}
);
leftKerningGroup = i;
rightKerningGroup = i;
unicode = 0131;
},
{
glyphname = Jcircumflex;
layers = (
{
layerId = "7BE58B69-D6A5-4645-9194-9194354D517E";
name = Regular;
paths = (
{
closed = 1;
nodes = (
"18 -3 LINE",
"114 -3 OFFCURVE",
"131 7 OFFCURVE",
"131 106 CURVE SMOOTH",
"131 692 LINE",
"207 692 LINE",
"208 95 LINE SMOOTH",
"208 -17 OFFCURVE",
"180 -58 OFFCURVE",
"89 -69 CURVE SMOOTH",
"71 -71 OFFCURVE",
"47 -72 OFFCURVE",
"18 -72 CURVE"
);
},
{
closed = 1;
nodes = (
"2 788 LINE",
"136 923 LINE",
"201 923 LINE",
"335 788 LINE",
"251 788 LINE",
"169 868 LINE",
"86 788 LINE"
);
}
);
width = 289;
}
);
leftKerningGroup = J;
rightKerningGroup = J;
unicode = 0134;
},
{
glyphname = jcircumflex;
layers = (
{
layerId = "7BE58B69-D6A5-4645-9194-9194354D517E";
name = Regular;
paths = (
{
closed = 1;
nodes = (
"73 500 LINE",
"147 500 LINE",
"147 12 LINE SMOOTH",
"147 -111 OFFCURVE",
"114 -155 OFFCURVE",
"-19 -223 CURVE",
"-49 -165 LINE",
"54 -105 OFFCURVE",
"73 -79 OFFCURVE",
"73 13 CURVE SMOOTH"
);
},
{
closed = 1;
nodes = (
"-41 592 LINE",
"82 732 LINE",
"133 732 LINE",
"257 592 LINE",
"182 592 LINE",
"109 679 LINE",
"34 592 LINE"
);
}
);
width = 219;
}
);
leftKerningGroup = i;
rightKerningGroup = i;
unicode = 0135;
},
{
glyphname = Kcommaaccent;
layers = (
{
layerId = "7BE58B69-D6A5-4645-9194-9194354D517E";
name = Regular;
paths = (
{
closed = 1;
nodes = (
"162 0 LINE",
"85 0 LINE",
"85 696 LINE",
"162 696 LINE",
"162 375 LINE",
"275 379 LINE",
"452 696 LINE",
"541 696 LINE",
"343 348 LINE",
"552 0 LINE",
"461 0 LINE",
"277 306 LINE",
"162 302 LINE"
);
},
{
closed = 1;
nodes = (
"264 -78 LINE",
"338 -78 LINE",
"289 -285 LINE",
"224 -285 LINE"
);
}
);
width = 568;
}
);
leftKerningGroup = B;
rightKerningGroup = K;
unicode = 0136;
},
{
glyphname = kcommaaccent;
layers = (
{
layerId = "7BE58B69-D6A5-4645-9194-9194354D517E";
name = Regular;
paths = (
{
closed = 1;
nodes = (
"100 -285 LINE",
"140 -78 LINE",
"215 -78 LINE",
"165 -285 LINE"
);
},
{
closed = 1;
nodes = (
"147 0 LINE",
"72 0 LINE",
"72 718 LINE",
"147 718 LINE",
"147 294 LINE",
"225 298 LINE",
"368 500 LINE",
"453 500 LINE",
"290 270 LINE",
"460 0 LINE",
"375 0 LINE",
"226 232 LINE",
"147 229 LINE"
);
}
);
width = 479;
}
);
leftKerningGroup = h;
rightKerningGroup = k;
unicode = 0137;
},
{
glyphname = Lacute;
layers = (
{
layerId = "7BE58B69-D6A5-4645-9194-9194354D517E";
name = Regular;
paths = (
{
closed = 1;
nodes = (
"466 0 LINE",
"85 0 LINE",
"85 696 LINE",
"162 696 LINE",
"162 74 LINE",
"466 74 LINE"
);
},
{
closed = 1;
nodes = (
"134 831 LINE",
"350 931 LINE",
"376 865 LINE",
"157 778 LINE"
);
}
);
width = 479;
}
);
leftKerningGroup = B;
rightKerningGroup = L;
unicode = 0139;
},
{
glyphname = lacute;
layers = (
{
layerId = "7BE58B69-D6A5-4645-9194-9194354D517E";
name = Regular;
paths = (
{
closed = 1;
nodes = (
"78 0 LINE",
"78 718 LINE",
"153 718 LINE",
"153 0 LINE"
);
},
{
closed = 1;
nodes = (
"52 846 LINE",
"268 944 LINE",
"294 880 LINE",
"73 795 LINE"
);
}
);
width = 231;
}
);
leftKerningGroup = l;
rightKerningGroup = l;
unicode = 013A;
},
{
glyphname = Lcommaaccent;
layers = (
{
layerId = "7BE58B69-D6A5-4645-9194-9194354D517E";
name = Regular;
paths = (
{
closed = 1;
nodes = (
"241 -78 LINE",
"315 -78 LINE",
"265 -285 LINE",
"200 -285 LINE"
);
},
{
closed = 1;
nodes = (
"466 0 LINE",
"85 0 LINE",
"85 692 LINE",
"162 692 LINE",
"162 69 LINE",
"466 69 LINE"
);
}
);
width = 479;
}
);
leftKerningGroup = B;
rightKerningGroup = L;
unicode = 013B;
},
{
glyphname = lcommaaccent;
layers = (
{
layerId = "7BE58B69-D6A5-4645-9194-9194354D517E";
name = Regular;
paths = (
{
closed = 1;
nodes = (
"78 0 LINE",
"78 718 LINE",
"153 718 LINE",
"153 0 LINE"
);
},
{
closed = 1;
nodes = (
"74 -78 LINE",
"148 -78 LINE",
"98 -285 LINE",
"33 -285 LINE"
);
}
);
width = 231;
}
);
leftKerningGroup = l;
rightKerningGroup = l;
unicode = 013C;
},
{
glyphname = Lcaron;
layers = (
{
layerId = "7BE58B69-D6A5-4645-9194-9194354D517E";
name = Regular;
paths = (
{
closed = 1;
nodes = (
"439 696 LINE",
"439 462 LINE",
"366 462 LINE",
"366 696 LINE"
);
},
{
closed = 1;
nodes = (
"466 0 LINE",
"85 0 LINE",
"85 692 LINE",
"162 692 LINE",
"162 69 LINE",
"466 69 LINE"
);
}
);
width = 494;
}
);
leftKerningGroup = B;
rightKerningGroup = L;
unicode = 013D;
},
{
glyphname = lcaron;
layers = (
{
layerId = "7BE58B69-D6A5-4645-9194-9194354D517E";
name = Regular;
paths = (
{
closed = 1;
nodes = (
"255 683 LINE",
"329 683 LINE",
"280 476 LINE",
"214 476 LINE"
);
},
{
closed = 1;
nodes = (
"78 0 LINE",
"78 718 LINE",
"153 718 LINE",
"153 0 LINE"
);
}
);
width = 270;
}
);
leftKerningGroup = l;
rightKerningGroup = dcaron;
unicode = 013E;
},
{
glyphname = Lslash;
layers = (
{
layerId = "7BE58B69-D6A5-4645-9194-9194354D517E";
name = Regular;
paths = (
{
closed = 1;
nodes = (
"471 0 LINE",
"90 0 LINE",
"90 272 LINE",
"33 232 LINE",
"-4 284 LINE",
"90 350 LINE",
"90 692 LINE",
"167 692 LINE",
"167 404 LINE",
"309 503 LINE",
"346 452 LINE",
"167 326 LINE",
"167 69 LINE",
"471 69 LINE"
);
}
);
width = 483;
}
);
leftKerningGroup = B;
rightKerningGroup = L;
unicode = 0141;
},
{
glyphname = lslash;
layers = (
{
layerId = "7BE58B69-D6A5-4645-9194-9194354D517E";
name = Regular;
paths = (
{
closed = 1;
nodes = (
"114 0 LINE",
"114 279 LINE",
"47 232 LINE",
"10 284 LINE",
"114 357 LINE",
"114 718 LINE",
"189 718 LINE",
"189 409 LINE",
"263 461 LINE",
"300 409 LINE",
"189 331 LINE",
"189 0 LINE"
);
}
);
width = 310;
}
);
leftKerningGroup = l;
rightKerningGroup = l;
unicode = 0142;
},
{
glyphname = Nacute;
layers = (
{
layerId = "7BE58B69-D6A5-4645-9194-9194354D517E";
name = Regular;
paths = (
{
closed = 1;
nodes = (
"85 0 LINE",
"85 692 LINE",
"229 692 LINE",
"494 68 LINE",
"515 68 LINE",
"515 692 LINE",
"591 692 LINE",
"591 0 LINE",
"450 0 LINE",
"181 624 LINE",
"162 624 LINE",
"162 0 LINE"
);
},
{
closed = 1;
nodes = (
"220 831 LINE",
"436 931 LINE",
"462 865 LINE",
"243 778 LINE"
);
}
);
width = 676;
}
);
leftKerningGroup = B;
rightKerningGroup = H;
unicode = 0143;
},
{
glyphname = nacute;
layers = (
{
layerId = "7BE58B69-D6A5-4645-9194-9194354D517E";
name = Regular;
paths = (
{
closed = 1;
nodes = (
"72 0 LINE",
"72 500 LINE",
"146 500 LINE",
"146 465 LINE",
"168 476 LINE SMOOTH",
"199 492 OFFCURVE",
"257 510 OFFCURVE",
"301 510 CURVE SMOOTH",
"434 510 OFFCURVE",
"470 448 OFFCURVE",
"470 264 CURVE",
"470 264 OFFCURVE",
"470 176 OFFCURVE",
"470 0 CURVE",
"396 0 LINE",
"396 262 LINE SMOOTH",
"396 401 OFFCURVE",
"378 443 OFFCURVE",
"286 443 CURVE SMOOTH",
"239 443 OFFCURVE",
"193 431 OFFCURVE",
"147 406 CURVE",
"147 0 LINE"
);
},
{
closed = 1;
nodes = (
"160 642 LINE",
"376 740 LINE",
"402 676 LINE",
"181 591 LINE"
);
}
);
width = 537;
}
);
leftKerningGroup = m;
rightKerningGroup = h;
unicode = 0144;
},
{
glyphname = Ncommaaccent;
layers = (
{
layerId = "7BE58B69-D6A5-4645-9194-9194354D517E";
name = Regular;
paths = (
{
closed = 1;
nodes = (
"324 -78 LINE",
"398 -78 LINE",
"348 -285 LINE",
"283 -285 LINE"
);
},
{
closed = 1;
nodes = (
"85 0 LINE",
"85 692 LINE",
"229 692 LINE",
"494 68 LINE",
"515 68 LINE",
"515 692 LINE",
"591 692 LINE",
"591 0 LINE",
"450 0 LINE",
"181 624 LINE",
"162 624 LINE",
"162 0 LINE"
);
}
);
width = 676;
}
);
leftKerningGroup = B;
rightKerningGroup = H;
unicode = 0145;
},
{
glyphname = ncommaaccent;
layers = (
{
layerId = "7BE58B69-D6A5-4645-9194-9194354D517E";
name = Regular;
paths = (
{
closed = 1;
nodes = (
"127 -285 LINE",
"168 -78 LINE",
"242 -78 LINE",
"193 -285 LINE"
);
},
{
closed = 1;
nodes = (
"147 0 LINE",
"72 0 LINE",
"72 500 LINE",
"146 500 LINE",
"146 465 LINE",
"200 495 OFFCURVE",
"252 510 OFFCURVE",
"301 510 CURVE SMOOTH",
"434 510 OFFCURVE",
"470 448 OFFCURVE",
"470 264 CURVE SMOOTH",
"470 0 LINE",
"396 0 LINE",
"396 262 LINE SMOOTH",
"396 401 OFFCURVE",
"377 443 OFFCURVE",
"288 443 CURVE SMOOTH",
"245 443 OFFCURVE",
"191 427 OFFCURVE",
"166 415 CURVE SMOOTH",
"147 406 LINE"
);
}
);
width = 537;
}
);
leftKerningGroup = m;
rightKerningGroup = h;
unicode = 0146;
},
{
glyphname = Ncaron;
layers = (
{
layerId = "7BE58B69-D6A5-4645-9194-9194354D517E";
name = Regular;
paths = (
{
closed = 1;
nodes = (
"85 0 LINE",
"85 692 LINE",
"229 692 LINE",
"494 68 LINE",
"515 68 LINE",
"515 692 LINE",
"591 692 LINE",
"591 0 LINE",
"450 0 LINE",
"181 624 LINE",
"162 624 LINE",
"162 0 LINE"
);
},
{
closed = 1;
nodes = (
"306 788 LINE",
"172 923 LINE",
"256 923 LINE",
"339 843 LINE",
"421 923 LINE",
"505 923 LINE",
"371 788 LINE"
);
}
);
width = 676;
}
);
leftKerningGroup = B;
rightKerningGroup = H;
unicode = 0147;
},
{
glyphname = ncaron;
layers = (
{
layerId = "7BE58B69-D6A5-4645-9194-9194354D517E";
name = Regular;
paths = (
{
closed = 1;
nodes = (
"147 0 LINE",
"72 0 LINE",
"72 500 LINE",
"146 500 LINE",
"146 465 LINE",
"200 495 OFFCURVE",
"252 510 OFFCURVE",
"301 510 CURVE SMOOTH",
"434 510 OFFCURVE",
"470 448 OFFCURVE",
"470 264 CURVE SMOOTH",
"470 0 LINE",
"396 0 LINE",
"396 262 LINE SMOOTH",
"396 401 OFFCURVE",
"377 443 OFFCURVE",
"288 443 CURVE SMOOTH",
"245 443 OFFCURVE",
"191 427 OFFCURVE",
"166 415 CURVE SMOOTH",
"147 406 LINE"
);
},
{
closed = 1;
nodes = (
"242 592 LINE",
"119 732 LINE",
"193 732 LINE",
"268 645 LINE",
"342 732 LINE",
"417 732 LINE",
"292 592 LINE"
);
}
);
width = 537;
}
);
leftKerningGroup = m;
rightKerningGroup = h;
unicode = 0148;
},
{
glyphname = Eng;
layers = (
{
layerId = "7BE58B69-D6A5-4645-9194-9194354D517E";
name = Regular;
paths = (
{
closed = 1;
nodes = (
"85 0 LINE",
"85 692 LINE",
"229 692 LINE",
"494 68 LINE",
"515 68 LINE",
"515 692 LINE",
"591 692 LINE",
"591 575 LINE",
"592 -22 LINE SMOOTH",
"592 -134 OFFCURVE",
"564 -175 OFFCURVE",
"473 -186 CURVE SMOOTH",
"455 -188 OFFCURVE",
"431 -189 OFFCURVE",
"402 -189 CURVE",
"402 -120 LINE",
"498 -120 OFFCURVE",
"515 -110 OFFCURVE",
"515 -11 CURVE SMOOTH",
"515 0 LINE",
"450 0 LINE",
"181 624 LINE",
"162 624 LINE",
"162 0 LINE"
);
}
);
width = 676;
}
);
leftKerningGroup = B;
rightKerningGroup = H;
unicode = 014A;
},
{
glyphname = eng;
layers = (
{
layerId = "7BE58B69-D6A5-4645-9194-9194354D517E";
name = Regular;
paths = (
{
closed = 1;
nodes = (
"146 0 LINE",
"72 0 LINE",
"72 500 LINE",
"146 500 LINE",
"146 467 LINE",
"204 496 OFFCURVE",
"257 510 OFFCURVE",
"304 510 CURVE SMOOTH",
"432 510 OFFCURVE",
"471 440 OFFCURVE",
"471 260 CURVE SMOOTH",
"471 -2 LINE SMOOTH",
"471 -126 OFFCURVE",
"442 -168 OFFCURVE",
"310 -237 CURVE",
"278 -174 LINE",
"378 -117 OFFCURVE",
"396 -91 OFFCURVE",
"396 -4 CURVE SMOOTH",
"396 259 LINE SMOOTH",
"396 392 OFFCURVE",
"376 442 OFFCURVE",
"292 442 CURVE SMOOTH",
"253 442 OFFCURVE",
"197 427 OFFCURVE",
"168 414 CURVE SMOOTH",
"146 405 LINE"
);
}
);
width = 538;
}
);
leftKerningGroup = m;
rightKerningGroup = h;
unicode = 014B;
},
{
glyphname = Omacron;
layers = (
{
layerId = "7BE58B69-D6A5-4645-9194-9194354D517E";
name = Regular;
paths = (
{
closed = 1;
nodes = (
"136 140 OFFCURVE",
"178 58 OFFCURVE",
"331 58 CURVE SMOOTH",
"483 58 OFFCURVE",
"524 137 OFFCURVE",
"524 341 CURVE SMOOTH",
"524 545 OFFCURVE",
"480 634 OFFCURVE",
"330 634 CURVE SMOOTH",
"180 634 OFFCURVE",
"136 546 OFFCURVE",
"136 343 CURVE SMOOTH"
);
},
{
closed = 1;
nodes = (
"604 94 OFFCURVE",
"538 -10 OFFCURVE",
"331 -10 CURVE SMOOTH",
"123 -10 OFFCURVE",
"57 99 OFFCURVE",
"57 343 CURVE SMOOTH",
"57 586 OFFCURVE",
"126 702 OFFCURVE",
"330 702 CURVE SMOOTH",
"534 702 OFFCURVE",
"604 588 OFFCURVE",
"604 341 CURVE SMOOTH"
);
},
{
closed = 1;
nodes = (
"174 812 LINE",
"174 870 LINE",
"485 870 LINE",
"485 812 LINE"
);
}
);
width = 660;
}
);
leftKerningGroup = G;
rightKerningGroup = O;
unicode = 014C;
},
{
glyphname = omacron;
layers = (
{
layerId = "7BE58B69-D6A5-4645-9194-9194354D517E";
name = Regular;
paths = (
{
closed = 1;
nodes = (
"420 510 OFFCURVE",
"478 434 OFFCURVE",
"478 251 CURVE SMOOTH",
"478 68 OFFCURVE",
"427 -10 OFFCURVE",
"264 -10 CURVE SMOOTH",
"101 -10 OFFCURVE",
"50 68 OFFCURVE",
"50 251 CURVE SMOOTH",
"50 434 OFFCURVE",
"109 510 OFFCURVE",
"265 510 CURVE SMOOTH"
);
},
{
closed = 1;
nodes = (
"377 55 OFFCURVE",
"401 105 OFFCURVE",
"401 252 CURVE SMOOTH",
"401 399 OFFCURVE",
"369 445 OFFCURVE",
"265 445 CURVE SMOOTH",
"160 445 OFFCURVE",
"127 399 OFFCURVE",
"127 253 CURVE SMOOTH",
"127 107 OFFCURVE",
"152 55 OFFCURVE",
"265 55 CURVE SMOOTH"
);
},
{
closed = 1;
nodes = (
"128 636 LINE",
"128 695 LINE",
"403 695 LINE",
"403 636 LINE"
);
}
);
width = 528;
}
);
leftKerningGroup = c;
rightKerningGroup = o;
unicode = 014D;
},
{
glyphname = Obreve;
layers = (
{
layerId = "7BE58B69-D6A5-4645-9194-9194354D517E";
name = Regular;
paths = (
{
closed = 1;
nodes = (
"136 140 OFFCURVE",
"178 58 OFFCURVE",
"331 58 CURVE SMOOTH",
"483 58 OFFCURVE",
"524 137 OFFCURVE",
"524 341 CURVE SMOOTH",
"524 545 OFFCURVE",
"480 634 OFFCURVE",
"330 634 CURVE SMOOTH",
"180 634 OFFCURVE",
"136 546 OFFCURVE",
"136 343 CURVE SMOOTH"
);
},
{
closed = 1;
nodes = (
"604 94 OFFCURVE",
"538 -10 OFFCURVE",
"331 -10 CURVE SMOOTH",
"123 -10 OFFCURVE",
"57 99 OFFCURVE",
"57 343 CURVE SMOOTH",
"57 586 OFFCURVE",
"126 702 OFFCURVE",
"330 702 CURVE SMOOTH",
"534 702 OFFCURVE",
"604 588 OFFCURVE",
"604 341 CURVE SMOOTH"
);
},
{
closed = 1;
nodes = (
"286 850 OFFCURVE",
"306 843 OFFCURVE",
"331 843 CURVE SMOOTH",
"380 843 OFFCURVE",
"418 874 OFFCURVE",
"419 918 CURVE",
"489 918 LINE",
"485 839 OFFCURVE",
"423 787 OFFCURVE",
"331 787 CURVE SMOOTH",
"239 787 OFFCURVE",
"178 839 OFFCURVE",
"174 918 CURVE",
"243 918 LINE",
"244 896 OFFCURVE",
"252 878 OFFCURVE",
"269 864 CURVE SMOOTH"
);
}
);
width = 660;
}
);
leftKerningGroup = G;
rightKerningGroup = O;
unicode = 014E;
},
{
glyphname = obreve;
layers = (
{
layerId = "7BE58B69-D6A5-4645-9194-9194354D517E";
name = Regular;
paths = (
{
closed = 1;
nodes = (
"420 510 OFFCURVE",
"478 434 OFFCURVE",
"478 251 CURVE SMOOTH",
"478 68 OFFCURVE",
"427 -10 OFFCURVE",
"264 -10 CURVE SMOOTH",
"101 -10 OFFCURVE",
"50 68 OFFCURVE",
"50 251 CURVE SMOOTH",
"50 434 OFFCURVE",
"109 510 OFFCURVE",
"265 510 CURVE SMOOTH"
);
},
{
closed = 1;
nodes = (
"377 55 OFFCURVE",
"401 105 OFFCURVE",
"401 252 CURVE SMOOTH",
"401 399 OFFCURVE",
"369 445 OFFCURVE",
"265 445 CURVE SMOOTH",
"160 445 OFFCURVE",
"127 399 OFFCURVE",
"127 253 CURVE SMOOTH",
"127 107 OFFCURVE",
"152 55 OFFCURVE",
"265 55 CURVE SMOOTH"
);
},
{
closed = 1;
nodes = (
"179 726 LINE",
"182 675 OFFCURVE",
"214 642 OFFCURVE",
"267 642 CURVE SMOOTH",
"319 642 OFFCURVE",
"352 675 OFFCURVE",
"353 726 CURVE",
"415 726 LINE",
"411 646 OFFCURVE",
"354 586 OFFCURVE",
"267 586 CURVE SMOOTH",
"179 586 OFFCURVE",
"122 646 OFFCURVE",
"118 726 CURVE"
);
}
);
width = 528;
}
);
leftKerningGroup = c;
rightKerningGroup = o;
unicode = 014F;
},
{
glyphname = Ohungarumlaut;
layers = (
{
layerId = "7BE58B69-D6A5-4645-9194-9194354D517E";
name = Regular;
paths = (
{
closed = 1;
nodes = (
"136 140 OFFCURVE",
"178 58 OFFCURVE",
"331 58 CURVE SMOOTH",
"483 58 OFFCURVE",
"524 137 OFFCURVE",
"524 341 CURVE SMOOTH",
"524 545 OFFCURVE",
"480 634 OFFCURVE",
"330 634 CURVE SMOOTH",
"180 634 OFFCURVE",
"136 546 OFFCURVE",
"136 343 CURVE SMOOTH"
);
},
{
closed = 1;
nodes = (
"604 94 OFFCURVE",
"538 -10 OFFCURVE",
"331 -10 CURVE SMOOTH",
"123 -10 OFFCURVE",
"57 99 OFFCURVE",
"57 343 CURVE SMOOTH",
"57 586 OFFCURVE",
"126 702 OFFCURVE",
"330 702 CURVE SMOOTH",
"534 702 OFFCURVE",
"604 588 OFFCURVE",
"604 341 CURVE SMOOTH"
);
},
{
closed = 1;
nodes = (
"348 785 LINE",
"490 916 LINE",
"545 881 LINE",
"399 752 LINE"
);
},
{
closed = 1;
nodes = (
"151 785 LINE",
"293 917 LINE",
"347 882 LINE",
"202 753 LINE"
);
}
);
width = 660;
}
);
leftKerningGroup = G;
rightKerningGroup = O;
unicode = 0150;
},
{
glyphname = ohungarumlaut;
layers = (
{
layerId = "7BE58B69-D6A5-4645-9194-9194354D517E";
name = Regular;
paths = (
{
closed = 1;
nodes = (
"420 510 OFFCURVE",
"478 434 OFFCURVE",
"478 251 CURVE SMOOTH",
"478 68 OFFCURVE",
"427 -10 OFFCURVE",
"264 -10 CURVE SMOOTH",
"101 -10 OFFCURVE",
"50 68 OFFCURVE",
"50 251 CURVE SMOOTH",
"50 434 OFFCURVE",
"109 510 OFFCURVE",
"265 510 CURVE SMOOTH"
);
},
{
closed = 1;
nodes = (
"377 55 OFFCURVE",
"401 105 OFFCURVE",
"401 252 CURVE SMOOTH",
"401 399 OFFCURVE",
"369 445 OFFCURVE",
"265 445 CURVE SMOOTH",
"160 445 OFFCURVE",
"127 399 OFFCURVE",
"127 253 CURVE SMOOTH",
"127 107 OFFCURVE",
"152 55 OFFCURVE",
"265 55 CURVE SMOOTH"
);
},
{
closed = 1;
nodes = (
"286 624 LINE",
"431 763 LINE",
"485 720 LINE",
"337 582 LINE"
);
},
{
closed = 1;
nodes = (
"93 624 LINE",
"238 762 LINE",
"292 720 LINE",
"145 582 LINE"
);
}
);
width = 528;
}
);
leftKerningGroup = c;
rightKerningGroup = o;
unicode = 0151;
},
